<?xml version="1.0" encoding="UTF-8"?>
<!DOCTYPE svg PUBLIC "-//W3C//DTD SVG 1.1//EN" "http://www.w3.org/Graphics/SVG/1.1/DTD/svg11.dtd">
<!-- Creator: CorelDRAW 2017 -->
<svg xmlns="http://www.w3.org/2000/svg" xml:space="preserve" width="1955px" height="362px" version="1.1" style="shape-rendering:geometricPrecision; text-rendering:geometricPrecision; image-rendering:optimizeQuality; fill-rule:evenodd; clip-rule:evenodd"
viewBox="0 0 42.01 7.79"
 xmlns:xlink="http://www.w3.org/1999/xlink">
 <defs>
  <style type="text/css">
   <![CDATA[
    .fil2 {fill:#00006B}
    .fil0 {fill:#00006B;fill-rule:nonzero}
    .fil1 {fill:#BA9241;fill-rule:nonzero}
   ]]>
  </style>
 </defs>
 <g id="Слой_x0020_1">
  <metadata id="CorelCorpID_0Corel-Layer"/>
  <path class="fil0" d="M1.85 2.56l0.65 0c0.33,0 0.58,-0.06 0.74,-0.18 0.2,-0.15 0.3,-0.4 0.3,-0.75 0,-0.39 -0.08,-0.67 -0.24,-0.83 -0.16,-0.16 -0.42,-0.24 -0.8,-0.24l-0.33 0c-0.09,0 -0.17,0.01 -0.21,0.02 -0.05,0.02 -0.08,0.05 -0.09,0.1 -0.01,0.04 -0.02,0.13 -0.02,0.27l0 1.61zm1.39 2.42l-3.24 0 0 -0.07c0.49,0 0.78,-0.02 0.88,-0.05 0.04,-0.02 0.07,-0.05 0.09,-0.08 0.02,-0.04 0.03,-0.12 0.03,-0.26l0 -3.57c0,-0.13 -0.01,-0.22 -0.03,-0.25 -0.01,-0.02 -0.04,-0.04 -0.09,-0.06 -0.13,-0.05 -0.43,-0.08 -0.88,-0.08l0 -0.06 2.84 0c0.5,0 0.9,0.14 1.2,0.4 0.23,0.22 0.35,0.44 0.35,0.66 0,0.28 -0.07,0.49 -0.21,0.63 -0.19,0.19 -0.55,0.32 -1.08,0.4 0.56,0.07 0.96,0.23 1.22,0.48 0.21,0.2 0.32,0.47 0.32,0.79 0,0.26 -0.12,0.5 -0.36,0.73 -0.28,0.26 -0.63,0.39 -1.04,0.39zm-0.56 -2.35l-0.83 0 0 1.89c0,0.14 0.01,0.23 0.03,0.27 0.01,0.03 0.05,0.06 0.1,0.08 0.06,0.02 0.13,0.04 0.21,0.04 0.09,0.01 0.29,0.01 0.61,0.01 0.33,0 0.57,-0.1 0.73,-0.3 0.15,-0.18 0.23,-0.44 0.23,-0.76 0,-0.39 -0.09,-0.68 -0.26,-0.89 -0.19,-0.23 -0.46,-0.34 -0.82,-0.34z"/>
  <path class="fil1" d="M6.74 3.08c0.27,-0.24 0.42,-0.37 0.45,-0.4l0 1.51 -0.06 -0.02c-0.06,-0.4 -0.23,-0.74 -0.5,-1.02 -0.28,-0.27 -0.59,-0.41 -0.93,-0.41 -0.24,0 -0.45,0.06 -0.63,0.17 -0.22,0.13 -0.32,0.33 -0.32,0.59 0,0.25 0.11,0.45 0.35,0.61 0.2,0.13 0.52,0.25 0.95,0.35 0.57,0.14 0.94,0.27 1.12,0.4 0.29,0.21 0.43,0.55 0.43,1.04 0,0.45 -0.15,0.81 -0.44,1.06 -0.25,0.21 -0.56,0.32 -0.91,0.32 -0.28,0 -0.52,-0.05 -0.74,-0.13 -0.21,-0.09 -0.4,-0.24 -0.56,-0.44 -0.27,0.36 -0.42,0.55 -0.43,0.57l0 -1.92 0.05 -0.01c0.09,0.4 0.19,0.72 0.3,0.96 0.09,0.21 0.2,0.37 0.33,0.51 0.24,0.26 0.6,0.39 1.07,0.39 0.21,0 0.41,-0.07 0.59,-0.21 0.21,-0.17 0.32,-0.37 0.32,-0.62 0,-0.31 -0.15,-0.55 -0.43,-0.73 -0.19,-0.12 -0.53,-0.24 -1.01,-0.37 -0.48,-0.13 -0.82,-0.27 -1.01,-0.41 -0.28,-0.21 -0.42,-0.51 -0.42,-0.91 0,-0.36 0.13,-0.66 0.38,-0.91 0.26,-0.25 0.56,-0.37 0.91,-0.37 0.29,0 0.54,0.04 0.73,0.13 0.06,0.03 0.19,0.12 0.41,0.27z"/>
  <path class="fil0" d="M13.88 2.17c0.4,-0.01 0.58,-0.01 0.53,-0.01 0.3,0 0.56,0.05 0.77,0.15 0.21,0.1 0.36,0.25 0.47,0.43 0.1,0.18 0.15,0.39 0.15,0.63 0,0.22 -0.04,0.42 -0.13,0.6 -0.1,0.19 -0.26,0.33 -0.48,0.45 -0.23,0.11 -0.53,0.17 -0.91,0.17 -0.05,0 -0.15,0 -0.3,-0.01 -0.14,0 -0.28,-0.01 -0.42,-0.01 -0.3,0 -0.53,0.01 -0.69,0.02l0 -0.11c0.14,-0.01 0.24,-0.03 0.31,-0.05 0.06,-0.02 0.1,-0.07 0.13,-0.14 0.02,-0.06 0.03,-0.17 0.03,-0.31l0 -2.87c0,-0.15 -0.01,-0.25 -0.03,-0.32 -0.03,-0.06 -0.07,-0.11 -0.13,-0.13 -0.07,-0.03 -0.17,-0.04 -0.31,-0.05l0 -0.11c0.38,0.01 0.94,0.01 1.68,0.01 0.49,0 0.83,0 1.04,-0.01 -0.03,0.24 -0.05,0.47 -0.05,0.68 0,0.15 0.01,0.27 0.02,0.36l-0.13 0c-0.03,-0.25 -0.06,-0.44 -0.11,-0.56 -0.04,-0.12 -0.11,-0.21 -0.21,-0.27 -0.1,-0.05 -0.25,-0.08 -0.46,-0.08l-0.3 0c-0.14,0 -0.24,0.01 -0.31,0.03 -0.06,0.03 -0.1,0.07 -0.13,0.14 -0.02,0.06 -0.03,0.16 -0.03,0.31l0 1.06zm0 1.81c0,0.14 0.01,0.25 0.03,0.31 0.02,0.07 0.05,0.12 0.1,0.15 0.06,0.02 0.14,0.04 0.26,0.04 0.25,0 0.44,-0.05 0.59,-0.15 0.14,-0.09 0.23,-0.22 0.29,-0.38 0.05,-0.16 0.08,-0.35 0.08,-0.57 0,-0.26 -0.04,-0.47 -0.1,-0.63 -0.07,-0.16 -0.17,-0.28 -0.32,-0.36 -0.15,-0.08 -0.35,-0.12 -0.6,-0.12l-0.33 0 0 1.71zm4.87 -0.08c-0.04,0.13 -0.11,0.26 -0.21,0.38 -0.1,0.11 -0.22,0.21 -0.37,0.28 -0.15,0.08 -0.31,0.11 -0.5,0.11 -0.27,0 -0.51,-0.06 -0.71,-0.18 -0.2,-0.13 -0.35,-0.31 -0.46,-0.53 -0.1,-0.23 -0.16,-0.49 -0.16,-0.79 0,-0.33 0.06,-0.62 0.16,-0.87 0.11,-0.25 0.26,-0.44 0.46,-0.57 0.2,-0.13 0.43,-0.2 0.69,-0.2 0.35,0 0.61,0.11 0.8,0.32 0.19,0.21 0.28,0.53 0.28,0.95l-1.81 0c-0.01,0.1 -0.02,0.23 -0.02,0.37 0,0.26 0.05,0.48 0.13,0.67 0.08,0.19 0.19,0.34 0.33,0.44 0.13,0.1 0.28,0.15 0.43,0.15 0.39,0 0.67,-0.19 0.85,-0.58l0.11 0.05zm-0.57 -1.21c0,-0.19 -0.01,-0.36 -0.05,-0.52 -0.04,-0.16 -0.1,-0.29 -0.19,-0.39 -0.08,-0.09 -0.19,-0.14 -0.31,-0.14 -0.12,0 -0.23,0.04 -0.33,0.12 -0.1,0.07 -0.18,0.19 -0.25,0.35 -0.07,0.15 -0.12,0.35 -0.13,0.58l1.26 0zm4.01 -0.95c-0.11,0 -0.2,0.01 -0.26,0.04 -0.06,0.02 -0.11,0.07 -0.14,0.12 -0.03,0.06 -0.04,0.15 -0.04,0.26l0 1.89c0,0.11 0.01,0.2 0.04,0.26 0.03,0.06 0.08,0.1 0.14,0.12 0.06,0.03 0.15,0.04 0.26,0.04l0 0.12c-0.36,-0.01 -0.58,-0.02 -0.69,-0.02 -0.11,0 -0.38,0.01 -0.83,0.02l0 -0.12c0.19,0 0.33,-0.03 0.42,-0.09 0.09,-0.06 0.14,-0.17 0.14,-0.33l0 -1.89c0,-0.11 -0.02,-0.2 -0.04,-0.26 -0.03,-0.06 -0.07,-0.1 -0.12,-0.12 -0.05,-0.03 -0.13,-0.04 -0.22,-0.04l-0.06 0c-0.09,0 -0.16,0.01 -0.22,0.04 -0.05,0.02 -0.08,0.06 -0.11,0.12 -0.02,0.06 -0.04,0.15 -0.05,0.26 -0.03,0.42 -0.08,0.78 -0.12,1.09 -0.05,0.31 -0.12,0.58 -0.21,0.82 -0.17,0.4 -0.38,0.6 -0.65,0.6 -0.12,0 -0.22,-0.03 -0.3,-0.09 -0.07,-0.06 -0.11,-0.15 -0.11,-0.26 0,-0.09 0.03,-0.16 0.08,-0.22 0.06,-0.05 0.13,-0.08 0.22,-0.08 0.09,0 0.16,0.02 0.22,0.07 0.05,0.05 0.08,0.12 0.08,0.21 0,0.13 -0.07,0.23 -0.22,0.28 0.01,0 0.03,0.01 0.06,0.01 0.2,0 0.38,-0.19 0.52,-0.56 0.09,-0.22 0.16,-0.49 0.21,-0.8 0.05,-0.32 0.09,-0.67 0.12,-1.07l0 -0.06c0,-0.13 -0.04,-0.23 -0.11,-0.28 -0.08,-0.05 -0.19,-0.08 -0.35,-0.08l0 -0.12c0.01,0 0.06,0 0.13,0.01 0.08,0.01 0.16,0.01 0.26,0.01 0.06,0 0.16,0 0.3,-0.01 0.14,-0.01 0.24,-0.01 0.32,-0.01 0.07,0 0.16,0 0.29,0.01 0.14,0.01 0.25,0.01 0.34,0.01 0.13,0 0.27,0 0.42,-0.01 0.15,-0.01 0.24,-0.01 0.28,-0.01l0 0.12zm3.26 0c-0.11,0 -0.19,0.01 -0.26,0.04 -0.06,0.02 -0.11,0.07 -0.14,0.12 -0.02,0.06 -0.04,0.15 -0.04,0.26l0 1.89c0,0.11 0.01,0.2 0.04,0.26 0.02,0.06 0.06,0.1 0.12,0.12 0.05,0.03 0.13,0.04 0.22,0.04l0 0.12c-0.32,-0.01 -0.54,-0.02 -0.65,-0.02 -0.1,0 -0.34,0.01 -0.69,0.02l0 -0.12c0.11,0 0.2,-0.01 0.26,-0.04 0.06,-0.02 0.11,-0.06 0.14,-0.12 0.03,-0.06 0.04,-0.15 0.04,-0.26l0 -0.87 -0.19 0c-0.18,0.01 -0.33,0.03 -0.46,0.06 -0.13,0.04 -0.24,0.1 -0.33,0.18 -0.08,0.08 -0.15,0.19 -0.19,0.33 -0.05,0.14 -0.08,0.28 -0.08,0.44 0,0.08 0.02,0.15 0.05,0.2 0.04,0.05 0.11,0.08 0.21,0.08l0 0.12c-0.29,-0.01 -0.48,-0.02 -0.56,-0.02 -0.11,0 -0.27,0.01 -0.47,0.02l0 -0.12c0.06,-0.01 0.1,-0.03 0.14,-0.06 0.03,-0.02 0.05,-0.05 0.06,-0.08 0.02,-0.04 0.03,-0.1 0.06,-0.18 0.05,-0.18 0.11,-0.34 0.18,-0.46 0.07,-0.12 0.15,-0.21 0.26,-0.29 0.13,-0.09 0.3,-0.16 0.52,-0.22 -0.32,-0.01 -0.56,-0.08 -0.72,-0.22 -0.16,-0.13 -0.24,-0.31 -0.24,-0.53 0,-0.15 0.04,-0.28 0.12,-0.41 0.08,-0.12 0.22,-0.22 0.41,-0.29 0.19,-0.07 0.44,-0.11 0.75,-0.11 0.06,0 0.18,0 0.35,0.01 0.18,0.01 0.31,0.01 0.41,0.01 0.12,0 0.26,0 0.41,-0.01 0.14,-0.01 0.24,-0.01 0.27,-0.01l0 0.12zm-0.96 0.42c0,-0.11 -0.01,-0.19 -0.04,-0.25 -0.03,-0.06 -0.07,-0.11 -0.13,-0.13 -0.06,-0.03 -0.15,-0.04 -0.25,-0.04 -0.31,0 -0.52,0.06 -0.64,0.19 -0.11,0.12 -0.17,0.29 -0.17,0.5 0,0.16 0.03,0.28 0.1,0.37 0.07,0.09 0.17,0.16 0.32,0.2 0.14,0.04 0.34,0.06 0.58,0.06l0.23 0 0 -0.9zm1.28 -0.54c0.04,0 0.13,0 0.28,0.01 0.15,0.01 0.28,0.01 0.41,0.01 0.1,0 0.23,0 0.4,-0.01 0.17,-0.01 0.29,-0.01 0.35,-0.01 0.41,0 0.69,0.06 0.87,0.18 0.17,0.12 0.26,0.3 0.26,0.52 0,0.11 -0.03,0.22 -0.1,0.32 -0.06,0.09 -0.16,0.18 -0.29,0.25 -0.13,0.07 -0.29,0.12 -0.48,0.15 0.37,0.02 0.64,0.09 0.81,0.21 0.16,0.12 0.25,0.29 0.25,0.5 0,0.26 -0.11,0.46 -0.32,0.61 -0.2,0.15 -0.53,0.23 -0.98,0.23 -0.08,0 -0.2,0 -0.37,-0.01 -0.17,-0.01 -0.31,-0.01 -0.4,-0.01 -0.11,0 -0.33,0.01 -0.69,0.02l0 -0.12c0.11,0 0.2,-0.01 0.26,-0.04 0.06,-0.02 0.11,-0.06 0.14,-0.12 0.03,-0.06 0.04,-0.15 0.04,-0.26l0 -1.89c0,-0.11 -0.01,-0.2 -0.04,-0.26 -0.03,-0.05 -0.08,-0.1 -0.14,-0.12 -0.06,-0.03 -0.15,-0.04 -0.26,-0.04l0 -0.12zm1.19 1.4c0.23,0 0.41,-0.02 0.53,-0.07 0.12,-0.05 0.2,-0.12 0.25,-0.21 0.05,-0.09 0.07,-0.22 0.07,-0.37 0,-0.14 -0.02,-0.25 -0.05,-0.34 -0.04,-0.09 -0.11,-0.16 -0.2,-0.21 -0.1,-0.05 -0.23,-0.08 -0.4,-0.08 -0.11,0 -0.19,0.01 -0.25,0.04 -0.06,0.02 -0.11,0.07 -0.14,0.13 -0.02,0.06 -0.04,0.14 -0.04,0.25l0 0.86 0.23 0zm-0.23 1.03c0,0.11 0.02,0.2 0.04,0.26 0.03,0.06 0.08,0.1 0.14,0.12 0.06,0.03 0.15,0.04 0.26,0.04 0.3,0 0.51,-0.06 0.63,-0.19 0.12,-0.13 0.18,-0.31 0.18,-0.52 0,-0.23 -0.06,-0.4 -0.19,-0.49 -0.13,-0.1 -0.31,-0.15 -0.53,-0.15l-0.53 0 0 0.93zm4.64 -0.18c-0.04,0.14 -0.11,0.27 -0.2,0.39 -0.09,0.12 -0.21,0.22 -0.35,0.3 -0.15,0.07 -0.32,0.11 -0.51,0.11 -0.24,0 -0.46,-0.06 -0.66,-0.18 -0.19,-0.13 -0.34,-0.31 -0.45,-0.54 -0.12,-0.23 -0.17,-0.5 -0.17,-0.81 0,-0.31 0.06,-0.59 0.17,-0.83 0.11,-0.25 0.27,-0.44 0.48,-0.57 0.2,-0.14 0.43,-0.21 0.69,-0.21 0.26,0 0.49,0.06 0.68,0.19 0.18,0.12 0.27,0.27 0.27,0.44 0,0.1 -0.03,0.18 -0.09,0.24 -0.06,0.06 -0.13,0.09 -0.22,0.09 -0.09,0 -0.16,-0.03 -0.22,-0.08 -0.07,-0.05 -0.1,-0.12 -0.1,-0.21 0,-0.09 0.03,-0.16 0.07,-0.21 0.05,-0.06 0.11,-0.09 0.18,-0.11 -0.04,-0.07 -0.11,-0.13 -0.21,-0.18 -0.1,-0.04 -0.2,-0.06 -0.31,-0.06 -0.14,0 -0.28,0.04 -0.4,0.13 -0.13,0.09 -0.23,0.24 -0.31,0.45 -0.08,0.21 -0.12,0.49 -0.12,0.83 0,0.48 0.08,0.83 0.23,1.05 0.16,0.22 0.36,0.32 0.6,0.32 0.17,0 0.32,-0.04 0.47,-0.14 0.15,-0.1 0.27,-0.25 0.37,-0.45l0.11 0.04zm1.33 -0.86c0.2,-0.02 0.35,-0.05 0.47,-0.11 0.11,-0.06 0.2,-0.14 0.26,-0.24 0.06,-0.09 0.12,-0.22 0.17,-0.39 0.06,-0.16 0.11,-0.29 0.15,-0.38 0.04,-0.1 0.11,-0.18 0.19,-0.25 0.09,-0.07 0.21,-0.11 0.35,-0.11 0.12,0 0.21,0.03 0.27,0.09 0.06,0.06 0.09,0.14 0.09,0.23 0,0.09 -0.02,0.16 -0.08,0.22 -0.05,0.06 -0.13,0.09 -0.22,0.09 -0.11,0 -0.19,-0.04 -0.25,-0.1 -0.06,-0.07 -0.09,-0.16 -0.09,-0.27l0 -0.04c-0.04,0.01 -0.07,0.05 -0.11,0.1 -0.03,0.05 -0.06,0.1 -0.09,0.17 -0.02,0.06 -0.07,0.18 -0.13,0.35 -0.05,0.11 -0.09,0.21 -0.13,0.28 -0.04,0.07 -0.09,0.14 -0.15,0.2 -0.07,0.07 -0.15,0.11 -0.24,0.15 0.21,0 0.39,0.03 0.53,0.09 0.15,0.07 0.27,0.17 0.36,0.3 0.03,0.06 0.07,0.12 0.09,0.19 0.03,0.08 0.07,0.17 0.11,0.3 0.04,0.12 0.08,0.21 0.1,0.27 0.05,0.11 0.1,0.18 0.16,0.23 0.06,0.05 0.14,0.08 0.25,0.09l0 0.12c-0.22,-0.01 -0.39,-0.02 -0.49,-0.02 -0.09,0 -0.29,0.01 -0.62,0.02l0 -0.12c0.11,0 0.16,-0.06 0.16,-0.17 0,-0.03 0,-0.06 -0.01,-0.11 -0.04,-0.19 -0.08,-0.35 -0.11,-0.47 -0.04,-0.12 -0.09,-0.23 -0.17,-0.33 -0.05,-0.08 -0.11,-0.14 -0.17,-0.18 -0.07,-0.04 -0.15,-0.07 -0.25,-0.08 -0.1,-0.02 -0.23,-0.03 -0.4,-0.02l0 0.94c0,0.11 0.01,0.2 0.04,0.26 0.02,0.06 0.06,0.1 0.12,0.12 0.05,0.03 0.13,0.04 0.22,0.04l0 0.12c-0.32,-0.01 -0.53,-0.02 -0.64,-0.02 -0.11,0 -0.35,0.01 -0.7,0.02l0 -0.12c0.11,0 0.19,-0.01 0.26,-0.04 0.06,-0.02 0.11,-0.06 0.14,-0.12 0.02,-0.06 0.04,-0.15 0.04,-0.26l0 -1.89c0,-0.11 -0.02,-0.2 -0.04,-0.26 -0.03,-0.05 -0.08,-0.1 -0.14,-0.12 -0.07,-0.03 -0.15,-0.04 -0.26,-0.04l0 -0.12c0.03,0 0.12,0 0.27,0.01 0.15,0.01 0.29,0.01 0.43,0.01 0.12,0 0.25,0 0.39,-0.01 0.13,-0.01 0.22,-0.01 0.25,-0.01l0 0.12c-0.09,0 -0.17,0.01 -0.22,0.04 -0.06,0.02 -0.1,0.06 -0.12,0.12 -0.03,0.06 -0.04,0.15 -0.04,0.26l0 0.85zm5.63 -1.27c-0.11,0 -0.19,0.01 -0.26,0.04 -0.06,0.02 -0.11,0.07 -0.14,0.12 -0.03,0.06 -0.04,0.15 -0.04,0.26l0 1.89c0,0.11 0.01,0.2 0.04,0.26 0.03,0.06 0.08,0.1 0.14,0.12 0.07,0.03 0.15,0.04 0.26,0.04l0 0.12c-0.35,-0.01 -0.58,-0.02 -0.69,-0.02 -0.11,0 -0.33,0.01 -0.65,0.02l0 -0.12c0.1,0 0.17,-0.01 0.22,-0.04 0.06,-0.02 0.1,-0.06 0.12,-0.12 0.03,-0.06 0.04,-0.15 0.04,-0.26l0 -1.76 -1.36 1.88c0.01,0.11 0.05,0.19 0.11,0.24 0.05,0.04 0.14,0.06 0.27,0.06l0 0.12c-0.32,-0.01 -0.54,-0.02 -0.65,-0.02 -0.11,0 -0.34,0.01 -0.7,0.02l0 -0.12c0.11,0 0.2,-0.01 0.26,-0.04 0.07,-0.02 0.11,-0.06 0.14,-0.12 0.03,-0.06 0.04,-0.15 0.04,-0.26l0 -1.89c0,-0.11 -0.01,-0.2 -0.04,-0.26 -0.03,-0.05 -0.07,-0.1 -0.14,-0.12 -0.06,-0.03 -0.15,-0.04 -0.26,-0.04l0 -0.12c0.04,0 0.13,0 0.28,0.01 0.15,0.01 0.29,0.01 0.42,0.01 0.13,0 0.26,0 0.4,-0.01 0.13,-0.01 0.22,-0.01 0.25,-0.01l0 0.12c-0.1,0 -0.17,0.01 -0.23,0.04 -0.05,0.02 -0.09,0.06 -0.12,0.12 -0.02,0.06 -0.04,0.15 -0.04,0.26l0 1.83 1.37 -1.89c0,-0.13 -0.04,-0.23 -0.09,-0.28 -0.06,-0.05 -0.16,-0.08 -0.29,-0.08l0 -0.12c0.03,0 0.11,0 0.25,0.01 0.13,0.01 0.27,0.01 0.4,0.01 0.13,0 0.27,0 0.41,-0.01 0.15,-0.01 0.25,-0.01 0.28,-0.01l0 0.12zm3.62 0c-0.11,0 -0.2,0.01 -0.26,0.04 -0.06,0.02 -0.11,0.07 -0.14,0.12 -0.03,0.06 -0.04,0.15 -0.04,0.26l0 1.89c0,0.11 0.01,0.2 0.04,0.26 0.03,0.06 0.08,0.1 0.14,0.12 0.06,0.03 0.15,0.04 0.26,0.04l0 0.12c-0.35,-0.01 -0.58,-0.02 -0.69,-0.02 -0.11,0 -0.33,0.01 -0.65,0.02l0 -0.12c0.1,0 0.17,-0.01 0.22,-0.04 0.06,-0.02 0.1,-0.06 0.12,-0.12 0.03,-0.06 0.04,-0.15 0.04,-0.26l0 -1.76 -1.36 1.88c0.01,0.11 0.05,0.19 0.11,0.24 0.05,0.04 0.14,0.06 0.27,0.06l0 0.12c-0.33,-0.01 -0.54,-0.02 -0.65,-0.02 -0.11,0 -0.34,0.01 -0.7,0.02l0 -0.12c0.11,0 0.2,-0.01 0.26,-0.04 0.07,-0.02 0.11,-0.06 0.14,-0.12 0.03,-0.06 0.04,-0.15 0.04,-0.26l0 -1.89c0,-0.11 -0.01,-0.2 -0.04,-0.26 -0.03,-0.05 -0.07,-0.1 -0.14,-0.12 -0.06,-0.03 -0.15,-0.04 -0.26,-0.04l0 -0.12c0.04,0 0.13,0 0.28,0.01 0.15,0.01 0.29,0.01 0.42,0.01 0.13,0 0.26,0 0.4,-0.01 0.13,-0.01 0.22,-0.01 0.25,-0.01l0 0.12c-0.1,0 -0.17,0.01 -0.23,0.04 -0.05,0.02 -0.09,0.06 -0.12,0.12 -0.02,0.06 -0.04,0.15 -0.04,0.26l0 1.83 1.37 -1.89c-0.01,-0.13 -0.04,-0.23 -0.09,-0.28 -0.06,-0.05 -0.16,-0.08 -0.29,-0.08l0 -0.12c0.03,0 0.11,0 0.25,0.01 0.13,0.01 0.27,0.01 0.4,0.01 0.13,0 0.27,0 0.41,-0.01 0.15,-0.01 0.24,-0.01 0.28,-0.01l0 0.12zm-0.9 -1.74c0.09,0 0.17,0.03 0.22,0.09 0.06,0.05 0.09,0.13 0.09,0.22 0,0.15 -0.09,0.29 -0.27,0.41 -0.21,0.14 -0.47,0.21 -0.79,0.21 -0.33,0 -0.59,-0.07 -0.8,-0.21 -0.18,-0.12 -0.27,-0.26 -0.27,-0.41 0,-0.09 0.03,-0.17 0.09,-0.22 0.06,-0.06 0.13,-0.09 0.22,-0.09 0.09,0 0.16,0.03 0.22,0.08 0.07,0.06 0.1,0.14 0.1,0.23 0,0.08 -0.03,0.14 -0.07,0.2 -0.04,0.05 -0.1,0.08 -0.18,0.1 0.07,0.07 0.17,0.13 0.3,0.16 0.13,0.03 0.26,0.05 0.39,0.05 0.13,0 0.25,-0.02 0.38,-0.05 0.13,-0.03 0.23,-0.09 0.3,-0.16 -0.08,-0.02 -0.14,-0.05 -0.18,-0.1 -0.04,-0.06 -0.07,-0.12 -0.07,-0.2 0,-0.09 0.03,-0.17 0.1,-0.23 0.06,-0.05 0.13,-0.08 0.22,-0.08z"/>
  <g id="_2950998221488">
   <path class="fil0" d="M13.03 5.83c0.02,0.07 0.04,0.11 0.08,0.11 0.01,0 0.03,0 0.05,-0.02 0.06,-0.03 0.1,-0.05 0.14,-0.07 0.05,-0.01 0.1,-0.02 0.16,-0.02 0.11,0 0.21,0.03 0.31,0.09 0.09,0.06 0.16,0.14 0.21,0.25 0.05,0.11 0.08,0.24 0.08,0.38 0,0.15 -0.03,0.29 -0.09,0.41 -0.06,0.12 -0.15,0.21 -0.25,0.27 -0.11,0.06 -0.23,0.1 -0.36,0.1 -0.11,0 -0.2,-0.03 -0.28,-0.08 -0.05,-0.02 -0.08,-0.05 -0.11,-0.09 -0.02,-0.03 -0.03,-0.07 -0.03,-0.11 0,-0.05 0.01,-0.08 0.04,-0.11 0.03,-0.03 0.07,-0.04 0.11,-0.04 0.04,0 0.08,0.01 0.11,0.04 0.03,0.03 0.04,0.06 0.04,0.11 0,0.03 -0.01,0.07 -0.04,0.09 -0.02,0.03 -0.05,0.05 -0.08,0.05 0.01,0.03 0.04,0.05 0.09,0.07 0.05,0.01 0.09,0.02 0.14,0.02 0.08,0 0.15,-0.02 0.22,-0.07 0.06,-0.04 0.12,-0.11 0.16,-0.22 0.04,-0.1 0.06,-0.24 0.06,-0.41l0 -0.09c-0.03,0.08 -0.07,0.13 -0.11,0.16 -0.04,0.03 -0.09,0.05 -0.16,0.05 -0.04,0 -0.08,-0.01 -0.11,-0.02 -0.03,-0.01 -0.06,-0.03 -0.11,-0.07 -0.04,-0.03 -0.08,-0.05 -0.13,-0.05 -0.03,0 -0.06,0.01 -0.08,0.03 -0.03,0.01 -0.05,0.04 -0.07,0.08l-0.04 -0.02c0.04,-0.08 0.08,-0.14 0.12,-0.18 0.04,-0.03 0.08,-0.05 0.14,-0.05 0.04,0 0.08,0.01 0.13,0.04 0.04,0.03 0.07,0.05 0.1,0.07 0.02,0.01 0.06,0.02 0.1,0.02 0.1,0 0.17,-0.04 0.21,-0.13 -0.01,-0.12 -0.03,-0.22 -0.07,-0.3 -0.03,-0.08 -0.07,-0.13 -0.13,-0.17 -0.05,-0.04 -0.1,-0.06 -0.16,-0.06 -0.06,0 -0.11,0.02 -0.16,0.05 -0.05,0.03 -0.09,0.06 -0.12,0.1 -0.05,0.06 -0.08,0.14 -0.09,0.24l-0.07 0c0,-0.22 0,-0.37 -0.01,-0.45l0.06 0zm1.69 0.7c0.1,0 0.17,-0.02 0.22,-0.05 0.06,-0.03 0.1,-0.07 0.13,-0.11 0.03,-0.05 0.06,-0.11 0.08,-0.19 0.03,-0.08 0.05,-0.14 0.07,-0.18 0.02,-0.05 0.05,-0.09 0.1,-0.12 0.04,-0.03 0.09,-0.05 0.16,-0.05 0.06,0 0.1,0.01 0.13,0.04 0.03,0.03 0.05,0.07 0.05,0.11 0,0.04 -0.02,0.08 -0.04,0.11 -0.03,0.02 -0.07,0.04 -0.11,0.04 -0.05,0 -0.09,-0.02 -0.12,-0.05 -0.03,-0.03 -0.04,-0.08 -0.04,-0.13l0 -0.02c-0.02,0.01 -0.04,0.03 -0.05,0.05 -0.02,0.02 -0.03,0.05 -0.05,0.08 -0.01,0.03 -0.03,0.09 -0.06,0.17 -0.02,0.05 -0.04,0.1 -0.06,0.13 -0.02,0.04 -0.04,0.07 -0.07,0.1 -0.03,0.03 -0.07,0.05 -0.12,0.07 0.1,0 0.19,0.01 0.26,0.04 0.07,0.03 0.12,0.08 0.17,0.15 0.01,0.02 0.03,0.05 0.04,0.09 0.01,0.03 0.03,0.08 0.05,0.14 0.02,0.05 0.04,0.1 0.05,0.13 0.02,0.05 0.05,0.08 0.08,0.11 0.02,0.02 0.06,0.03 0.12,0.04l0 0.06c-0.11,-0.01 -0.19,-0.01 -0.24,-0.01 -0.04,0 -0.14,0 -0.29,0.01l0 -0.06c0.05,0 0.07,-0.03 0.07,-0.08 0,-0.01 0,-0.03 0,-0.05 -0.02,-0.1 -0.04,-0.17 -0.06,-0.23 -0.01,-0.06 -0.04,-0.11 -0.07,-0.16 -0.03,-0.03 -0.06,-0.06 -0.09,-0.08 -0.03,-0.02 -0.07,-0.03 -0.12,-0.04 -0.04,-0.01 -0.11,-0.01 -0.19,-0.01l0 0.45c0,0.05 0.01,0.09 0.02,0.12 0.01,0.03 0.03,0.05 0.06,0.06 0.02,0.01 0.06,0.02 0.11,0.02l0 0.06c-0.16,-0.01 -0.26,-0.01 -0.31,-0.01 -0.06,0 -0.17,0 -0.34,0.01l0 -0.06c0.06,0 0.1,-0.01 0.13,-0.02 0.03,-0.01 0.05,-0.03 0.06,-0.06 0.02,-0.03 0.02,-0.07 0.02,-0.12l0 -0.9c0,-0.06 0,-0.1 -0.02,-0.12 -0.01,-0.03 -0.03,-0.05 -0.06,-0.06 -0.03,-0.02 -0.07,-0.02 -0.13,-0.02l0 -0.06c0.02,0 0.06,0 0.13,0.01 0.07,0 0.14,0 0.21,0 0.06,0 0.12,0 0.18,0 0.07,-0.01 0.11,-0.01 0.13,-0.01l0 0.06c-0.05,0 -0.09,0 -0.11,0.01 -0.03,0.02 -0.05,0.04 -0.06,0.07 -0.01,0.02 -0.02,0.06 -0.02,0.12l0 0.4zm1.76 -0.7c0.12,0 0.22,0.03 0.32,0.08 0.09,0.05 0.17,0.13 0.22,0.25 0.05,0.11 0.08,0.25 0.08,0.42 0,0.17 -0.03,0.31 -0.08,0.42 -0.05,0.11 -0.13,0.2 -0.22,0.25 -0.1,0.05 -0.2,0.08 -0.32,0.08 -0.13,0 -0.23,-0.03 -0.33,-0.08 -0.09,-0.05 -0.16,-0.14 -0.22,-0.25 -0.05,-0.11 -0.08,-0.25 -0.08,-0.42 0,-0.17 0.03,-0.31 0.08,-0.42 0.06,-0.12 0.13,-0.2 0.22,-0.25 0.1,-0.05 0.2,-0.08 0.33,-0.08zm0 0.05c-0.12,0 -0.2,0.06 -0.27,0.17 -0.06,0.12 -0.09,0.29 -0.09,0.53 0,0.24 0.03,0.41 0.09,0.52 0.07,0.11 0.15,0.17 0.27,0.17 0.11,0 0.19,-0.06 0.26,-0.17 0.06,-0.11 0.09,-0.28 0.09,-0.52 0,-0.24 -0.03,-0.41 -0.09,-0.53 -0.07,-0.11 -0.15,-0.17 -0.26,-0.17zm2.36 0.05c-0.06,0 -0.1,0 -0.13,0.02 -0.03,0.01 -0.05,0.03 -0.06,0.06 -0.02,0.02 -0.02,0.06 -0.02,0.12l0 0.9c0,0.05 0,0.09 0.02,0.12 0.01,0.03 0.03,0.05 0.06,0.06 0.03,0.01 0.07,0.02 0.13,0.02l0 0.06c-0.17,-0.01 -0.28,-0.01 -0.33,-0.01 -0.06,0 -0.16,0 -0.31,0.01l0 -0.06c0.04,0 0.08,-0.01 0.1,-0.02 0.03,-0.01 0.05,-0.03 0.06,-0.06 0.01,-0.03 0.02,-0.07 0.02,-0.12l0 -0.45 -0.61 0 0 0.45c0,0.05 0,0.09 0.02,0.12 0.01,0.03 0.03,0.05 0.05,0.06 0.03,0.01 0.07,0.02 0.11,0.02l0 0.06c-0.15,-0.01 -0.26,-0.01 -0.31,-0.01 -0.05,0 -0.16,0 -0.33,0.01l0 -0.06c0.05,0 0.09,-0.01 0.12,-0.02 0.03,-0.01 0.06,-0.03 0.07,-0.06 0.01,-0.03 0.02,-0.07 0.02,-0.12l0 -0.9c0,-0.06 -0.01,-0.1 -0.02,-0.12 -0.01,-0.03 -0.04,-0.05 -0.07,-0.06 -0.03,-0.02 -0.07,-0.02 -0.12,-0.02l0 -0.06c0.02,0 0.06,0 0.13,0.01 0.07,0 0.14,0 0.2,0 0.06,0 0.13,0 0.19,0 0.07,-0.01 0.11,-0.01 0.12,-0.01l0 0.06c-0.04,0 -0.08,0 -0.11,0.01 -0.02,0.02 -0.04,0.04 -0.05,0.07 -0.02,0.02 -0.02,0.06 -0.02,0.12l0 0.4 0.61 0 0 -0.4c0,-0.06 -0.01,-0.1 -0.02,-0.12 -0.01,-0.03 -0.03,-0.05 -0.06,-0.07 -0.02,-0.01 -0.06,-0.01 -0.1,-0.01l0 -0.06c0.01,0 0.05,0 0.12,0.01 0.06,0 0.12,0 0.19,0 0.06,0 0.12,0 0.19,0 0.07,-0.01 0.12,-0.01 0.14,-0.01l0 0.06zm0.83 -0.1c0.12,0 0.23,0.03 0.32,0.08 0.1,0.05 0.17,0.13 0.23,0.25 0.05,0.11 0.08,0.25 0.08,0.42 0,0.17 -0.03,0.31 -0.08,0.42 -0.06,0.11 -0.13,0.2 -0.23,0.25 -0.09,0.05 -0.2,0.08 -0.32,0.08 -0.12,0 -0.23,-0.03 -0.32,-0.08 -0.1,-0.05 -0.17,-0.14 -0.22,-0.25 -0.06,-0.11 -0.09,-0.25 -0.09,-0.42 0,-0.17 0.03,-0.31 0.09,-0.42 0.05,-0.12 0.12,-0.2 0.22,-0.25 0.09,-0.05 0.2,-0.08 0.32,-0.08zm0 0.05c-0.11,0 -0.2,0.06 -0.26,0.17 -0.07,0.12 -0.1,0.29 -0.1,0.53 0,0.24 0.03,0.41 0.1,0.52 0.06,0.11 0.15,0.17 0.26,0.17 0.11,0 0.2,-0.06 0.26,-0.17 0.07,-0.11 0.1,-0.28 0.1,-0.52 0,-0.24 -0.03,-0.41 -0.1,-0.53 -0.06,-0.11 -0.15,-0.17 -0.26,-0.17zm2.64 0.04c-0.07,0 -0.12,0.01 -0.15,0.02 -0.03,0.02 -0.05,0.04 -0.06,0.07 -0.01,0.03 -0.02,0.08 -0.02,0.15l0 0.84c0,0.06 0.01,0.11 0.02,0.15 0.01,0.03 0.03,0.05 0.06,0.06 0.03,0.01 0.08,0.02 0.15,0.02l0 0.06c-0.09,-0.01 -0.2,-0.01 -0.34,-0.01 -0.16,0 -0.28,0 -0.36,0.01l0 -0.06c0.07,0 0.12,-0.01 0.15,-0.02 0.03,-0.01 0.05,-0.03 0.06,-0.06 0.01,-0.04 0.02,-0.09 0.02,-0.15l0 -0.97 -0.52 1.27 -0.04 0 -0.49 -1.26 0 0.96c0,0.06 0,0.11 0.01,0.15 0.02,0.03 0.04,0.05 0.07,0.06 0.03,0.01 0.07,0.02 0.14,0.02l0 0.06c-0.06,-0.01 -0.15,-0.01 -0.25,-0.01 -0.11,0 -0.2,0 -0.26,0.01l0 -0.06c0.07,0 0.12,-0.01 0.15,-0.02 0.03,-0.01 0.05,-0.03 0.06,-0.06 0.01,-0.04 0.02,-0.09 0.02,-0.15l0 -0.84c0,-0.07 -0.01,-0.12 -0.02,-0.15 -0.01,-0.03 -0.03,-0.05 -0.06,-0.07 -0.03,-0.01 -0.08,-0.02 -0.15,-0.02l0 -0.05c0.06,0 0.15,0 0.26,0 0.08,0 0.15,0 0.21,0l0.42 1.11 0.45 -1.11 0.13 0c0.14,0 0.25,0 0.34,0l0 0.05zm1.72 0.01c-0.05,0 -0.09,0 -0.12,0.02 -0.03,0.01 -0.05,0.03 -0.07,0.06 -0.01,0.02 -0.02,0.06 -0.02,0.12l0 0.9c0,0.05 0.01,0.09 0.02,0.12 0.02,0.03 0.04,0.05 0.07,0.06 0.03,0.01 0.07,0.02 0.12,0.02l0 0.06c-0.17,-0.01 -0.28,-0.01 -0.33,-0.01 -0.05,0 -0.15,0 -0.31,0.01l0 -0.06c0.05,0 0.08,-0.01 0.11,-0.02 0.02,-0.01 0.04,-0.03 0.06,-0.06 0.01,-0.03 0.01,-0.07 0.01,-0.12l0 -0.84 -0.65 0.9c0.01,0.05 0.03,0.09 0.06,0.11 0.02,0.02 0.07,0.03 0.13,0.03l0 0.06c-0.16,-0.01 -0.26,-0.01 -0.31,-0.01 -0.06,0 -0.17,0 -0.34,0.01l0 -0.06c0.06,0 0.1,-0.01 0.13,-0.02 0.03,-0.01 0.05,-0.03 0.06,-0.06 0.02,-0.03 0.02,-0.07 0.02,-0.12l0 -0.9c0,-0.06 0,-0.1 -0.02,-0.12 -0.01,-0.03 -0.03,-0.05 -0.06,-0.06 -0.03,-0.02 -0.07,-0.02 -0.13,-0.02l0 -0.06c0.02,0 0.07,0 0.14,0.01 0.07,0 0.13,0 0.2,0 0.06,0 0.12,0 0.19,0 0.06,-0.01 0.1,-0.01 0.12,-0.01l0 0.06c-0.05,0 -0.09,0 -0.11,0.01 -0.03,0.02 -0.05,0.04 -0.06,0.07 -0.01,0.02 -0.02,0.06 -0.02,0.12l0 0.87 0.65 -0.9c0,-0.06 -0.01,-0.11 -0.04,-0.14 -0.03,-0.02 -0.07,-0.03 -0.14,-0.03l0 -0.06c0.02,0 0.06,0 0.12,0.01 0.07,0 0.13,0 0.19,0 0.06,0 0.13,0 0.2,0 0.07,-0.01 0.11,-0.01 0.13,-0.01l0 0.06zm1.62 0c-0.05,0 -0.09,0 -0.12,0.02 -0.03,0.01 -0.05,0.03 -0.07,0.06 -0.01,0.02 -0.02,0.06 -0.02,0.12l0 0.9c0,0.05 0.01,0.09 0.02,0.12 0.02,0.03 0.04,0.05 0.07,0.06 0.03,0.01 0.07,0.02 0.12,0.02l0 0.06c-0.17,-0.01 -0.27,-0.01 -0.32,-0.01 -0.06,0 -0.2,0 -0.43,0.01l0 -0.06c0.1,0 0.17,-0.02 0.22,-0.05 0.05,-0.03 0.08,-0.09 0.08,-0.18l0 -0.31c-0.06,0.03 -0.12,0.05 -0.21,0.08 -0.08,0.02 -0.16,0.03 -0.24,0.03 -0.13,0 -0.23,-0.03 -0.29,-0.1 -0.04,-0.04 -0.06,-0.09 -0.07,-0.14 -0.02,-0.06 -0.03,-0.13 -0.03,-0.22l0 -0.21c0,-0.06 0,-0.1 -0.02,-0.12 -0.01,-0.03 -0.03,-0.05 -0.06,-0.06 -0.03,-0.02 -0.07,-0.02 -0.12,-0.02l0 -0.06c0.01,0 0.06,0 0.13,0.01 0.07,0 0.13,0 0.2,0 0.06,0 0.12,0 0.19,0 0.06,-0.01 0.1,-0.01 0.12,-0.01l0 0.06c-0.05,0 -0.09,0 -0.11,0.01 -0.03,0.02 -0.05,0.04 -0.06,0.07 -0.01,0.02 -0.02,0.06 -0.02,0.12l0 0.27c0,0.07 0.01,0.13 0.02,0.17 0,0.05 0.03,0.08 0.06,0.11 0.03,0.02 0.08,0.03 0.14,0.03 0.15,0 0.27,-0.02 0.37,-0.08l0 -0.5c0,-0.06 -0.01,-0.1 -0.02,-0.12 -0.01,-0.03 -0.03,-0.05 -0.06,-0.07 -0.03,-0.01 -0.06,-0.01 -0.11,-0.01l0 -0.06c0.02,0 0.06,0 0.12,0.01 0.07,0 0.13,0 0.19,0 0.06,0 0.13,0 0.2,0 0.07,-0.01 0.12,-0.01 0.13,-0.01l0 0.06zm1.36 1.03c-0.02,0.06 -0.06,0.12 -0.1,0.18 -0.05,0.05 -0.11,0.1 -0.18,0.13 -0.07,0.04 -0.15,0.06 -0.24,0.06 -0.13,0 -0.24,-0.03 -0.34,-0.09 -0.09,-0.06 -0.17,-0.15 -0.22,-0.26 -0.05,-0.1 -0.07,-0.23 -0.07,-0.37 0,-0.16 0.02,-0.3 0.08,-0.41 0.05,-0.12 0.12,-0.21 0.21,-0.28 0.1,-0.06 0.21,-0.09 0.33,-0.09 0.17,0 0.3,0.05 0.38,0.15 0.09,0.1 0.14,0.25 0.14,0.46l-0.86 0c-0.01,0.04 -0.01,0.1 -0.01,0.17 0,0.12 0.02,0.23 0.06,0.32 0.04,0.09 0.09,0.16 0.15,0.21 0.07,0.05 0.14,0.07 0.21,0.07 0.18,0 0.32,-0.09 0.4,-0.28l0.06 0.03zm-0.28 -0.58c0.01,-0.09 0,-0.17 -0.02,-0.25 -0.02,-0.08 -0.05,-0.14 -0.09,-0.18 -0.04,-0.05 -0.09,-0.07 -0.15,-0.07 -0.05,0 -0.11,0.02 -0.15,0.06 -0.05,0.03 -0.09,0.09 -0.13,0.16 -0.03,0.08 -0.05,0.17 -0.06,0.28l0.6 0zm1.64 0.56c-0.02,0.07 -0.05,0.13 -0.09,0.19 -0.05,0.06 -0.1,0.1 -0.17,0.14 -0.07,0.04 -0.15,0.06 -0.25,0.06 -0.11,0 -0.21,-0.03 -0.31,-0.09 -0.09,-0.06 -0.16,-0.15 -0.22,-0.26 -0.05,-0.11 -0.08,-0.24 -0.08,-0.38 0,-0.15 0.03,-0.29 0.09,-0.4 0.05,-0.12 0.13,-0.21 0.22,-0.27 0.1,-0.07 0.21,-0.1 0.34,-0.1 0.12,0 0.23,0.03 0.32,0.09 0.08,0.06 0.13,0.13 0.13,0.21 0,0.05 -0.02,0.09 -0.04,0.11 -0.03,0.03 -0.07,0.04 -0.11,0.04 -0.04,0 -0.08,-0.01 -0.11,-0.03 -0.03,-0.03 -0.04,-0.06 -0.04,-0.1 0,-0.04 0.01,-0.08 0.03,-0.1 0.02,-0.03 0.05,-0.05 0.08,-0.06 -0.01,-0.03 -0.05,-0.06 -0.09,-0.08 -0.05,-0.02 -0.1,-0.03 -0.15,-0.03 -0.07,0 -0.13,0.02 -0.19,0.06 -0.06,0.05 -0.11,0.12 -0.15,0.22 -0.04,0.1 -0.06,0.23 -0.06,0.39 0,0.23 0.04,0.4 0.11,0.5 0.08,0.11 0.17,0.16 0.29,0.16 0.08,0 0.15,-0.03 0.22,-0.07 0.08,-0.05 0.13,-0.12 0.18,-0.22l0.05 0.02zm0.63 -0.41c0.1,0 0.17,-0.02 0.23,-0.05 0.05,-0.03 0.09,-0.07 0.12,-0.11 0.03,-0.05 0.06,-0.11 0.09,-0.19 0.02,-0.08 0.05,-0.14 0.07,-0.18 0.02,-0.05 0.05,-0.09 0.09,-0.12 0.04,-0.03 0.1,-0.05 0.16,-0.05 0.06,0 0.11,0.01 0.14,0.04 0.02,0.03 0.04,0.07 0.04,0.11 0,0.04 -0.01,0.08 -0.04,0.11 -0.03,0.02 -0.06,0.04 -0.11,0.04 -0.05,0 -0.09,-0.02 -0.12,-0.05 -0.02,-0.03 -0.04,-0.08 -0.04,-0.13l0 -0.02c-0.02,0.01 -0.03,0.03 -0.05,0.05 -0.02,0.02 -0.03,0.05 -0.04,0.08 -0.02,0.03 -0.04,0.09 -0.07,0.17 -0.02,0.05 -0.04,0.1 -0.06,0.13 -0.02,0.04 -0.04,0.07 -0.07,0.1 -0.03,0.03 -0.07,0.05 -0.12,0.07 0.1,0 0.19,0.01 0.26,0.04 0.07,0.03 0.13,0.08 0.17,0.15 0.02,0.02 0.03,0.05 0.04,0.09 0.02,0.03 0.03,0.08 0.06,0.14 0.02,0.05 0.03,0.1 0.04,0.13 0.03,0.05 0.05,0.08 0.08,0.11 0.03,0.02 0.07,0.03 0.12,0.04l0 0.06c-0.11,-0.01 -0.19,-0.01 -0.23,-0.01 -0.05,0 -0.15,0 -0.3,0.01l0 -0.06c0.05,0 0.08,-0.03 0.08,-0.08 0,-0.01 -0.01,-0.03 -0.01,-0.05 -0.02,-0.1 -0.04,-0.17 -0.05,-0.23 -0.02,-0.06 -0.05,-0.11 -0.08,-0.16 -0.03,-0.03 -0.05,-0.06 -0.09,-0.08 -0.03,-0.02 -0.07,-0.03 -0.11,-0.04 -0.05,-0.01 -0.12,-0.01 -0.2,-0.01l0 0.45c0,0.05 0.01,0.09 0.02,0.12 0.02,0.03 0.03,0.05 0.06,0.06 0.03,0.01 0.06,0.02 0.11,0.02l0 0.06c-0.16,-0.01 -0.26,-0.01 -0.31,-0.01 -0.05,0 -0.16,0 -0.33,0.01l0 -0.06c0.05,0 0.09,-0.01 0.12,-0.02 0.03,-0.01 0.05,-0.03 0.07,-0.06 0.01,-0.03 0.02,-0.07 0.02,-0.12l0 -0.9c0,-0.06 -0.01,-0.1 -0.02,-0.12 -0.02,-0.03 -0.04,-0.05 -0.07,-0.06 -0.03,-0.02 -0.07,-0.02 -0.12,-0.02l0 -0.06c0.01,0 0.06,0 0.13,0.01 0.07,0 0.14,0 0.2,0 0.06,0 0.12,0 0.19,0 0.06,-0.01 0.1,-0.01 0.12,-0.01l0 0.06c-0.05,0 -0.08,0 -0.11,0.01 -0.03,0.02 -0.04,0.04 -0.06,0.07 -0.01,0.02 -0.02,0.06 -0.02,0.12l0 0.4zm2.69 -0.6c-0.05,0 -0.09,0 -0.12,0.02 -0.03,0.01 -0.05,0.03 -0.07,0.06 -0.01,0.02 -0.02,0.06 -0.02,0.12l0 0.9c0,0.05 0.01,0.09 0.02,0.12 0.02,0.03 0.04,0.05 0.07,0.06 0.03,0.01 0.07,0.02 0.12,0.02l0 0.06c-0.17,-0.01 -0.28,-0.01 -0.33,-0.01 -0.05,0 -0.15,0 -0.31,0.01l0 -0.06c0.05,0 0.08,-0.01 0.11,-0.02 0.02,-0.01 0.04,-0.03 0.06,-0.06 0.01,-0.03 0.01,-0.07 0.01,-0.12l0 -0.84 -0.65 0.9c0.01,0.05 0.03,0.09 0.06,0.11 0.02,0.02 0.07,0.03 0.13,0.03l0 0.06c-0.16,-0.01 -0.26,-0.01 -0.31,-0.01 -0.06,0 -0.17,0 -0.34,0.01l0 -0.06c0.06,0 0.1,-0.01 0.13,-0.02 0.03,-0.01 0.05,-0.03 0.06,-0.06 0.02,-0.03 0.02,-0.07 0.02,-0.12l0 -0.9c0,-0.06 0,-0.1 -0.02,-0.12 -0.01,-0.03 -0.03,-0.05 -0.06,-0.06 -0.03,-0.02 -0.07,-0.02 -0.13,-0.02l0 -0.06c0.02,0 0.07,0 0.14,0.01 0.07,0 0.13,0 0.2,0 0.06,0 0.12,0 0.19,0 0.06,-0.01 0.1,-0.01 0.12,-0.01l0 0.06c-0.05,0 -0.09,0 -0.11,0.01 -0.03,0.02 -0.05,0.04 -0.06,0.07 -0.01,0.02 -0.02,0.06 -0.02,0.12l0 0.87 0.65 -0.9c0,-0.06 -0.01,-0.11 -0.04,-0.14 -0.03,-0.02 -0.07,-0.03 -0.14,-0.03l0 -0.06c0.02,0 0.06,0 0.12,0.01 0.07,0 0.13,0 0.19,0 0.06,0 0.13,0 0.2,0 0.07,-0.01 0.11,-0.01 0.13,-0.01l0 0.06zm1.36 1.03c-0.02,0.06 -0.06,0.12 -0.11,0.18 -0.04,0.05 -0.1,0.1 -0.17,0.13 -0.07,0.04 -0.15,0.06 -0.24,0.06 -0.13,0 -0.24,-0.03 -0.34,-0.09 -0.09,-0.06 -0.17,-0.15 -0.22,-0.26 -0.05,-0.1 -0.07,-0.23 -0.07,-0.37 0,-0.16 0.02,-0.3 0.07,-0.41 0.06,-0.12 0.13,-0.21 0.22,-0.28 0.1,-0.06 0.21,-0.09 0.33,-0.09 0.17,0 0.29,0.05 0.38,0.15 0.09,0.1 0.14,0.25 0.14,0.46l-0.86 0c-0.01,0.04 -0.01,0.1 -0.01,0.17 0,0.12 0.02,0.23 0.06,0.32 0.04,0.09 0.09,0.16 0.15,0.21 0.07,0.05 0.14,0.07 0.21,0.07 0.18,0 0.32,-0.09 0.4,-0.28l0.06 0.03zm-0.28 -0.58c0.01,-0.09 0,-0.17 -0.02,-0.25 -0.02,-0.08 -0.05,-0.14 -0.09,-0.18 -0.04,-0.05 -0.09,-0.07 -0.15,-0.07 -0.06,0 -0.11,0.02 -0.16,0.06 -0.04,0.03 -0.08,0.09 -0.12,0.16 -0.03,0.08 -0.05,0.17 -0.06,0.28l0.6 0zm2.33 0.56c-0.02,0.07 -0.05,0.13 -0.1,0.19 -0.04,0.06 -0.1,0.1 -0.17,0.14 -0.07,0.04 -0.15,0.06 -0.24,0.06 -0.11,0 -0.22,-0.03 -0.31,-0.09 -0.09,-0.06 -0.17,-0.15 -0.22,-0.26 -0.05,-0.11 -0.08,-0.24 -0.08,-0.38 0,-0.15 0.03,-0.29 0.08,-0.4 0.06,-0.12 0.13,-0.21 0.23,-0.27 0.1,-0.07 0.21,-0.1 0.33,-0.1 0.13,0 0.23,0.03 0.32,0.09 0.09,0.06 0.13,0.13 0.13,0.21 0,0.05 -0.01,0.09 -0.04,0.11 -0.03,0.03 -0.06,0.04 -0.1,0.04 -0.05,0 -0.08,-0.01 -0.11,-0.03 -0.03,-0.03 -0.05,-0.06 -0.05,-0.1 0,-0.04 0.02,-0.08 0.04,-0.1 0.02,-0.03 0.05,-0.05 0.08,-0.06 -0.02,-0.03 -0.05,-0.06 -0.1,-0.08 -0.05,-0.02 -0.1,-0.03 -0.15,-0.03 -0.07,0 -0.13,0.02 -0.19,0.06 -0.06,0.05 -0.11,0.12 -0.14,0.22 -0.04,0.1 -0.06,0.23 -0.06,0.39 0,0.23 0.03,0.4 0.11,0.5 0.07,0.11 0.17,0.16 0.29,0.16 0.07,0 0.15,-0.03 0.22,-0.07 0.07,-0.05 0.13,-0.12 0.18,-0.22l0.05 0.02zm1.7 -1.01c-0.05,0 -0.09,0 -0.12,0.02 -0.03,0.01 -0.06,0.03 -0.07,0.06 -0.01,0.02 -0.02,0.06 -0.02,0.12l0 0.9c0,0.05 0.01,0.09 0.02,0.12 0.01,0.03 0.04,0.05 0.07,0.06 0.03,0.01 0.07,0.02 0.12,0.02l0 0.06c-0.17,-0.01 -0.28,-0.01 -0.33,-0.01 -0.05,0 -0.16,0 -0.31,0.01l0 -0.06c0.04,0 0.08,-0.01 0.11,-0.02 0.02,-0.01 0.04,-0.03 0.05,-0.06 0.01,-0.03 0.02,-0.07 0.02,-0.12l0 -0.9c0,-0.06 -0.01,-0.1 -0.02,-0.12 -0.01,-0.03 -0.03,-0.05 -0.05,-0.07 -0.03,-0.01 -0.07,-0.01 -0.11,-0.01l-0.25 0c-0.04,0 -0.08,0 -0.1,0.01 -0.03,0.02 -0.05,0.04 -0.06,0.07 -0.01,0.02 -0.02,0.06 -0.02,0.12l0 0.9c0,0.05 0.01,0.09 0.02,0.12 0.01,0.03 0.03,0.05 0.06,0.06 0.02,0.01 0.06,0.02 0.1,0.02l0 0.06c-0.15,-0.01 -0.25,-0.01 -0.31,-0.01 -0.05,0 -0.16,0 -0.33,0.01l0 -0.06c0.05,0 0.1,-0.01 0.13,-0.02 0.03,-0.01 0.05,-0.03 0.06,-0.06 0.02,-0.03 0.02,-0.07 0.02,-0.12l0 -0.9c0,-0.06 0,-0.1 -0.02,-0.12 -0.01,-0.03 -0.03,-0.05 -0.06,-0.06 -0.03,-0.02 -0.08,-0.02 -0.13,-0.02l0 -0.06c0.02,0 0.06,0 0.13,0.01 0.08,0 0.14,0 0.2,0 0.07,0 0.14,0 0.24,0 0.09,-0.01 0.17,-0.01 0.21,-0.01 0.05,0 0.11,0 0.2,0.01 0.08,0 0.16,0 0.22,0 0.06,0 0.13,0 0.2,0 0.07,-0.01 0.11,-0.01 0.13,-0.01l0 0.06z"/>
   <path class="fil0" d="M37.63 5.83c0.12,0 0.23,0.03 0.33,0.08 0.09,0.05 0.16,0.13 0.22,0.25 0.05,0.11 0.08,0.25 0.08,0.42 0,0.17 -0.03,0.31 -0.08,0.42 -0.06,0.11 -0.13,0.2 -0.22,0.25 -0.1,0.05 -0.21,0.08 -0.33,0.08 -0.12,0 -0.23,-0.03 -0.32,-0.08 -0.09,-0.05 -0.17,-0.14 -0.22,-0.25 -0.06,-0.11 -0.08,-0.25 -0.08,-0.42 0,-0.17 0.02,-0.31 0.08,-0.42 0.05,-0.12 0.13,-0.2 0.22,-0.25 0.09,-0.05 0.2,-0.08 0.32,-0.08zm0 0.05c-0.11,0 -0.19,0.06 -0.26,0.17 -0.06,0.12 -0.09,0.29 -0.09,0.53 0,0.24 0.03,0.41 0.09,0.52 0.07,0.11 0.15,0.17 0.26,0.17 0.11,0 0.2,-0.06 0.27,-0.17 0.06,-0.11 0.09,-0.28 0.09,-0.52 0,-0.24 -0.03,-0.41 -0.09,-0.53 -0.07,-0.11 -0.16,-0.17 -0.27,-0.17zm1.28 0.25c0.04,-0.1 0.1,-0.17 0.18,-0.22 0.07,-0.05 0.16,-0.08 0.26,-0.08 0.1,0 0.18,0.03 0.26,0.08 0.08,0.05 0.14,0.13 0.19,0.23 0.04,0.11 0.06,0.23 0.06,0.37 0,0.14 -0.02,0.28 -0.07,0.4 -0.04,0.12 -0.11,0.22 -0.2,0.3 -0.1,0.08 -0.22,0.12 -0.36,0.12 -0.07,0 -0.13,-0.02 -0.19,-0.04 -0.06,-0.03 -0.1,-0.07 -0.13,-0.11l0 0.35c0,0.07 0.02,0.13 0.06,0.16 0.05,0.02 0.11,0.04 0.2,0.04l0 0.06c-0.02,0 -0.07,-0.01 -0.15,-0.01 -0.09,0 -0.17,-0.01 -0.24,0 -0.06,-0.01 -0.12,0 -0.19,0 -0.06,0 -0.1,0.01 -0.11,0.01l0 -0.06c0.07,0 0.11,-0.01 0.14,-0.04 0.03,-0.02 0.04,-0.07 0.04,-0.13l0 -1.39c0,-0.09 -0.02,-0.15 -0.05,-0.19 -0.03,-0.04 -0.08,-0.06 -0.16,-0.06l0 -0.05c0.06,0 0.11,0 0.17,0 0.12,0 0.21,-0.01 0.29,-0.03l0 0.29zm0 0.96c0.02,0.05 0.06,0.09 0.11,0.13 0.05,0.03 0.11,0.04 0.18,0.04 0.26,0 0.39,-0.23 0.39,-0.71 0,-0.43 -0.1,-0.64 -0.32,-0.64 -0.08,0 -0.15,0.03 -0.22,0.09 -0.07,0.06 -0.11,0.15 -0.14,0.26l0 0.83zm1.8 -0.63c0.19,0 0.33,0.04 0.42,0.11 0.09,0.07 0.14,0.16 0.14,0.28 0,0.08 -0.02,0.15 -0.06,0.21 -0.04,0.07 -0.11,0.12 -0.2,0.16 -0.08,0.05 -0.2,0.07 -0.34,0.07 -0.02,0 -0.07,0 -0.13,-0.01 -0.06,0 -0.11,0 -0.15,0 -0.05,0 -0.16,0 -0.32,0.01l0 -0.06c0.05,0 0.09,-0.01 0.12,-0.02 0.03,-0.01 0.05,-0.03 0.06,-0.06 0.02,-0.03 0.03,-0.07 0.03,-0.12l0 -0.9c0,-0.06 -0.01,-0.1 -0.02,-0.12 -0.01,-0.03 -0.03,-0.05 -0.06,-0.07 -0.02,-0.01 -0.06,-0.01 -0.11,-0.01l0 -0.06c0.02,0 0.06,0 0.12,0.01 0.07,0 0.13,0 0.19,0 0.06,0 0.13,0 0.2,0 0.07,-0.01 0.12,-0.01 0.13,-0.01l0 0.06c-0.05,0 -0.09,0 -0.12,0.02 -0.03,0.01 -0.05,0.03 -0.07,0.06 -0.01,0.02 -0.02,0.06 -0.02,0.12l0 0.33 0.19 0zm1.09 0.57c0,0.05 0,0.09 0.02,0.12 0.01,0.03 0.03,0.05 0.06,0.06 0.03,0.01 0.08,0.02 0.13,0.02l0 0.06c-0.17,-0.01 -0.28,-0.01 -0.34,-0.01 -0.05,0 -0.15,0 -0.3,0.01l0 -0.06c0.04,0 0.08,-0.01 0.1,-0.02 0.03,-0.01 0.05,-0.03 0.06,-0.06 0.01,-0.03 0.02,-0.07 0.02,-0.12l0 -0.9c0,-0.06 -0.01,-0.1 -0.02,-0.12 -0.01,-0.03 -0.03,-0.05 -0.06,-0.07 -0.02,-0.01 -0.06,-0.01 -0.1,-0.01l0 -0.06c0.01,0 0.05,0 0.12,0.01 0.06,0 0.12,0 0.18,0 0.06,0 0.13,0 0.19,0 0.07,-0.01 0.11,-0.01 0.12,-0.01l0 0.06c-0.05,0 -0.08,0 -0.11,0.01 -0.02,0.02 -0.04,0.04 -0.05,0.07 -0.02,0.02 -0.02,0.06 -0.02,0.12l0 0.9zm-1.28 0c0,0.07 0.01,0.13 0.03,0.16 0.02,0.02 0.05,0.04 0.09,0.04 0.14,0 0.23,-0.03 0.29,-0.1 0.05,-0.06 0.08,-0.15 0.08,-0.26 0,-0.08 -0.02,-0.15 -0.05,-0.21 -0.03,-0.05 -0.08,-0.09 -0.14,-0.12 -0.07,-0.02 -0.16,-0.03 -0.27,-0.03l-0.03 0 0 0.52z"/>
  </g>
  <rect class="fil2" x="10.16" y="0.5" width="0.15" height="6.78"/>
  <polygon class="fil2" points="7.58,1.97 7.48,1.97 7.48,0.6 4.92,0.6 4.92,0.5 7.48,0.5 7.58,0.5 7.58,0.6 "/>
  <polygon class="fil2" points="0.02,5.81 0.12,5.81 0.12,7.18 2.67,7.18 2.67,7.28 0.12,7.28 0.02,7.28 0.02,7.18 "/>
 </g>
</svg>
