<svg xmlns="http://www.w3.org/2000/svg" xml:space="preserve" width="1783px" height="1541px" version="1.1" style="shape-rendering:geometricPrecision; text-rendering:geometricPrecision; image-rendering:optimizeQuality; fill-rule:evenodd; clip-rule:evenodd" fill='#ba9241'
viewBox="0 0 446.85 386.19"
 xmlns:xlink="http://www.w3.org/1999/xlink">
 <g id="Слой_x0020_1">
  <metadata id="CorelCorpID_0Corel-Layer"/>
  <path class="fil0 str0" d="M13.65 322.49c-1.88,1.88 -3.4,4.07 -4.45,6.43l0 0.01c-1.02,2.28 -1.61,4.74 -1.67,7.25 -0.09,3.36 0.64,6.59 2.11,9.47 1.46,2.85 3.65,5.38 6.48,7.33 1.11,0.77 2.3,1.42 3.54,1.93 1.22,0.5 2.51,0.88 3.86,1.11 3.27,0.58 6.5,0.36 9.46,-0.56 3,-0.93 5.74,-2.58 8.01,-4.85l0 -0.02 176.31 -176.3 -0.08 -0.08 -27.64 -27.64 -175.92 175.92 -0.01 0zm421.14 62.22l-196.13 0c-2.91,0 -5.55,-1.18 -7.46,-3.09 -1.92,-1.92 -3.11,-4.57 -3.11,-7.48 0,-2.91 1.18,-5.55 3.1,-7.46l0 -0.02c1.22,-1.22 2.74,-2.14 4.44,-2.65l0 -4.96c0,-4.99 2.03,-9.52 5.31,-12.8 2.61,-2.6 6,-4.42 9.78,-5.06l0 -12.31c0,-2.91 1.19,-5.56 3.11,-7.48 1.91,-1.91 4.55,-3.09 7.46,-3.09l150.87 0c2.91,0 5.55,1.18 7.47,3.09 1.92,1.92 3.11,4.57 3.11,7.48l0 12.31c3.78,0.64 7.17,2.46 9.78,5.06 3.27,3.28 5.3,7.81 5.3,12.8l0 4.96c1.7,0.51 3.23,1.43 4.45,2.65 1.91,1.92 3.1,4.56 3.1,7.48 0,2.91 -1.19,5.56 -3.11,7.48 -1.92,1.91 -4.56,3.09 -7.47,3.09zm-196.13 -6.06l196.13 0c1.26,0 2.39,-0.5 3.21,-1.32 0.81,-0.81 1.31,-1.93 1.31,-3.19 0,-1.25 -0.51,-2.37 -1.32,-3.19 -0.82,-0.82 -1.95,-1.32 -3.2,-1.32l-196.13 0c-1.24,0 -2.37,0.5 -3.19,1.32l-0.01 -0.01c-0.81,0.82 -1.31,1.95 -1.31,3.2 0,1.25 0.5,2.38 1.31,3.19 0.81,0.82 1.95,1.32 3.2,1.32zm3.03 -15.08l190.07 0 0 -4.52c0,-3.33 -1.35,-6.35 -3.53,-8.54 -2.17,-2.17 -5.19,-3.52 -8.52,-3.52l-165.96 0c-3.34,0 -6.35,1.35 -8.53,3.52 -2.18,2.19 -3.53,5.21 -3.53,8.54l0 4.52zm15.09 -22.64l159.9 0 0 -12.05c0,-1.25 -0.51,-2.38 -1.32,-3.19 -0.81,-0.82 -1.94,-1.32 -3.2,-1.32l-150.87 0c-1.25,0 -2.39,0.5 -3.2,1.32 -0.81,0.81 -1.31,1.93 -1.31,3.19l0 12.05zm16 -143.17c-2.06,-2.06 -3.09,-4.77 -3.09,-7.47 0,-1.73 0.42,-3.46 1.27,-5.02l-12.35 -12.35c-1.56,0.85 -3.29,1.27 -5.02,1.27 -2.7,0 -5.4,-1.03 -7.46,-3.1l-0.01 0 -0.01 -0.01c-1.14,-1.14 -1.96,-2.47 -2.47,-3.89l-9.24 9.24 -0.01 0c-2.07,2.06 -4.77,3.09 -7.47,3.09 -1.73,0 -3.45,-0.42 -5.02,-1.27l-176.63 176.63 0 -0.01c-2.99,2.99 -6.58,5.15 -10.49,6.37 -3.88,1.21 -8.07,1.49 -12.3,0.75 -1.74,-0.31 -3.46,-0.81 -5.12,-1.49 -1.64,-0.68 -3.22,-1.53 -4.68,-2.55 -3.65,-2.53 -6.5,-5.82 -8.41,-9.56 -1.93,-3.77 -2.9,-7.99 -2.78,-12.35 0.09,-3.34 0.86,-6.58 2.19,-9.57l0.01 0c1.36,-3.07 3.3,-5.87 5.68,-8.25l0 -0.01 176.25 -176.24c-0.85,-1.57 -1.28,-3.3 -1.28,-5.02 0,-2.7 1.03,-5.4 3.09,-7.46l0 -0.01 9.25 -9.25c-1.42,-0.51 -2.75,-1.34 -3.89,-2.47l-0.02 -0.01c-2.06,-2.06 -3.09,-4.77 -3.09,-7.47 0,-1.73 0.42,-3.46 1.27,-5.02l-12.35 -12.35c-1.56,0.84 -3.29,1.27 -5.02,1.27 -2.7,0 -5.4,-1.03 -7.46,-3.1l-0.02 -0.01c-1.17,-1.17 -2,-2.55 -2.51,-4.01 -3.31,2.66 -7.33,3.99 -11.34,3.99 -4.63,0 -9.27,-1.76 -12.8,-5.3l-0.02 0c-3.53,-3.54 -5.3,-8.17 -5.3,-12.81 0,-4.64 1.77,-9.27 5.3,-12.81l53.34 -53.34c3.54,-3.54 8.18,-5.31 12.81,-5.31 4.64,0 9.28,1.77 12.82,5.31 3.53,3.53 5.3,8.17 5.3,12.81 0,4.02 -1.33,8.04 -3.99,11.34 1.46,0.51 2.84,1.35 4.01,2.52l0.01 0.01c2.06,2.06 3.1,4.77 3.1,7.46 0,1.73 -0.43,3.46 -1.27,5.03l12.34 12.34c1.56,-0.85 3.29,-1.27 5.02,-1.27 2.71,0 5.41,1.03 7.48,3.1l0.01 0.01 0 0.01c2.06,2.06 3.09,4.76 3.09,7.45l-0.01 0c0,1.73 -0.42,3.46 -1.27,5.02l39.01 39.02c1.57,-0.85 3.3,-1.27 5.04,-1.27 2.69,0 5.39,1.03 7.46,3.09l0.01 0 0 0.01c2.07,2.06 3.1,4.77 3.1,7.47 0,1.73 -0.43,3.46 -1.27,5.03l12.34 12.34c1.56,-0.85 3.29,-1.27 5.02,-1.27 2.7,0 5.4,1.03 7.47,3.1l0.01 0.01c1.17,1.17 2.01,2.54 2.52,4.01 3.3,-2.66 7.32,-3.99 11.34,-3.99 4.64,0 9.27,1.76 12.81,5.3 3.54,3.54 5.31,8.18 5.31,12.81 0,4.63 -1.77,9.26 -5.31,12.8l0 0.01 -53.34 53.34c-3.54,3.54 -8.17,5.31 -12.81,5.31 -4.64,0 -9.27,-1.77 -12.81,-5.31 -3.54,-3.54 -5.3,-8.17 -5.3,-12.81 0,-4.02 1.32,-8.04 3.98,-11.34 -1.46,-0.51 -2.83,-1.35 -4,-2.52l-0.02 0zm57.66 -42.7l-0.03 0.03 -42.67 42.67 0 0 -5.33 5.34c-2.36,2.35 -3.53,5.44 -3.53,8.52 0,3.09 1.17,6.17 3.53,8.53 2.35,2.35 5.44,3.53 8.52,3.53 3.09,0 6.17,-1.18 8.52,-3.53l53.35 -53.34 0 0.01c2.35,-2.36 3.53,-5.45 3.53,-8.54 0,-3.08 -1.18,-6.17 -3.53,-8.52 -2.36,-2.36 -5.44,-3.53 -8.53,-3.53 -3.09,0 -6.17,1.17 -8.53,3.53l-5.3 5.3zm-54.69 35.23c0,1.15 0.44,2.31 1.32,3.19l-0.01 0c0.88,0.88 2.04,1.32 3.2,1.32 1.08,0 2.15,-0.38 3,-1.13l42.87 -42.87 0.04 -0.04c0.85,-0.87 1.28,-2.01 1.28,-3.15 0,-1.16 -0.44,-2.32 -1.32,-3.2 -0.88,-0.87 -2.03,-1.31 -3.2,-1.31 -1.09,0 -2.18,0.39 -3.04,1.17l-0.15 0.15 0 0 -42.67 42.67 -0.18 0.19c-0.76,0.85 -1.14,1.93 -1.14,3.01zm-109.64 -114.16l-0.01 0 42.68 -42.67 0.03 -0.04 5.3 -5.3c2.35,-2.35 3.53,-5.44 3.53,-8.52 0,-3.09 -1.18,-6.18 -3.53,-8.53 -2.35,-2.35 -5.44,-3.53 -8.53,-3.53 -3.08,0 -6.17,1.18 -8.52,3.53l-53.34 53.34c-2.35,2.36 -3.53,5.44 -3.53,8.53 0,3.09 1.18,6.17 3.53,8.53l-0.01 0c2.36,2.35 5.44,3.52 8.54,3.52 3.09,0 6.18,-1.17 8.53,-3.52l-0.01 0 5.34 -5.34zm2.96 7.47c0,1.16 0.44,2.32 1.31,3.2 0.88,0.88 2.04,1.32 3.2,1.32 1.08,0 2.16,-0.38 3.01,-1.14l0.18 -0.18 42.68 -42.68c0.88,-0.88 1.32,-2.03 1.32,-3.19 0,-1.16 -0.44,-2.32 -1.32,-3.2 -0.88,-0.87 -2.04,-1.31 -3.2,-1.31 -1.13,0 -2.27,0.43 -3.15,1.28l-0.04 0.04 -42.89 42.89c-0.73,0.85 -1.1,1.91 -1.1,2.97zm87.6 83.33l0.12 -0.12 -0.01 0 42.68 -42.67 0 0 0.11 -0.11c0.8,-0.86 1.21,-1.97 1.21,-3.09 0,-1.15 -0.44,-2.31 -1.32,-3.19l-0.01 0 0.01 -0.01c-0.88,-0.87 -2.04,-1.31 -3.19,-1.31 -1.16,0 -2.31,0.44 -3.19,1.32l-40.54 40.54 0 0 -2.16 2.16c-0.87,0.88 -1.3,2.02 -1.3,3.17 0,1.16 0.44,2.31 1.31,3.19l0.01 0 0 0 -0.01 0.01c0.88,0.87 2.04,1.31 3.2,1.31 1.11,0 2.22,-0.4 3.08,-1.2zm56.64 -24.65l-11.71 -11.71 -38.39 38.39 11.72 11.71 38.38 -38.39zm-114.48 -36.97l-1.96 1.96c-0.75,0.85 -1.13,1.93 -1.13,3.01 0,1.15 0.44,2.31 1.32,3.19l0 0 0 0.01c0.88,0.87 2.03,1.31 3.19,1.31 1.15,0 2.31,-0.44 3.19,-1.32l42.68 -42.69 0 0 0.19 -0.18c0.76,-0.86 1.14,-1.93 1.14,-3l-0.01 0c0,-1.15 -0.44,-2.31 -1.31,-3.18l-0.01 0 0 -0.01c-0.89,-0.88 -2.04,-1.32 -3.2,-1.32 -1.15,0 -2.31,0.44 -3.19,1.32l-40.9 40.9zm34.47 -43.04l-11.71 -11.72 -38.39 38.39 11.72 11.72 38.38 -38.39zm-12.76 42.67l38.38 38.39 27.72 -27.72 -38.39 -38.39 -27.71 27.72zm34.1 42.67l-38.39 -38.38 -6.38 6.38 32.9 32.91 5.48 5.48 6.39 -6.39zm-13.41 7.93l-35.65 -35.64 -13.86 13.86 -0.01 0c-0.87,0.88 -1.31,2.03 -1.31,3.19 0,1.1 0.4,2.21 1.2,3.07l0.11 0.11 0.01 0 0.01 0.01 31.52 31.53 0.66 0.66c0.86,0.75 1.93,1.13 3.01,1.13 1.16,0 2.32,-0.44 3.2,-1.31l-0.01 -0.01 13.86 -13.85 -2.74 -2.75z"/>
 </g>
</svg>
