<svg version="1.1" id="Слой_1" xmlns="http://www.w3.org/2000/svg" xmlns:xlink="http://www.w3.org/1999/xlink" x="0px" y="0px"
	 viewBox="0 0 101.3 86.6" style="enable-background:new 0 0 101.3 86.6;" xml:space="preserve">
<style type="text/css">
	.st0{fill:#FFFFFF;stroke:#000000;stroke-miterlimit:1;}
</style>
<path class="st0" d="M6.2,81c-0.4,0-0.6,0-1-0.1c-0.4-0.1-0.8-0.1-1-0.2s-0.8-0.4-0.9-0.5c-0.4-0.4-1.4-1.4-1.8-2
	c-0.4-0.8-0.6-1.7-0.5-2.6c0-0.6,0.1-1.4,0.5-1.9l0,0l0,0c0.2-0.6,0.6-1.2,1.2-1.7l0,0l0,0l39.8-39.9c0.1-0.1,0.2-0.4,0.1-0.6
	c-0.1-0.2-0.2-0.5-0.2-0.9c0-0.5,0.2-1,0.5-1.3l0,0l0,0l2-2c0.2-0.2,0.2-0.6,0-0.8l-0.1-0.1c-0.2-0.1-0.4-0.2-0.6-0.4l0,0
	c-0.5-0.6-0.6-1.4-0.4-2.2c0.1-0.2,0.1-0.5-0.1-0.6l-2.7-2.7c-0.1-0.1-0.4-0.2-0.6-0.1c-0.2,0.1-0.5,0.2-0.9,0.2
	c-0.5,0-1-0.2-1.3-0.5l0,0c-0.1-0.1-0.2-0.4-0.4-0.6s-0.4-0.4-0.8-0.2c0,0-0.1,0-0.1,0.1c-0.6,0.5-1.4,0.8-2.2,0.8
	c-0.9,0-1.8-0.4-2.6-1l0,0l0,0c-1.4-1.4-1.4-3.7,0-5.1l12-12.2c1.4-1.4,3.7-1.4,5.1,0c1.3,1.3,1.4,3.3,0.4,4.7
	c-0.1,0.2-0.1,0.6,0.1,0.8c0,0,0.1,0,0.1,0.1c0.8,0.2,1.2,1,1.2,1.8c0,0.2-0.1,0.6-0.2,0.9c-0.1,0.3-0.1,0.5,0.1,0.6l2.7,2.7
	c0.1,0.1,0.4,0.2,0.6,0.1c0.8-0.4,1.7-0.2,2.2,0.4l0,0c0.4,0.4,0.5,0.8,0.5,1.3l0,0l0,0c0,0.2-0.1,0.5-0.2,0.8
	c-0.1,0.2-0.1,0.5,0.1,0.6l8.9,8.7c0.1,0.1,0.4,0.2,0.6,0.1c0.2-0.1,0.5-0.2,0.9-0.2c0.5,0,1,0.2,1.3,0.5l0,0l0,0
	c0.4,0.4,0.5,0.8,0.5,1.3c0,0.2-0.1,0.6-0.2,0.9s-0.1,0.5,0.1,0.6l2.7,2.7c0.1,0.1,0.4,0.2,0.6,0.1c0.9-0.5,2-0.1,2.6,0.9
	c0,0,0,0.1,0.1,0.1c0.1,0.2,0.4,0.4,0.8,0.2c0,0,0.1,0,0.1-0.1c0.6-0.5,1.4-0.8,2.2-0.8c2,0,3.6,1.7,3.6,3.6c0,0.9-0.4,1.9-1,2.6
	l0,0l0,0l-12,12c-1.4,1.4-3.7,1.4-5.1,0c-1.3-1.3-1.4-3.3-0.4-4.7c0.1-0.2,0.1-0.6-0.1-0.8c0,0-0.1,0-0.1-0.1
	c-0.2-0.1-0.4-0.2-0.6-0.4l0,0c-0.5-0.6-0.6-1.4-0.4-2.2c0.1-0.2,0.1-0.5-0.1-0.6l-2.3-2.8c-0.1-0.1-0.4-0.2-0.6-0.1
	c-0.8,0.4-1.7,0.2-2.2-0.4l0,0l0,0c-0.1-0.1-0.2-0.4-0.4-0.6c-0.1-0.2-0.5-0.4-0.8-0.2c-0.1,0-0.1,0.1-0.1,0.1l-2,2l0,0
	c-0.6,0.5-1.4,0.6-2.2,0.4c-0.2-0.1-0.5-0.1-0.6,0.1L10.1,79.5l0,0C9,80.6,7.7,81,6.2,81L6.2,81z"/>
<path class="st0" d="M49.5,6.9L36.9,19.1"/>
<path class="st0" d="M50.8,9.6L40.2,20.1"/>
<path class="st0" d="M54.2,13.1L43.7,23.6"/>
<path class="st0" d="M56.7,15.4L44.9,27.2"/>
<path class="st0" d="M75.5,32.7L63.3,44.8"/>
<path class="st0" d="M72.3,31.1L61.8,41.6"/>
<path class="st0" d="M68.8,27.7L58.3,38.2"/>
<path class="st0" d="M66.6,25.2L54.8,37"/>
<path class="st0" d="M49,23.1l9.9,9.9"/>
<path class="st0" d="M46.5,25.5l9.9,9.9"/>
<path class="st0" d="M42.5,31.6l7.8,7.8"/>
<path class="st0" d="M54.1,86c-1,0-1.9-0.9-1.9-1.9c0-0.5,0.2-1,0.5-1.3l0,0c0.2-0.2,0.5-0.4,0.8-0.4c0.2-0.1,0.4-0.2,0.4-0.5v-1
	c0-1.8,1.3-3.2,3-3.6c0.2,0,0.5-0.2,0.5-0.5v-2.7c0-1,0.9-1.9,1.9-1.9h34.1c1,0,1.9,0.9,1.9,1.9v2.7c0,0.2,0.2,0.5,0.5,0.5
	c1.7,0.4,3,1.8,3,3.6v1c0,0.2,0.1,0.5,0.4,0.5c0.8,0.2,1.3,1,1.3,1.8c0,1-0.9,1.9-1.9,1.9L54.1,86z"/>
<path class="st0" d="M57.1,77.1h38.2"/>
<path class="st0" d="M53.7,82.3h45.1"/>
</svg>
