<svg xmlns="http://www.w3.org/2000/svg" xmlns:xlink="http://www.w3.org/1999/xlink" version="1.1" id="Layer_1" x="0px" y="0px" viewBox="0 0 512.01 512.01" style="enable-background:new 0 0 512.01 512.01;" xml:space="preserve" width="512px" height="512px" fill='#ba9241'>
<g>
	<g>
		<path d="M433.089,177.09c0-2.12-0.84-4.152-2.344-5.656l-15.328-15.336l10.84-18.768c1.064-1.84,1.344-4.024,0.8-6.072    c-0.552-2.04-1.896-3.792-3.728-4.856l-18.776-10.84l5.608-20.944c0.544-2.048,0.256-4.232-0.8-6.072    c-1.056-1.84-2.808-3.184-4.856-3.728l-20.944-5.616V57.53c0-4.416-3.576-8-8-8h-21.68l-5.608-20.936    c-0.552-2.048-1.896-3.792-3.728-4.856c-1.848-1.064-4.032-1.352-6.072-0.8l-20.936,5.608L306.705,9.77    c-1.056-1.84-2.808-3.184-4.856-3.728c-2.04-0.552-4.24-0.256-6.072,0.8l-18.784,10.84L261.665,2.346    c-3.128-3.128-8.184-3.128-11.312,0l-15.336,15.328L216.249,6.842c-1.832-1.056-4.016-1.344-6.072-0.8    c-2.048,0.552-3.792,1.888-4.856,3.728l-10.84,18.776l-20.936-5.608c-4.256-1.144-8.656,1.392-9.8,5.656l-5.608,20.936h-21.688    c-4.416,0-8,3.584-8,8v21.68l-20.936,5.6c-4.272,1.144-6.8,5.536-5.656,9.8l5.608,20.944l-18.776,10.832    c-1.84,1.056-3.184,2.808-3.728,4.856c-0.544,2.048-0.256,4.24,0.8,6.072l10.84,18.776l-15.336,15.336    c-1.504,1.496-2.344,3.536-2.344,5.656s0.84,4.152,2.344,5.656l15.336,15.328l-10.84,18.784c-1.064,1.84-1.352,4.024-0.8,6.072    c0.552,2.048,1.896,3.792,3.728,4.856l18.776,10.832l-5.608,20.944c-0.544,2.056-0.256,4.24,0.8,6.072    c1.056,1.84,2.808,3.184,4.856,3.728l20.936,5.608v21.68c0,4.424,3.584,8,8,8h21.68l5.616,20.944    c0.552,2.04,1.896,3.792,3.728,4.856c1.84,1.048,4.024,1.328,6.072,0.8l20.936-5.608l10.84,18.768    c2.208,3.824,7.104,5.136,10.928,2.928l18.768-10.832l15.336,15.32c1.56,1.56,3.608,2.344,5.656,2.344    c2.048,0,4.096-0.784,5.656-2.336l15.328-15.32l18.784,10.832c3.808,2.2,8.72,0.904,10.928-2.928l10.832-18.768l20.936,5.608    c2.04,0.528,4.232,0.248,6.072-0.8c1.84-1.056,3.184-2.808,3.728-4.856l5.608-20.944h21.68c4.424,0,8-3.576,8-8v-21.68    l20.944-5.608c2.04-0.552,3.792-1.888,4.856-3.728c1.064-1.84,1.344-4.024,0.8-6.072l-5.608-20.944l18.776-10.832    c1.84-1.056,3.184-2.808,3.728-4.856c0.544-2.048,0.264-4.24-0.8-6.072l-10.84-18.784l15.328-15.328    C432.249,181.25,433.089,179.21,433.089,177.09z M398.505,200.738l9.912,17.168l-17.168,9.904c-3.136,1.816-4.664,5.504-3.728,9    l5.136,19.144l-19.152,5.128c-3.496,0.936-5.928,4.104-5.928,7.728v19.824h-19.824c-3.624,0-6.792,2.424-7.728,5.928    l-5.128,19.152l-19.144-5.136c-3.488-0.936-7.184,0.592-9,3.728l-9.904,17.16l-17.168-9.904c-3.136-1.8-7.096-1.288-9.656,1.272    l-14.016,14.008l-14.008-14c-1.544-1.536-3.592-2.344-5.664-2.344c-1.368,0-2.752,0.344-4,1.088l-17.16,9.904l-9.912-17.16    c-1.816-3.152-5.512-4.672-9-3.728l-19.136,5.136l-5.128-19.152c-0.936-3.496-4.104-5.928-7.728-5.928h-19.824v-19.824    c0-3.624-2.432-6.792-5.928-7.728l-19.136-5.128l5.128-19.152c0.936-3.496-0.592-7.192-3.728-9l-17.168-9.904l9.912-17.168    c1.808-3.136,1.288-7.096-1.272-9.656L98.249,177.09l14.008-14.016c2.56-2.56,3.08-6.52,1.272-9.656l-9.912-17.168l17.168-9.904    c3.136-1.816,4.664-5.504,3.728-9l-5.128-19.144l19.136-5.128c3.496-0.936,5.928-4.104,5.928-7.728V65.53h19.824    c3.624,0,6.792-2.432,7.728-5.928l5.128-19.136l19.136,5.136c3.496,0.936,7.184-0.592,9-3.728l9.912-17.168l17.16,9.904    c3.128,1.816,7.104,1.288,9.656-1.272l14.016-14.016l14.008,14.016c2.56,2.568,6.52,3.072,9.656,1.272l17.168-9.912l9.904,17.168    c1.808,3.136,5.504,4.656,9,3.728l19.144-5.128l5.136,19.136c0.936,3.496,4.104,5.928,7.728,5.928h19.824v19.8    c0,3.624,2.424,6.792,5.928,7.728l19.152,5.128l-5.136,19.144c-0.936,3.496,0.592,7.192,3.728,9l17.168,9.912l-9.912,17.16    c-1.816,3.136-1.288,7.096,1.272,9.656l14.016,14.016l-14.016,14.008C397.217,193.642,396.689,197.602,398.505,200.738z"/>
	</g>
</g>
<g>
	<g>
		<path d="M242.057,336.074l-70.44,150.544l-18.432-32.4c-1.68-2.952-5.072-4.504-8.368-3.92l-36.688,6.616l67.032-143.272    l-14.496-6.784l-73.584,157.28c-1.264,2.712-0.92,5.896,0.904,8.264c1.824,2.368,4.8,3.52,7.76,3l46.336-8.36l23.28,40.92    c1.424,2.512,4.088,4.048,6.952,4.048c0.104,0,0.208,0,0.32,0c2.984-0.112,5.664-1.888,6.928-4.6l76.992-164.552L242.057,336.074z    "/>
	</g>
</g>
<g>
	<g>
		<path d="M424.953,464.13l-73.576-157.28l-14.504,6.784l67.032,143.272l-36.68-6.616c-3.368-0.624-6.696,0.968-8.376,3.92    l-18.44,32.4l-70.44-150.544l-14.496,6.784l76.984,164.552c1.272,2.712,3.944,4.48,6.928,4.6c0.112,0.008,0.216,0.008,0.32,0.008    c2.864,0,5.52-1.536,6.968-4.056l23.288-40.92l46.32,8.36c2.968,0.544,5.944-0.624,7.768-3    C425.865,470.026,426.217,466.842,424.953,464.13z"/>
	</g>
</g>
<g>
	<g>
		<path d="M334.641,98.458c-21.032-21.04-48.96-32.624-78.632-32.624c-61.336,0-111.248,49.912-111.248,111.256    s49.912,111.248,111.248,111.248c61.344,0,111.248-49.904,111.248-111.248C367.265,147.418,355.681,119.49,334.641,98.458z     M256.009,272.338c-52.52,0-95.248-42.728-95.248-95.248c0-52.528,42.728-95.256,95.248-95.256c25.4,0,49.312,9.92,67.32,27.936    c18.016,18.008,27.928,41.92,27.928,67.32C351.257,229.61,308.529,272.338,256.009,272.338z"/>
	</g>
</g>
</svg>
