<svg version="1.1" id="Слой_1" xmlns="http://www.w3.org/2000/svg" xmlns:xlink="http://www.w3.org/1999/xlink" x="0px" y="0px"
	 viewBox="0 0 24.8 17" style="enable-background:new 0 0 24.8 17;" xml:space="preserve" fill='#333333'>
<g class="st0">
	<path class="st1" d="M15,11.7c0-1.3,0.2-2.5,0.5-3.7s0.9-2.3,1.7-3.3s1.8-1.9,3-2.7s2.8-1.5,4.6-2v2.5c-2,0.6-3.4,1.4-4.3,2.3
		c-0.9,0.9-1.4,1.9-1.4,3.1c0,0.4,0.1,0.7,0.3,1c0.2,0.3,0.5,0.5,0.8,0.7c0.3,0.2,0.7,0.4,1.1,0.6c0.4,0.2,0.7,0.4,1.1,0.7
		c0.3,0.3,0.6,0.6,0.8,1c0.2,0.4,0.3,0.9,0.3,1.5c0,1.2-0.4,2-1.1,2.6S20.7,17,19.6,17c-0.6,0-1.2-0.1-1.8-0.3c-0.5-0.2-1-0.6-1.5-1
		c-0.4-0.4-0.8-1-1-1.6S15,12.6,15,11.7z"/>
	<path class="st1" d="M0,11.7c0-1.3,0.2-2.5,0.5-3.7s0.9-2.3,1.7-3.3S4,2.8,5.3,2C6.5,1.2,8,0.5,9.8,0v2.5c-2,0.6-3.4,1.4-4.3,2.3
		C4.6,5.7,4.1,6.7,4.1,7.9c0,0.4,0.1,0.7,0.3,1c0.2,0.3,0.5,0.5,0.8,0.7C5.6,9.8,6,10,6.3,10.2c0.4,0.2,0.7,0.4,1.1,0.7
		c0.3,0.3,0.6,0.6,0.8,1c0.2,0.4,0.3,0.9,0.3,1.5c0,1.2-0.4,2-1.1,2.6C6.6,16.7,5.7,17,4.6,17c-0.6,0-1.2-0.1-1.8-0.3
		c-0.5-0.2-1-0.6-1.5-1c-0.4-0.4-0.8-1-1-1.6C0.1,13.3,0,12.6,0,11.7z"/>
</g>
</svg>
