<svg xmlns="http://www.w3.org/2000/svg" viewBox="0 0 43.39 42.31"><defs><style>.cls-1{fill:#494a3d;fill-rule:evenodd;}</style></defs><title>календарь</title><g id="Слой_2" data-name="Слой 2"><g id="Layer_1" data-name="Layer 1"><path class="cls-1" d="M10.18,4.57c-.06,2.06.93,3.87,2.08,4.23A8.65,8.65,0,0,1,10.18,4.57ZM32.46,11.7a8.64,8.64,0,0,1-1.86-4.09C30.5,9.6,31.42,11.35,32.46,11.7Zm-2.6,4.9c-5-1.26-12.28-2.07-17.76-3C17.44,14.93,24,15.58,29.87,16.6ZM9.36,18.31a3.14,3.14,0,0,0,1.11.15c0-.76.27-1.31.3-2.08a7.74,7.74,0,0,0-1.12-.15A15.08,15.08,0,0,0,9.36,18.31Zm1.11-1.63a4.22,4.22,0,0,1-.22,1.56,1.24,1.24,0,0,1-.52-.15C9.94,17.56,9.63,16.35,10.47,16.68Zm1.56.44A3.07,3.07,0,0,0,11,17c-.1.49-.15,1-.22,1.56a3.09,3.09,0,0,0,1,.15A11.88,11.88,0,0,0,12,17.12Zm-1,1.19a9,9,0,0,1,.22-1c.27,0,.36.09.52.15-.17.38,0,.65-.22,1A2.74,2.74,0,0,1,11.07,18.31Zm1.34-1.19a15.3,15.3,0,0,0-.3,1.64,5,5,0,0,0,1.11.15,10.1,10.1,0,0,1,.22-1.56C13.14,17.23,12.72,17.23,12.4,17.12Zm.67,1.49c-.21,0-.49,0-.59-.07a4.09,4.09,0,0,1,.15-1c.24,0,.35.05.52.07C13.13,18.12,13.09,18.25,13.07,18.61Zm.45.37a5.27,5.27,0,0,0,1,.15,9.59,9.59,0,0,1,.22-1.56,5,5,0,0,0-1-.22A15,15,0,0,0,13.52,19ZM14,17.79c.2,0,.42,0,.52.07s-.11.6-.08,1c-.21,0-.48,0-.59-.07C13.9,18.47,13.87,18.07,14,17.79Zm.82,1.34c.21.22.7.14,1,.22.15-.47.18-1.06.3-1.56a2.71,2.71,0,0,0-1-.22A15,15,0,0,1,14.78,19.13Zm1-1.11c.08.38-.18.8-.07,1-.14.18-.59.05-.67-.07.15-.22.1-.64.22-.89S15.55,18.08,15.82,18Zm1.41,1.49c.13-.46.14-1,.3-1.49a2.69,2.69,0,0,0-1.11-.22c-.13.49-.13,1.11-.3,1.56A2.15,2.15,0,0,0,17.24,19.5Zm-.74-.3c.08-.18,0-.79.22-1,.18,0,.22.13.45.07a7.71,7.71,0,0,1-.07,1C16.82,19.23,16.73,19.32,16.49,19.2ZM30.91,22.4C24,21.1,16.16,19.87,9.29,19,16.08,20.38,24.17,21.68,30.91,22.4Zm-4.83-3.12c-.18.35-.13,1-.3,1.56a2.3,2.3,0,0,0,1.19.22,8.36,8.36,0,0,1,.22-1.56A8.4,8.4,0,0,0,26.08,19.28Zm.74,1.49c-.21,0-.49,0-.6-.07a2.66,2.66,0,0,1,.15-1c.24,0,.35.05.52.07C26.86,20.28,26.86,20.32,26.82,20.77Zm.67-1.26a10.93,10.93,0,0,0-.22,1.71c.43-.05.62.13,1,.07a10.06,10.06,0,0,1,.22-1.56A7.18,7.18,0,0,0,27.49,19.5ZM28.16,21c-.21,0-.49,0-.59-.07,0-.42.13-.61.15-1,.2,0,.42,0,.52.07A9.17,9.17,0,0,1,28.16,21Zm1.49.52a9,9,0,0,1,.22-1.56,3.93,3.93,0,0,0-1-.22,8.15,8.15,0,0,0-.22,1.71C29,21.37,29.24,21.54,29.64,21.51Zm-.74-.37a6,6,0,0,1,.15-1c.2,0,.42,0,.52.07,0,.39-.13.56-.07,1C29.28,21.2,29,21.25,28.9,21.14ZM13.6,24.78a23.36,23.36,0,0,0,.81-3.94c-1.33-.55-3.21-.55-4.75-.89-.72,1-.75,2.67-1,4.08A29.11,29.11,0,0,0,13.6,24.78Zm.52-3.71a13,13,0,0,1-.74,3.57c-2-.33-2.93-.33-4.38-.67C8.61,20.16,11.13,20,14.12,21.06Zm17.09-1c-.37,0-.69-.1-1-.15a10.85,10.85,0,0,0-.22,1.63,3.9,3.9,0,0,0,1,.15A11.49,11.49,0,0,0,31.2,20.1Zm-.37,1.34c-.21,0-.49,0-.6-.07.08-.29.05-.69.15-1,.2,0,.42,0,.52.07C31,20.87,30.79,21,30.83,21.43ZM14,24.85a23.73,23.73,0,0,0,5,.82,23.52,23.52,0,0,0,.82-4A27.54,27.54,0,0,0,15,20.84C14.44,21.93,14.39,23.54,14,24.85ZM19.61,22a22.5,22.5,0,0,1-.74,3.49,23.63,23.63,0,0,1-4.46-.67,23.61,23.61,0,0,1,.74-3.34C16.34,21,18.35,21.7,19.61,22Zm5.57.59a28.47,28.47,0,0,0-4.68-.89c-.75,1-.71,2.7-1,4.09a31.66,31.66,0,0,0,4.83.82A16.75,16.75,0,0,0,25.19,22.55ZM20.58,22a38.09,38.09,0,0,1,4.31.74,20.11,20.11,0,0,1-.6,3.49,23.86,23.86,0,0,1-4.53-.6A20.74,20.74,0,0,1,20.58,22Zm10,1.41a14.86,14.86,0,0,0-5-.82c-.22,1.36-.59,2.58-.74,4a43,43,0,0,0,4.83.82A14.46,14.46,0,0,0,30.54,23.44Zm-4.68-.52a17.75,17.75,0,0,1,4.46.82c-.21,1.24-.41,2.15-.67,3.42a19.76,19.76,0,0,1-4.46-.67A21.25,21.25,0,0,1,25.85,22.92ZM7.5,28.42a20.28,20.28,0,0,0,4.9.82,14.59,14.59,0,0,0,1-3.94,17.39,17.39,0,0,0-5.05-.67C8.09,25.88,7.72,27.07,7.5,28.42Zm5.72-3c-.15,1-.56,2.24-.74,3.42-1.41.29-3.14-.31-4.53-.52a17.38,17.38,0,0,1,.82-3.49A33.72,33.72,0,0,1,13.22,25.44Zm5.65.67c-1.5-.35-3.23-.48-4.75-.82a12.52,12.52,0,0,0-1.12,4,20.27,20.27,0,0,0,4.9.82A19.16,19.16,0,0,0,18.87,26.11Zm-5.5,3c.12-1.13.59-2.31.74-3.42a22.56,22.56,0,0,1,4.53.6,17.18,17.18,0,0,1-.89,3.57A26.62,26.62,0,0,1,13.37,29.16Zm10.85-2.08a14.82,14.82,0,0,0-5-.74c-.23,1.35-.68,2.49-.89,3.86a21.54,21.54,0,0,0,4.9.82A21.42,21.42,0,0,0,24.22,27.08Zm-5.42,3a9.63,9.63,0,0,1,.89-3.64c1.42.27,2.93.44,4.31.74a27.41,27.41,0,0,1-.82,3.57C21.6,30.69,20.35,30.25,18.8,30.12Zm-1,.52c-1.51-.28-3.47-.87-5-.67a21.23,21.23,0,0,0-.89,3.86,23,23,0,0,0,4.83.82A16.35,16.35,0,0,0,17.75,30.65Zm-5.5,3c.14-1.25.46-1.87.74-3.34,1.21-.33,3.17.35,4.53.59a25.41,25.41,0,0,1-1,3.42A22.1,22.1,0,0,1,12.26,33.69ZM35.81,6.13A3.59,3.59,0,0,0,34.4,3c-4.68.46-4,6.55-1.63,8.77a.81.81,0,0,1-.52.67C29.39,10.5,29.3,2.66,34.1,2.86c-2-.64-3.6,1.18-4,2.6-4.68-.79-9.67-1.27-14.26-2.15.4-4.47-5.67-4.07-6.09-.82-6.1-1.26-4.95,7.1-5.79,10.85C15.52,15.12,27,17,38.71,18.68,39.09,14.26,42,6.14,35.81,6.13Zm-.3,0c-1,.38-2.13-.26-3.19-.45a1.08,1.08,0,0,1,.89-.82c.57,0,.53.71.74,1.11.27,0,.59,0,.6-.3.15,0,0,.33.22.3a2,2,0,0,0-.37-.89C34.81,4.27,33,4,32.24,4.64,33.45,2.76,35.38,4.55,35.51,6.13ZM15.45,3.23C14.62,3.7,13.12,3,12,2.79A1.13,1.13,0,0,1,13,2c.54.08.6.63.74,1.12.49.11.71-.44.89,0C14.78,1.6,13.26.87,12,1.75,13.29-.18,15.37,1.92,15.45,3.23ZM14.12.33C10.87.21,9.68,3.92,11,6.57c.17,0,0-.37.07-.52,0,1.32,2.41,2.34,1,3.49C8.7,7.82,9.15-1.15,14.12.33ZM4.31,12.74c1.21-3.22.2-11,4.75-9.36.06.43-.25.5-.37.74.27-.06.09.2-.07.15.06.2.33-.14.15.15,0,.31,0,0-.15,0s.24.15.15.37a.49.49,0,0,1-.37.07c0,.1.19.06.3.07.23,1.6.94,2.72,1.26,4.23,1.94,2.84,5.22-1.9,1.63-2.45-.29-1-.53-2.68.15-3.42.37,0,.42.23.74.22-.2.29-.34-.14-.6.15,5.75,1.14,12.48,1.68,18,2.82v.22C24.1,6.24,17.62,4.8,11.59,4.34a1.25,1.25,0,0,0,.15.52c0-.22.47-.11.67.07a25.79,25.79,0,0,1,3,.3c0,.16-.26,0-.37.07.09.11.35.1.15.3.32.1.23-.21.37-.3s.23.12.37.15c.06.24-.19.15-.22.3.19,0,.42-.26.22-.37.06-.13.39.1.52.15s-.14.11-.15.22c.19.08.33-.25.15-.3.07-.11.43.11.59.15s-.14.11-.15.22c.17,0,.35,0,.3-.3.36.22.75,0,1,.37.18,0,0-.34.22-.22,0,.09.13.06.22.07.18.17-.08.17-.15.3.37.1.28-.27.52-.3,0,.07.09.06.15.07.18.17-.08.17-.15.3.16-.07.44,0,.37-.3.22,0,.23.17.45.15,0,.08-.15,0-.15.15.19,0,.37,0,.3-.22.11.11.49.11.3.3.37-.06.58-.24.59.07.16,0,.14-.11.15-.22.25,0,.26.21.3.3.29,0,.3-.25.6-.07-.38.25.36.14.45,0V6.5c.21-.06.6-.28.45.07.19,0,.65-.33.45.07.29-.14.61-.2.59.07.16-.18.54-.3.37.07.24.07.23-.11.3-.22.13.07.4.13.22.3.25.06.09-.3.37-.22.09.1.22.15.07.3.28,0,.28-.34.6-.15.15.17,0,.08-.07.22.2,0,.47.07.37-.22.15,0,.31.14.15.3.28.08.12-.28.37-.22.09.1.22.15.07.3.28.08.12-.28.37-.22,0,.08.32.15.07.22.08.17.22-.21.45-.15s.15.2,0,.37a.41.41,0,0,0,.3-.3.28.28,0,0,1,.3.3c.06,0,.23-.25.07-.22,0-.09.46,0,.37.3.06,0,.22-.25.07-.22.05-.14.35.09.45.15,0,.21-.32.22.07.22a18.47,18.47,0,0,0,1.26,4.83,4.94,4.94,0,0,0-.15-.67c1.26,3.5,5.37-1.24,1.63-2-.34-1.12-.61-2.58.07-3.57.35,0,.52.23.82.3-.07.15-.54-.19-.67,0,.45.47,1.51.32,2.3.45-.33-.3-1.09-.23-1.56-.37,2.42.08,5.6,0,6.24,2.15C39,12.16,38.28,15.16,38,18,26.59,16.41,15.31,14.72,4.31,12.74Zm34.77-1.11c0,1.86-.14,4.9-1,6.46C38.42,15.92,38.81,13.84,39.08,11.63ZM31.8,7.39c.24.19.36.59.44.3.1.19.36-.07.37.07s-.29,0-.3.15c.19,0,.18.28.07.37.41-.07,0-.57.45-.59,0,.3.16,0,.3.07-.12.22.4.31.52.52.08-.36-.35-.2-.37-.44a.51.51,0,0,0,.44,0c0,.07-.06.09-.07.15.21,0,.77-.14.45.07a.35.35,0,0,1,.22.07c-.05-.2.16-.14.22-.22,0,.34.15.07.52.07,0,.07-.06.09-.07.15.18,0,.23-.12.37-.15,0,.17-.22.08-.22.22.3-.13.76-.19.74,0,0-.14.43-.23.22,0a.52.52,0,0,0,.44-.3C35.13,7.73,33.33,7,31.8,7.39ZM28.6,31.91a26.38,26.38,0,0,0,1-3.94,24.63,24.63,0,0,0-5-.89c-.33,1.33-.71,2.6-1,4A24.17,24.17,0,0,0,28.6,31.91ZM25,27.38a31.21,31.21,0,0,1,4.38.74c-.08,1.33-.55,2-.74,3.49A25.33,25.33,0,0,1,24.07,31,19.82,19.82,0,0,1,25,27.38ZM34.36,30a6.15,6.15,0,0,0-1.56.6,14.86,14.86,0,0,1,1.44-.49Zm1.37-.85c-.35.28-1,.56-1.37.85l.55-.11A1.45,1.45,0,0,0,35.74,29.16ZM22.44,37.7c.77,0,1.4.11,2.38.07,4-1.1,4.74-5.37,8-7.16-1,.39-1.86.82-2.72,1.14a.43.43,0,0,0,.07.3c-.19.23-.41,0-.52.22.11,0,.27,0,.3.07-.17,0-.28,0-.3.15.14.07.25-.22.3,0-.31.21-.64,0-.82.07.09.21.47.08.52.15-.14.29-.42.3-.45.52-.26,0-.54-.3-.59-.22,0,.26.45.09.44.37a2.62,2.62,0,0,1-.59-.22c0,.21.28.17.37.3-.19.07-.66-.12-.45,0s.22.15.45.3c-.24,0-.31-.13-.6-.07.17.29-.14.29-.22.52.28.12.34-.35.45-.15-.49.32-.45.91-.82,1.26.52-.26.61-.85,1-1-.76,2.45-4.42,4.06-5.94,3-.2.17-.24.29-.52.15C22.1,37.74,22.47,37.52,22.44,37.7ZM11.29,33.77a19,19,0,0,0,1-4c-1.48-.38-3.15-.56-4.75-.82-.74.92-1,2.75-1.12,4A21.88,21.88,0,0,0,11.29,33.77ZM7.65,29.31a29.42,29.42,0,0,1,4.38.74,17.12,17.12,0,0,1-.89,3.42,22.37,22.37,0,0,1-4.31-.67A28.91,28.91,0,0,1,7.65,29.31ZM39.89,8.06c.06.53.54.65.52,1.26-.9,9.57-1.4,20.2-5.72,26.6-8,6.15-21.72.24-31.5-1,6.66.82,14.47,3.21,20.92,3.12-7.72-.88-14.61-2.6-22.25-3.57a1.84,1.84,0,0,0-.67-.3C.88,33.78.41,33.58.29,33,1.07,26.44,3.62,20.2,4,13.48,2.87,20.14.92,26.39,0,33c.81,1.79,3.15,2,4.6,3.19,9.82,1.28,18.73,3.46,28.9,4.38a5,5,0,0,0,1.71-.82c4.2-8.1,5.91-20.29,6.31-30.16.59.08.56.79.74,1.26a141.75,141.75,0,0,1-5.72,29.27c-.39.38-.68.86-1.26,1C25,40.35,15.09,37.87,4.9,36.44c8.88,3.19,20.15,4,30.31,5.87a3.84,3.84,0,0,0,2.23-1.11A161.9,161.9,0,0,0,43.39,11.7C43,9.67,41.26,9.07,39.89,8.06ZM39.3,25.89C37.94,31.07,37.37,37,33.88,40.08c-10.66-.63-20.54-2.68-30.16-4.61,10.14.58,24.6,7.48,31.65.37,3.79-6.79,4.9-17.43,5.27-26.89C42,13.84,39.83,20.71,39.3,25.89ZM35,32.35a21.43,21.43,0,0,1-2.73,2.49,15.25,15.25,0,0,1-3.14,2,19.87,19.87,0,0,0,3.14-2c4.17-3.38,6.44-8.92,6.37-15.94C38.16,29.31,33.34,35.36,25.07,38,29.31,37.73,32.88,36.28,35,32.35ZM25.07,38l-1,0,.63.07Z"/></g></g></svg>