<svg xmlns="http://www.w3.org/2000/svg" viewBox="0 0 45.74 39.6"><defs><style>.cls-1{fill:#494a3d;fill-rule:evenodd;}</style></defs><title>кейс</title><g id="Слой_2" data-name="Слой 2"><g id="Layer_1" data-name="Layer 1"><path class="cls-1" d="M7.21,39.6H7.06a10.72,10.72,0,0,1-4.47-.67A3.32,3.32,0,0,1,.74,36.47a20.29,20.29,0,0,1-.15-4.59c0-.75.05-1.45.06-2.14,0-6.7-.14-12.09-.53-17.49l0-.48C0,10.56-.1,9.22.24,8.7A1.63,1.63,0,0,1,1,8.15,3.48,3.48,0,0,1,1.68,8,11.78,11.78,0,0,1,4,7.79c.65,0,1.31,0,1.95.05s1.21,0,1.69,0H9.17c1.81,0,4.29-.07,4.76-.13a2.17,2.17,0,0,0,.56-.13,1.26,1.26,0,0,0,.72-.66A1.52,1.52,0,0,0,15,5.67a1.64,1.64,0,0,1-.21-1.06,4.68,4.68,0,0,1,2.27-3.16A8.29,8.29,0,0,1,18.63.67,9.89,9.89,0,0,1,22.2,0a8.2,8.2,0,0,1,2.27.3,4.72,4.72,0,0,1,.85.33A8.19,8.19,0,0,1,28.6,4.35a3,3,0,0,1-.28.74,1.27,1.27,0,0,0-.13,1,1.55,1.55,0,0,0,.86,1l.29.11a24.74,24.74,0,0,0,3.59.08c2.25,0,4.91,0,5.93,0h.38l.59,0c.44,0,.89,0,1.3,0a3.71,3.71,0,0,1,1.45.19c1.22.61,1.39,3.2,1.53,5.28l0,.67c.18,2.32.38,4.6.58,6.87l0,.5,0,.24c.31,3.56.71,8,.93,12.34a2.83,2.83,0,0,1-.74,1.3,2.82,2.82,0,0,1-.41.24l-.15,0h-.06V35a3.85,3.85,0,0,1-.79,1.94c-.14.23-.29.47-.43.71A2.48,2.48,0,0,1,42,38.93l-.13,0a10.55,10.55,0,0,1-2.9.29l-1.43,0h-.58l-.7,0-1.5,0a14.5,14.5,0,0,0-2.8.2l-4.13.05c-1.41,0-3-.07-4.79-.07-2.59,0-5.27,0-7.87.1h-.53l-.59,0-1.46,0c-1.8,0-3.6.06-5.36.07ZM1.09,19.25l0,.23a40.28,40.28,0,0,0,0,4.21v.39C1.16,25,1.2,26,1.2,27s0,1.91,0,2.86v.24c0,1.42,0,2.87,0,4.23a6.2,6.2,0,0,0,.56,3.16,2.18,2.18,0,0,0,.78.57A10.42,10.42,0,0,0,5,38.78a33.38,33.38,0,0,0,5.76.41c1.48,0,3-.05,4.37-.1l.5,0H16c.73,0,1.43,0,2.12,0,2.3,0,4.55-.12,6.92-.22,2.71-.11,5.51-.22,8.27-.22h1.18l1.59,0h.11c.62,0,1.24,0,1.86,0A19.39,19.39,0,0,0,40,38.59a5.53,5.53,0,0,0,1.44-.32,2.45,2.45,0,0,0,1.22-.94,4.35,4.35,0,0,0,.46-2.78l-.15,0c-.07.23-.15.47-.23.72a3.15,3.15,0,0,1-1.1,1.83l-.21.1a19,19,0,0,1-5.38.45c-.95,0-1.87,0-2.63,0H31.63l-.75,0c-.58,0-1.15.14-1.78.25l-.38.06a17.31,17.31,0,0,1-2.5.28c-.43,0-1,0-1.73-.06h-.33l-1.18,0h-.12c-2,.1-4.06.13-6.18.17l-2.09,0h-.48c-.75,0-1.38,0-2-.09l-.68,0-.74,0c-.49,0-1,0-1.63,0H8.9l-1.42,0A8,8,0,0,1,5.28,38a3.23,3.23,0,0,1-.5-.19,9.12,9.12,0,0,1-2-1.51l-.2-.17-.39-.37a2.32,2.32,0,0,0-.15-.59,1,1,0,0,1-.09-.8,2.63,2.63,0,0,1,.51.81,2,2,0,0,0,.57.89,2.93,2.93,0,0,0,.47.29,19.6,19.6,0,0,0,6,1.07h.7c3.18,0,15.37-.2,20.93-.42l1.26,0h2.67a20.5,20.5,0,0,0,3.22-.2,7.41,7.41,0,0,0,1.4-.35,10.29,10.29,0,0,0,1.41-.71,4.76,4.76,0,0,0,1.41-2.59,11,11,0,0,0,.18-2c0-.44,0-.85.05-1.26.11-1.18.08-9.18-.47-9.71a.53.53,0,0,0-.28-.06l-.28,0c-.26.1-.38.34-.54.64a2.44,2.44,0,0,1-.33.53,2.7,2.7,0,0,1-1.1.77l-.29.1c-.85.27-6.35,1.56-8.29,1.83l-.76.09a12.39,12.39,0,0,0-2.78.58A5.64,5.64,0,0,0,27,25a5,5,0,0,0-1.67,1.82,4.6,4.6,0,0,1-.38.54h0a.72.72,0,0,0-.22.05,3.45,3.45,0,0,0-.48.27,3.72,3.72,0,0,1-.68.38,2.1,2.1,0,0,1-.44.12,4.11,4.11,0,0,1-.62,0,2.65,2.65,0,0,1-1.19-.25c-1.26-.62-1.66-2.29-2-3.76l-.17-.72a2.24,2.24,0,0,0-.8-.65,4.63,4.63,0,0,0-2-.34l-1,0h-.89c-1.62,0-3.41-.12-5.18-.27-.68-.06-1.36-.14-2-.22l-.34,0-1.09-.12H5.58l-.44,0-.38,0-.25,0a3.38,3.38,0,0,1-.92-.3,5.63,5.63,0,0,1-1.48-1.14,5.27,5.27,0,0,1-.89-1l-.13-.2Zm42.69-3.12-.12.22-.12.22a64.06,64.06,0,0,0,.12,8.72c.06,1,.05,2,.05,3v.47A26,26,0,0,0,44,34v.07h.07a1,1,0,0,0,.26-.06c.5-.2.48-.77.47-1.28v-.22a140.14,140.14,0,0,0-1-16.14l0-.25ZM21,27l-.09.12a2.57,2.57,0,0,0,.61.48,1.31,1.31,0,0,0,.58.13,2.39,2.39,0,0,0,.81-.16,3,3,0,0,0,1.54-1.31,4.71,4.71,0,0,0,.18-2.46,3.06,3.06,0,0,1,.19-2,24.09,24.09,0,0,0,5.11.5,25,25,0,0,0,8.61-1.36,7,7,0,0,0,2.63-1.62,6.75,6.75,0,0,0,1.23-2.45l-.15-.05c-.62,1.51-2.13,2.24-3.87,3.09-.22.11-.47.21-.72.31a17.15,17.15,0,0,1-4.8,1c-1.8.14-3.28.2-4.51.2q-.74,0-1.36,0a8.21,8.21,0,0,1-2.68-.46,1,1,0,0,1-.28-.2c-.73-.74-.52-3.61-.51-3.73a2.77,2.77,0,0,1,.4-1.34,3.45,3.45,0,0,1,.15.93,8.85,8.85,0,0,0,.23,1.93,11.1,11.1,0,0,0,.82.79,5.23,5.23,0,0,1,1.32,1.49,15.17,15.17,0,0,0,1.84.1,28.16,28.16,0,0,0,9.51-1.54l.34-.13c2.25-.87,4.11-1.86,4.09-5.06h.24a6,6,0,0,1,0,1.72l.15,0c.61-2.6.67-5.92-.59-7.49A22.65,22.65,0,0,0,37.15,8c-1.1,0-2.22,0-3.24,0l-1.67,0h-.18c-.54,0-1.08,0-1.79-.11-.55,0-1-.09-1.52-.09h-.29a1.3,1.3,0,0,0-.38.09l-.21.1-.21.09a1.2,1.2,0,0,1-.31.08,3.87,3.87,0,0,1-.48,0,9.45,9.45,0,0,1-1.59-.18A7.15,7.15,0,0,0,24.14,8h-1a2.28,2.28,0,0,1-1-.19c-.1,0-.13-.08-.14-.09l0-.09-.09,0-.21.16-.19.12H19.24a29.1,29.1,0,0,0-3.62.19,4.45,4.45,0,0,0-.74.17,6.21,6.21,0,0,1-1,.2c-.89.09-1.93.13-3.16.13s-2.41,0-3.61-.08-2.3-.07-3.38-.07H3.48a5.9,5.9,0,0,0-1.62.2C1.08,9,.71,10.92.71,12.07A12.56,12.56,0,0,0,1.11,16,7.25,7.25,0,0,0,3,18.64c.3.18.63.36,1,.53a14.74,14.74,0,0,0,6.33,1.51h.12l.2,0a1,1,0,0,1,.19.16l.09.08c.62,0,1.17,0,1.72,0a13.12,13.12,0,0,0,4.44-.57,4,4,0,0,0,.62-.3,3.49,3.49,0,0,0,2.1-2.9c.06-.28.09-.44.19-.53a15,15,0,0,0,.19,1.71c.17,1.17.34,2.38-.68,2.88a4.22,4.22,0,0,1-1.51.22,16.48,16.48,0,0,1-2.46-.25L15,21.21l-1.47,0h-.85l-1.72,0-1.13,0a34.25,34.25,0,0,1-4.91-1A14.2,14.2,0,0,1,3,19.56a2.82,2.82,0,0,1-.33-.37,1.86,1.86,0,0,0-.57-.53c-.09,0-.14-.06-.16-.12l-.15.05a3.56,3.56,0,0,0,2,2.13,12.66,12.66,0,0,0,3.68,1,64.44,64.44,0,0,0,7.43.35c1.52,0,2.82,0,4,.1a2.19,2.19,0,0,1,1,1.46l0,.11c.06.17.12.35.16.52l.15,0a4,4,0,0,1,0-.46c0-.94,0-1.74.65-2.17a2.35,2.35,0,0,1,.47-.25,2.43,2.43,0,0,1,.88-.16,2.3,2.3,0,0,1,1,.24,1.48,1.48,0,0,1,.89,1.1,2,2,0,0,1-.1.85,2.68,2.68,0,0,0-.13.8,2.19,2.19,0,0,0,.16.64,1.71,1.71,0,0,1,.12.48,2,2,0,0,1-.8,1.8,1.44,1.44,0,0,1-.31.16,2.11,2.11,0,0,1-.76.14A2.8,2.8,0,0,1,21,27ZM22.2,24.3a2.77,2.77,0,0,0-1,.14,1.39,1.39,0,0,0-.47.3c0,.18,0,.3.06.5.1.64.19,1.27.69,1.52a1.79,1.79,0,0,0,.61.12,1.39,1.39,0,0,0,.5-.09,1.46,1.46,0,0,0,.66-.52,1.58,1.58,0,0,0-.05-1.88,6.38,6.38,0,0,0-1-.08ZM23,21.69A6.51,6.51,0,0,0,21,22a8.25,8.25,0,0,0-.32,1.28l-.07.35,0,.09H21a8.8,8.8,0,0,0,1.55.2,2,2,0,0,0,.71-.11.74.74,0,0,0,.42-.36c.33-.66-.31-1.39-.73-1.73l0,0Zm.9-14.34,1,0a5.87,5.87,0,0,1,.77.08,6.59,6.59,0,0,0,.93.1,1.48,1.48,0,0,0,.54-.08.73.73,0,0,0,.31-.21c.79-.9-.33-2.66-.9-3.21a6.36,6.36,0,0,0-1.47-1,5.74,5.74,0,0,0-1.55-.54,3.89,3.89,0,0,0-.54,0c-.26,0-.58,0-.92,0a21.91,21.91,0,0,0-3.85.92A3,3,0,0,0,16.28,7.3a3.76,3.76,0,0,0,1.49.22c.42,0,.87,0,1.34,0l.42,0,.8,0,1.58,0H22c.63,0,1.24,0,1.82,0ZM22.09.51a10.17,10.17,0,0,0-3.66.67,5.48,5.48,0,0,0-2.61,1.89A2.94,2.94,0,0,0,15.3,5a1.47,1.47,0,0,0,.31.53l.1.12,0-.15a4.87,4.87,0,0,1,2.89-3.05L19,2.29a8.46,8.46,0,0,1,3.05-.57,7.43,7.43,0,0,1,3.25.71l.5.27A4.12,4.12,0,0,1,27.1,4.17l.09.14a7.61,7.61,0,0,1,.44.78l.1.22,0-.24a2.38,2.38,0,0,0-.16-1.29l0-.12a3.08,3.08,0,0,1-.12-.59,3.82,3.82,0,0,0-1.9-1.84A8,8,0,0,0,22.09.51ZM12,36v-.1a16.08,16.08,0,0,1,4.54-.45c.88,0,1.75,0,2.63-.07,1.26-.1,2.66-.15,4.39-.15,1,0,2,0,3.06,0s2.1,0,3.15,0h.75a59.73,59.73,0,0,1-9.78.56H18.23c-1.89,0-4.11,0-6.26.14Zm25-1.41.24-.2c1.43-1.14,2.91-2.33,3.17-4.79h.09a1,1,0,0,0,.2,0h.09a.3.3,0,0,1,.19.07,5.58,5.58,0,0,1-.16,2.3,9.23,9.23,0,0,0-.28,1.83l-.3.07a10.36,10.36,0,0,1-3.13.74ZM22.3,26.15l-.52-.06a1.6,1.6,0,0,0-.16-.45,1.14,1.14,0,0,1-.18-.8,1.19,1.19,0,0,1,.23-.12.78.78,0,0,1,.3-.05.82.82,0,0,1,.36.08.4.4,0,0,1,.21.23,1.63,1.63,0,0,0-.12.57,3.27,3.27,0,0,1-.11.62Zm.78-2.91v0c-.13-.06-.13-.23-.12-.41l-.09-.23a1.81,1.81,0,0,0-.84-.16,1.51,1.51,0,0,1-.71-.14,1.12,1.12,0,0,1,.36-.21,1.74,1.74,0,0,1,.62-.11,1.58,1.58,0,0,1,.69.15.71.71,0,0,1,.4.41.89.89,0,0,1-.1.71l-.2,0ZM4.46,16.82a6.66,6.66,0,0,1-.83-6.26c.07.07.06.15,0,.26l0,.15.2-.05c.35-.15.63-.26.62-.79h.14a1.18,1.18,0,0,1,.55.15l.25.13.26.13a1.69,1.69,0,0,0,.7.21h0a2.56,2.56,0,0,0,.74-.13A3.28,3.28,0,0,1,8,10.45a1.53,1.53,0,0,1,.53.09.63.63,0,0,1,.22.22.83.83,0,0,0,.17.19l.26,0h1.12a2.21,2.21,0,0,1,.77.11,11.2,11.2,0,0,1-1.67.25,18.66,18.66,0,0,0-3.22.53L6,12.05l-.16,0-.3-.11-.1,0V12a.44.44,0,0,1-.18.38l-.14,0V12L5,12a9.49,9.49,0,0,1-.36,1.23l0,.12c-.11.34-.24.7-.35,1.16l-.05-.09-.15,0a2.35,2.35,0,0,1,0,.37,2.81,2.81,0,0,0,.31,1.29l0,.11a5,5,0,0,1,.18.5l-.1.05ZM3.78,12l-.16,0a7.76,7.76,0,0,0,.13,1l.16,0c0-.4-.09-.75-.13-1Zm37.49-.93h-.21a2.16,2.16,0,0,1-.62-.64H37.21a20.41,20.41,0,0,0-3.63.24,4.4,4.4,0,0,1-.24-.73,6.71,6.71,0,0,1-.18-.83V9.08h-.07l-4,.09c-1,0-2,.05-2.92.05-1.35,0-2.47,0-3.53-.14l0-.24a30.06,30.06,0,0,1,3.69-.2c.79,0,1.57,0,2.33,0h.4c1.2,0,2.4,0,3.68,0h.54a1.1,1.1,0,0,0,.07.29l0,.1a1.76,1.76,0,0,0,.39.89l.08.07L34,10c.07-.14,0-.24-.11-.4s-.19-.28,0-.46c0,0,.06,0,.12,0a1.09,1.09,0,0,0,.42-.08l.28-.12a.42.42,0,0,1,.16,0,.27.27,0,0,1,.12,0C35,9,35,9,35,9V9.2l.13-.08.31-.18.45-.18a2.71,2.71,0,0,1,1-.23,1.65,1.65,0,0,1,.48.07.36.36,0,0,1-.23.24l-.35.07L36.56,9l.23.1a.93.93,0,0,0,.38.07h.25a.54.54,0,0,1,.26.05.39.39,0,0,1,.2.21l.12.23,0-.26,0-.14.13,0,.18.05,0-.15a.35.35,0,0,1,0-.44,1,1,0,0,1,.37.47.37.37,0,0,1,0,.12l0,.2.15-.09a.32.32,0,0,0,.07-.19l.23.09h.2l0-.1c0-.15,0-.27.13-.34l.1,0c.09.05.11.13.16.39l0,.07H40a1,1,0,0,1,.45.12,3,3,0,0,1,1,1.12,6,6,0,0,0,.37.52A1.32,1.32,0,0,1,41.6,11a2.33,2.33,0,0,1-.65-.54,4.67,4.67,0,0,1-.49-.58l-.14.05-.13.19a7.67,7.67,0,0,1,1.18,1h0s-.06,0-.1,0ZM6.39,9.62c-.76,0-1.42,0-2-.07a2.09,2.09,0,0,1-.78-.14A.44.44,0,0,1,3.33,9l16-.31.47,0c.19,0,.37,0,.55,0a1.71,1.71,0,0,1,.74.14.44.44,0,0,1,.24.23,4.56,4.56,0,0,1-.42.23,1.62,1.62,0,0,1-.59.09l-.39,0-.39,0h-.13L13,9.43c-.82,0-1.66,0-2.48.08h-.29l-.45,0c-1.21,0-2.29.09-3.33.09Z"/></g></g></svg>