<svg xmlns="http://www.w3.org/2000/svg" viewBox="0 0 46.5 46.46"><defs><style>.cls-1{fill:#494a3d;}</style></defs><title>часы</title><g id="Слой_2" data-name="Слой 2"><g id="Layer_1" data-name="Layer 1"><path class="cls-1" d="M25.52,44.79c-.07-.2-2.16.14-2.2.2.13,0,.27.24.26.24s-.07-.07-.13-.08a.63.63,0,0,0,0,.26c.29,0,.13,0,.34.12-.27,0-.36.09-.29.35h.09l.15-.17c.08.11.1.08.19.15,0-.17.35-.12.4-.08.14-.26.44,0,.42-.06a3.7,3.7,0,0,1,1.33,0L26,45.61a.94.94,0,0,0,.18-.24.65.65,0,0,0-.2.07s-.07-.17-.12-.21a3.82,3.82,0,0,1,.59,0c-.05.09,0,.26-.09.34a.62.62,0,0,0,.43,0c-.71-.21.89-.71,1.17-.71-.22.29-.58.3-.91.4.47.14,1.75.3,1.71-.49a.45.45,0,0,0,.66.13c-.26-.05-.2-.1-.38-.23a3.62,3.62,0,0,1,.56-.13.7.7,0,0,1-.09.23s.2.05.21.07c-.32-.39.39-.5.67-.5,0,.07-.13.13-.18.17s.16,0,.18.09l-.27.08c.29.15.51-.17.37-.51.36.1.76.28,1-.09-.08-.06-.15-.16-.25-.2.29-.07.45.19.65,0a1.62,1.62,0,0,1-.19-.13.35.35,0,0,1,.54.16c.09-.1.19-.13.24-.28a.42.42,0,0,0-.12-.09c.05-.07.13-.14.2-.21.14.22.2.08.14.38A2.41,2.41,0,0,0,33.87,43a1.17,1.17,0,0,1-.66.11.44.44,0,0,1,.11-.18c.08,0,0,.08.08.06A8.76,8.76,0,0,1,35.13,42c.36-.5,1.13-.66,1.44-1.17l0,0c-1.42-.1-3.31,1.35-4.57,1.91C31.55,42.91,25.62,45.07,25.52,44.79ZM4.67,13.26l0,.06.05,0,.11,0,.05,0,0-.05A9.89,9.89,0,0,1,6.14,11.4a7.73,7.73,0,0,0,1-1.6v0l.05.09.06.05.06-.07C9,7.69,11.69,6,13.85,4.6l.36-.26.1,0,.11,0h0s.06-.1,0-.23L14.39,4l0,0,0,0-.09.06-.07,0A27.93,27.93,0,0,0,7,9.54l-.12.13L6.8,9.8l.1,0c-.3.44-.58.82-.86,1.18A8.09,8.09,0,0,0,4.67,13.26Zm-2,20.22a.56.56,0,0,0-.13-.26c-.1-.12-.09-.13,0-.21v-.09l0,0a3.71,3.71,0,0,1-.72-1.58,9.49,9.49,0,0,0-.63-1.67l-.1-.2L1,29.32l-.06-.1-.05.1-.05.1a.22.22,0,0,0,0,.24l0,.07,0,.08a11.78,11.78,0,0,1,.49,1.32l0,.08a6.74,6.74,0,0,0,1.11,2.37l.24.25v-.35ZM.43,19.65H.2v.05a12.37,12.37,0,0,0-.13,3.38v.06H.3v-.06c0-.43,0-.89.08-1.37a10.38,10.38,0,0,0,0-2ZM15.59,45.06a1.09,1.09,0,0,0-.92-.46.15.15,0,0,0-.1-.1.27.27,0,0,0,.24-.3l-.09-.1h-.05a.28.28,0,0,0-.14-.1l-.08,0-.08,0v0h-.07l0,0A.39.39,0,0,1,14,44l0-.09a.46.46,0,0,0-.11-.16s0,0,0-.08v-.05h-.14l-.07-.05a.33.33,0,0,0-.21-.12c-.06,0-.14,0-.16.16v.1l0,0-.06-.06H13a.1.1,0,0,0-.09-.07h0v0a.24.24,0,0,0,.18-.19l0-.09,0,0a.22.22,0,0,0-.18-.06h-.06l-.1.09-.08.08,0,0a1.15,1.15,0,0,0-.37-.2c-.14-.06-.23-.1-.26-.18h0l.06,0v0a.32.32,0,0,0-.08-.27.28.28,0,0,0-.21-.12h0l-.13,0,.08,0-.13-.12a.19.19,0,0,0-.15-.1c-.07,0-.12,0-.14.18h0l-.08-.08-.08-.08v0a.21.21,0,0,0-.09,0l0,0,.05-.13.13-.17-.2.08h0l-.2-.06-.12,0h0s0,0,0-.05h-.11a.47.47,0,0,0-.19-.26,5.45,5.45,0,0,1-1.17-1.11,3.56,3.56,0,0,0-.31-.33l-.07-.08-.07-.09,0,.09a.24.24,0,0,0-.13,0H8.33l-.05.07v.19a.36.36,0,0,1-.1-.42l0-.09,0-.08H8.06a.52.52,0,0,0-.35.13l0,0v0l0,.08H7.56l-.06,0v0c0,.16,0,.24.14.34l.06.07s.4.26.51.37a1,1,0,0,0,.5.33.55.55,0,0,0,.3.32.19.19,0,0,1,.12.15l.15.05a5.48,5.48,0,0,0,.91.56c.09.23.43.4.72.53L11,43l.05,0,0,.07,0,0c.41.21.84.46,1.33.74l.07,0,.27.16.09.08c.43.15.85.33,1.25.51l.08,0c.41.18.84.37,1.29.53l.16.06.16.06-.09-.15Zm-7-4.25,0,.05v0a1.37,1.37,0,0,0-.15-.19h0a.45.45,0,0,1,.22.09Zm14.58,5a.49.49,0,0,0-.17-.16l0,0a.66.66,0,0,0,.07-.12v-.16H23l-.06,0a.31.31,0,0,1,0-.08c0-.19-.08-.29-.22-.29h-.11l-.06.07v.06a.93.93,0,0,1,0,.35l-.12-.06a.5.5,0,0,0-.18-.07l-.1,0h0v.06l-.13,0c-.13,0-.21.08-.24.25l.06.1A.23.23,0,0,0,22,46l.06,0,0-.05s0,0,.07,0a.46.46,0,0,1,.26.09l.11.1.11.1v-.38a.77.77,0,0,0,.5.23h.19l0-.08ZM46.5,22.45c-.08-1-.21-2.06-.4-3.07v-.06h0l0,0a10.41,10.41,0,0,0-.41-1.83C43.19,7.5,35.54,1.14,24.72,0h-.54C12.12,0,3.4,6.56.85,17.55a8.51,8.51,0,0,0-.4,2.1v.06H.69v-.06c.1-.7.24-1.39.39-2.05s.4-1.29.59-1.88l.16-.6a1.38,1.38,0,0,0,.45-1C5.33,8.15,11.16,1,21.65.52c.43,0,.87,0,1.29,0A22.86,22.86,0,0,1,39,6.69a.41.41,0,0,1,.09.19.7.7,0,0,0,.2.36,9,9,0,0,1,2.53,2.86c1.12,1,2.82,4.69,3.63,7.42.16.61.29,1.25.41,1.88s.2,1.85.4,3.07v.06h.23Zm-10.27,20,0,0,0,0a24.34,24.34,0,0,1-9.51,3.79h-.06v.06l0,.12v.06h.06a19.78,19.78,0,0,0,9.62-3.84l0,0,0,0Zm.25-10.95a3,3,0,0,0,1.81,1.07.3.3,0,0,1,.27-.13,1.46,1.46,0,0,0,.07-.6C38.24,31.45,36.71,30.17,36.48,31.49ZM8.67,24.33C9.3,22,7.08,21.56,5,21.92,3.36,24.75,7.25,26.13,8.67,24.33Zm-3.08,0a2.63,2.63,0,0,1-.07-1.47s.23,0,.07-.07C8.6,21.5,9,25.5,5.59,24.33ZM24.11,9.22c.91-.41.79-2.18.67-3.41-.44-.62-2.2-.73-3-.33C21.35,7.41,21.66,9.72,24.11,9.22Zm-1.94-3c.15,0,.14.17.14.33.26-.91.7-.54,1.74-.6.4.78.62,3.21-1.14,2.67V8.35c-.08,0-.06.12-.07.2C22.22,8.2,22.09,7.4,22.17,6.21ZM37.89,22.53c-.78,2.22,1.53,2.83,3.61,2.41C43.21,22.31,39.38,20.75,37.89,22.53ZM41,24.4c-1.25,0-2.64.19-2.61-1.07.4-.73,1.11-.61,2.52-.66.05,0,.25.3.26.36C41.21,23.48,41.23,24.19,41,24.4Zm-2.34-9.83a1.58,1.58,0,0,0-2.14,1.14,1.18,1.18,0,0,1,.2.27,3,3,0,0,0,1.94-.87ZM8.87,13c4.23,3.75,8.4,7.56,13,11-3.38,4.42-7.21,8.39-10.56,12.84.17.23.28.52.6.6,3.77-3.32,6.67-7.5,10.16-11.1a.68.68,0,0,0,.27.6c2.69.41,4.16-1,4.41-3.21,2.29-2.26,5.08-4,7.29-6.35a2.21,2.21,0,0,0-2.54-1.87c-3.34,1.47-5.17,4.66-9.43,5-3.83-3-7.24-6.49-11.43-9.16A2.56,2.56,0,0,0,8.87,13Zm1.34.33a9.87,9.87,0,0,1,2,1.74A5.73,5.73,0,0,1,10.21,13.3Zm12,11.17c-2,2.64-4.49,5.18-6.42,7.69C17.62,29.58,20,26.95,22.17,24.46ZM21.71,26c.41-.85,1.39-1.28.27-2.34.73-4.06,5.33,1.41,1.07,1.27C22.46,25.15,22.38,25.88,21.71,26Zm1.07.33c-.13-.25.28-.46.27-.8a2.35,2.35,0,0,0,1.94-1c.34.21.34.6.8.4A2.52,2.52,0,0,1,22.78,26.34Zm2.87-1.61c-.22-.11-.36-.31-.6-.4a2.29,2.29,0,0,0-.2-2c.13-.16.45-.48.33-.67C25.85,21.94,26.17,23.84,25.65,24.73Zm6.22-7.15c.18-.07.22-.27.2-.53.32.17-.09.52-.13.74a1.79,1.79,0,0,0,.47-.87c.19.11,0,.36-.07.47.22-.07.22-.35.27-.6s.14.35,0,.51c0,0,.08,0,.09,0,.06-.12.07-.73.27-.74a.6.6,0,0,1-.13.47c.06.07.15,0,.27,0S33,17,33,17c-.15-.11.11-.38.07-.6.25.06.07.35,0,.47.17,0,.05-.26.27-.2-1.4,2.92-5,4.2-7,6.75a6.91,6.91,0,0,0-.67-2.07c1.24-.7,2.29-1.59,3.48-2.34.41.19.55.65.8,1,.19-.33-.5-1.09-.47-1.47.31.23.44,0,.53.27.15,0,.14-.17.13-.34s.08.18.07.27a.54.54,0,0,0,.2-.53c.26.06.07.35,0,.47a.69.69,0,0,0,.27-.67c.28,0,.06.29.07.4a.65.65,0,0,0,.27-.6c.27.11-.08.47-.13.67a1.31,1.31,0,0,0,.4-.87c.16.1,0,.46-.07.54s.15,0,.27,0-.07,0-.07,0c-.21-.24.29-.46.07-.73.27.07.06.45,0,.6.16-.23.41-.54.33-.8C32,17.29,31.89,17.42,31.87,17.58Zm0-1.6a41.3,41.3,0,0,0-5.75,4.35,1.64,1.64,0,0,0,.53-.4c.19,0-.1.1-.07.2.26,0,.36-.26.6-.33-.36.21-1.29,1.33-2.07,1.34,0-.19.29-.18.13-.33s-.41,0-.47-.27C27,18.93,29.32,17,31.87,16Zm-15.65.4c0,.33-.43.33-.47.67.32,0,.64-.29,1.14-.6,2.7,2.25,3.52,4.88,7.89,5.21-.22-.83-2.11-.17-2.67-.8.73-.27,2.66-.48,2.81.67-.19,0-.07.43-.27.6a2.19,2.19,0,0,0-2.81.47c-4-3-7.41-6.54-11.43-9.49.24-.29.49-.59.74-.87A36.78,36.78,0,0,1,16.22,16.37ZM10.14,12.7c-.25,0-.4-.18-.74-.13.09-.14.37-.33.53-.2.31-.29.43-.77,1-.8C10.67,11.93,10.28,12.19,10.14,12.7Zm22.2-4.42c-.91-.74-1.45.74-1.67,1.54C31.42,10.84,32.32,9.25,32.34,8.28ZM10,15.3c-.36-.39-2-1.7-2.14-.27a3.51,3.51,0,0,0,1.81,1A.63.63,0,0,0,10,15.3ZM7.86,32c0,.36.17.46.33.6A3.81,3.81,0,0,0,10,31.62v-.54C9.24,30.6,8.22,31.38,7.86,32Zm6.29,6.55c.13.14.21.33.47.33a1.8,1.8,0,0,0,1.07-2.07C14.61,36.52,14.39,37.7,14.15,38.51Zm0-30c.25.73.47,1.49,1.2,1.74.24,0,.3-.19.47-.27C15.81,9,14.81,7.32,14.15,8.48Zm10,14.38c-3.87.14,1.64,3.42,0,0Zm-1.2.67c.15-1,1.5-.42,1.14.4C23.72,24.19,23,24.43,22.91,23.53ZM31.8,38.84c.25,0,.26-.14.47-.13.22-.9-.49-1.41-.8-2C29.86,36.7,31.24,38.58,31.8,38.84Zm-7.15,2.41c1.91-3.9-4.21-5.55-2.94-.47C22.06,41.5,23.74,41.53,24.65,41.25Zm-.47-.53a4.38,4.38,0,0,1-1.23.06.8.8,0,0,1-.33-.13C21.11,38.16,25,36.91,24.18,40.71Z"/></g></g></svg>