<svg version="1.1" id="Слой_1" xmlns="http://www.w3.org/2000/svg" xmlns:xlink="http://www.w3.org/1999/xlink" x="0px" y="0px"
	 viewBox="0 0 3668.9 3669.4" style="enable-background:new 0 0 3668.9 3669.4;" xml:space="preserve">
<style type="text/css">
	.st0{fill:#BA9241;}
	.st1{fill:#FEFEFE;stroke:#FFFFFF;stroke-width:16.26;stroke-miterlimit:22.9256;}
</style>
<g id="Слой_x0020_1">
	<circle class="st0" cx="1834.6" cy="1834.6" r="1834.6"/>
	<path class="st1" d="M681.9,2545.6c-10.3,10.4-18.7,22.4-24.5,35.3v0.1c-5.6,12.5-8.8,26-9.2,39.8c-0.5,18.4,3.6,36.2,11.6,52
		c8,15.7,20,29.6,35.6,40.3c6.1,4.2,12.6,7.8,19.5,10.6c6.7,2.8,13.8,4.8,21.2,6.1c18,3.2,35.7,2,52-3.1c16.5-5.1,31.5-14.2,44-26.7
		v-0.1l968.9-968.8l-0.4-0.4l-151.9-151.9L681.9,2545.6L681.9,2545.6L681.9,2545.6z M2996.1,2887.6H1918.3c-16,0-30.5-6.5-41-17
		c-10.6-10.6-17.1-25.1-17.1-41.1c0-16,6.5-30.5,17-41v-0.1c6.7-6.7,15.1-11.8,24.4-14.6v-27.2c0-27.4,11.1-52.3,29.2-70.4
		c14.3-14.3,32.9-24.3,53.7-27.8v-67.6c0-16,6.5-30.5,17.1-41.1c10.5-10.5,25-17,41-17h829c16,0,30.5,6.5,41,17
		c10.6,10.6,17.1,25.1,17.1,41.1v67.6c20.8,3.5,39.4,13.5,53.7,27.8c18,18,29.2,42.9,29.2,70.4v27.2c9.4,2.8,17.7,7.9,24.4,14.6
		c10.5,10.5,17,25.1,17,41.1c0,16-6.5,30.5-17.1,41.1C3026.6,2881.1,3012.1,2887.6,2996.1,2887.6L2996.1,2887.6z M1918.3,2854.3
		h1077.8c6.9,0,13.1-2.8,17.6-7.3c4.4-4.4,7.2-10.6,7.2-17.5c0-6.9-2.8-13.1-7.3-17.5c-4.5-4.5-10.7-7.3-17.6-7.3H1918.3
		c-6.8,0-13.1,2.8-17.6,7.3l0,0c-4.5,4.5-7.2,10.7-7.2,17.6c0,6.9,2.8,13.1,7.2,17.5C1905.2,2851.5,1911.4,2854.3,1918.3,2854.3
		L1918.3,2854.3z M1935,2771.4h1044.5v-24.8c0-18.4-7.4-34.9-19.4-46.9c-11.9-11.9-28.5-19.3-46.9-19.3h-912
		c-18.3,0-34.9,7.4-46.8,19.4c-12,12-19.4,28.6-19.4,46.9L1935,2771.4L1935,2771.4z M2017.9,2647h878.7v-66.2
		c0-6.9-2.8-13.1-7.2-17.5c-4.5-4.5-10.7-7.3-17.6-7.3h-829c-6.9,0-13.1,2.8-17.6,7.3c-4.4,4.4-7.2,10.6-7.2,17.5L2017.9,2647
		L2017.9,2647z M2105.9,1860.2c-11.3-11.3-17-26.2-17-41.1c0-9.5,2.3-19,7-27.6l-67.8-67.9c-8.6,4.7-18.1,7-27.6,7
		c-14.8,0-29.7-5.7-41-17h-0.1l0-0.1c-6.3-6.3-10.8-13.6-13.6-21.4l-50.8,50.8h-0.1c-11.4,11.3-26.2,17-41,17c-9.5,0-19-2.3-27.6-7
		l-970.6,970.6l0,0c-16.4,16.4-36.1,28.3-57.6,35c-21.3,6.6-44.4,8.2-67.6,4.1c-9.5-1.7-19-4.4-28.1-8.2c-9-3.7-17.7-8.4-25.7-14
		c-20.1-13.9-35.7-32-46.2-52.5c-10.6-20.7-15.9-43.9-15.3-67.9c0.5-18.4,4.8-36.2,12-52.6l0,0c7.5-16.9,18.2-32.3,31.2-45.3v-0.1
		l968.5-968.5c-4.7-8.6-7-18.1-7-27.6c0-14.8,5.7-29.6,17-41v-0.1l50.8-50.8c-7.8-2.8-15.1-7.3-21.4-13.6l-0.1,0
		c-11.3-11.3-17-26.2-17-41.1c0-9.5,2.3-19,7-27.6l-67.9-67.8c-8.6,4.6-18.1,7-27.6,7c-14.8,0-29.7-5.7-41-17l-0.1-0.1
		c-6.4-6.4-11-14-13.8-22.1c-18.2,14.6-40.3,22-62.3,22c-25.4,0-50.9-9.7-70.3-29.1h-0.1c-19.4-19.4-29.2-44.9-29.2-70.4
		s9.7-51,29.2-70.4l293.1-293.1c19.4-19.4,44.9-29.2,70.4-29.2c25.5,0,51,9.7,70.4,29.2c19.4,19.4,29.2,44.9,29.2,70.4
		c0,22.1-7.3,44.2-21.9,62.3c8,2.8,15.6,7.4,22,13.8l0.1,0.1c11.3,11.3,17,26.2,17,41c0,9.5-2.3,19-7,27.6l67.8,67.8
		c8.6-4.6,18.1-7,27.6-7c14.9,0,29.7,5.7,41.1,17l0.1,0.1v0.1c11.3,11.3,17,26.2,17,41h-0.1c0,9.5-2.3,19-7,27.6l214.4,214.4
		c8.6-4.7,18.1-7,27.6-7c14.8,0,29.6,5.7,41,17h0.1l0,0c11.3,11.3,17,26.2,17,41.1c0,9.5-2.3,19-7,27.6l67.8,67.8
		c8.6-4.7,18.1-7,27.6-7c14.8,0,29.7,5.7,41,17l0.1,0.1c6.4,6.4,11,14,13.8,22c18.2-14.6,40.3-21.9,62.3-21.9
		c25.5,0,51,9.7,70.4,29.2c19.4,19.4,29.2,44.9,29.2,70.4c0,25.4-9.7,50.9-29.2,70.3v0.1L2276,2006.8
		c-19.4,19.4-44.9,29.2-70.4,29.2s-50.9-9.7-70.4-29.2c-19.4-19.4-29.2-44.9-29.2-70.4c0-22.1,7.3-44.2,21.9-62.3
		C2119.9,1871.3,2112.3,1866.7,2105.9,1860.2L2105.9,1860.2L2105.9,1860.2z M2422.7,1625.6l-0.2,0.2L2188,1860.2h0l-29.3,29.3
		c-12.9,12.9-19.4,29.9-19.4,46.8s6.5,33.9,19.4,46.8c12.9,12.9,29.9,19.4,46.9,19.4c16.9,0,33.9-6.5,46.8-19.4l293.1-293.1l0,0
		c12.9-12.9,19.4-29.9,19.4-46.9c0-17-6.5-33.9-19.4-46.8c-12.9-12.9-29.9-19.4-46.9-19.4c-17,0-33.9,6.5-46.9,19.4L2422.7,1625.6
		L2422.7,1625.6z M2122.1,1819.2c0,6.3,2.4,12.7,7.3,17.5l0,0c4.8,4.8,11.2,7.2,17.6,7.2c5.9,0,11.8-2.1,16.5-6.2l235.6-235.6
		l0.2-0.2c4.7-4.8,7-11.1,7-17.3c0-6.4-2.4-12.8-7.2-17.6c-4.8-4.8-11.2-7.2-17.6-7.2c-6,0-12,2.1-16.7,6.4l-0.8,0.8l0,0
		l-234.5,234.5l-1,1C2124.2,1807.3,2122.1,1813.2,2122.1,1819.2L2122.1,1819.2z M1519.6,1191.9L1519.6,1191.9l234.5-234.5l0.2-0.2
		l29.1-29.1c12.9-12.9,19.4-29.9,19.4-46.8c0-17-6.5-33.9-19.4-46.9c-12.9-12.9-29.9-19.4-46.8-19.4s-33.9,6.5-46.8,19.4
		l-293.1,293.1c-12.9,12.9-19.4,29.9-19.4,46.8s6.5,33.9,19.4,46.9l0,0c12.9,12.9,29.9,19.3,46.9,19.3s34-6.4,46.9-19.3l0,0
		L1519.6,1191.9L1519.6,1191.9z M1535.9,1232.9c0,6.4,2.4,12.7,7.2,17.6c4.8,4.8,11.2,7.2,17.6,7.2c5.9,0,11.8-2.1,16.5-6.3l1-1
		l234.5-234.5c4.8-4.8,7.3-11.2,7.3-17.5c0-6.4-2.4-12.7-7.2-17.6c-4.8-4.8-11.2-7.2-17.6-7.2c-6.3,0-12.5,2.3-17.3,7l-0.2,0.2
		L1542,1216.6C1537.9,1221.2,1535.9,1227.1,1535.9,1232.9L1535.9,1232.9z M2017.3,1690.8l0.7-0.7l0,0l234.5-234.5l0,0l0.6-0.6
		c4.4-4.8,6.6-10.9,6.6-17c0-6.3-2.4-12.7-7.3-17.5l0,0l0,0c-4.8-4.8-11.2-7.2-17.6-7.2c-6.3,0-12.7,2.4-17.5,7.2l-222.8,222.8l0,0
		l-11.9,11.9c-4.8,4.8-7.1,11.1-7.1,17.4c0,6.4,2.4,12.7,7.2,17.6l0,0l0,0l0,0c4.8,4.8,11.2,7.2,17.6,7.2
		C2006.5,1697.4,2012.6,1695.2,2017.3,1690.8z M2328.5,1555.4l-64.4-64.3l-210.9,210.9l64.4,64.4L2328.5,1555.4L2328.5,1555.4z
		 M1699.5,1352.2l-10.8,10.8c-4.2,4.7-6.2,10.6-6.2,16.5c0,6.3,2.4,12.7,7.3,17.5l0,0l0,0c4.8,4.8,11.2,7.2,17.6,7.2
		c6.3,0,12.7-2.4,17.5-7.3l234.6-234.6l0,0l1-1c4.2-4.7,6.3-10.6,6.3-16.5h-0.1c0-6.4-2.4-12.7-7.2-17.5l0,0l0-0.1
		c-4.8-4.8-11.2-7.3-17.5-7.3c-6.3,0-12.7,2.4-17.5,7.3L1699.5,1352.2L1699.5,1352.2z M1888.9,1115.7l-64.4-64.4l-210.9,210.9
		l64.4,64.4L1888.9,1115.7L1888.9,1115.7z M1818.7,1350.2l210.9,210.9l152.3-152.3l-210.9-210.9L1818.7,1350.2L1818.7,1350.2z
		 M2006.1,1584.7l-210.9-210.9l-35.1,35.1l180.8,180.8l30.1,30.1L2006.1,1584.7L2006.1,1584.7z M1932.4,1628.2l-195.9-195.9
		l-76.2,76.2l0,0c-4.8,4.8-7.2,11.2-7.2,17.5c0,6.1,2.2,12.2,6.6,16.9l0.6,0.6l0,0l0,0l173.3,173.3l3.6,3.6
		c4.7,4.2,10.6,6.2,16.5,6.2c6.4,0,12.8-2.4,17.6-7.2l0,0l76.1-76.1L1932.4,1628.2z"/>
</g>
</svg>
