<svg xmlns="http://www.w3.org/2000/svg" viewBox="0 0 47.92 26.2" fill='rgba(50,39,18,0.05)'><g id="Слой_2" data-name="Слой 2"><g id="Layer_1" data-name="Layer 1"><path class="cls-1" d="M25.62,11.62c.64-1.32,2.15-1.24,3.14-2.36-1.4-.84-2.21,1.39-3.69,1.49C25.14,11.15,25.42,11.34,25.62,11.62ZM44.4,20.89c-1,.17-2.42.89-3.38,1.1A8.28,8.28,0,0,0,44.4,20.89ZM44.64,13C47.7,6.1,41.56,1.27,34.81,2.42c-5.21-6-16.18,0-11.47,8.09C17.34,17.12,4.33,16.71,0,25c.37.84,1.52.88,2.75.87C9.16,23.69,13.34,19.3,19,16.41c.29,1.7-.48,3.6.24,5.11,5.11,6.17,25.35,6.79,28.6-1.49C48.25,16.37,46.85,14.29,44.64,13Zm0-4.24c-.15,0-.06-.26-.24-.24C46.22,16.23,35,18.13,36,10c.12-.09.16-.25.39-.23a1.83,1.83,0,0,1-.31-.32c.3-.15,0-.52.39-.78,0-.12-.14.07-.16-.08a6,6,0,0,1,1.1-1.34c-.74,0-.79.74-1.18.94.34-.82.36-1.64,1.1-1,.53-2.17,4.57-2.13,5.42-1.42-.78-1.29-4-.72-5,.24.11-.62,1.33-.81,2-1.18-3,.64-5.14,3.76-4.16,8C32,6.28,44,.53,44.64,8.79Zm-3.85-5.5c.09.34,0,.32-.08.63-.4.22-.91-.15-1.18.16-.33.06.11-.3-.24-.31a.77.77,0,0,0-.47.24c0,.11.2.07.31.08-2,.62-3.1,2.2-4.09,3.85A5.21,5.21,0,0,1,36,5.41a5.86,5.86,0,0,0-1.89,4.87.77.77,0,0,1,.08-.39c.12,0,0,.29.16.39,0,.17-.28,0-.39.08.29,2.78,2.46,7.2,7.23,5.5,0-.41,2.2-1.28,2.67-2.28,1.26.44,2.6,1.66,2.2,2.83-4.43,5.72-20.73,6.21-25.46,0C26.75,8.59,38.91,23.19,44,14.13c-3.63,5.67-14,.93-10.53-6.44-.12.15-.37.17-.49.32s0,.2-.06.31A.36.36,0,0,1,33,8C33.61,4.69,36.73,3.16,40.78,3.29ZM26.56,11.77c.91-.23,1.61,1,2.36,1.41A2.41,2.41,0,0,1,26.56,11.77ZM31,.69c-2.69.43-5.35,3.13-4.87,5.19,0,.17-.28,0-.39.08,0,.21.07.66.16.47.19,0-.09.24-.16.08-.16.15-.13.27-.08.47.09,0,.07-.14.08-.24.26.47-.35.26-.23.63.2,0,.19-.18.31-.24.07.13,0,.57-.23.39.07.26.17,0,.31.16-.16.82.35,1.44-.16,2.2a1.22,1.22,0,0,0,.94-.55c-1.06-5.11,3.16-9,7.31-6.6a3.14,3.14,0,0,1-1.34.94c-.71-1-4.15-1.21-3.69.08.45,0,.29-.16.39-.39.25,0,.58.38.23.55.43.05.14-.33.39-.31.11,0,.52.28.16.47.42.08.33-.35.08-.39.13-.19.64.34.24.47.13,0,.13-.07.24-.08s0-.31-.16-.31a.9.9,0,0,1,.71.31c0,.18-.23.09-.24.24.31.1.42-.28.16-.31.18-.25.49.33.16.39.14,0,.17-.1.31-.08,0-.2-.12-.25-.23-.31.13-.18.64.34.23.47.2.08.35-.26.16-.31.15-.08.39-.07.63-.24-1.68,1.83-2.95,7.23-.63,9.59C29.56,9.17,31.47,2.4,37,2.58a5.68,5.68,0,0,0-3.38,1.65c.88-.43,1.6-1.43,2.91-1.18-4.48,1.36-6.48,9.46-2.12,12.26-2.14-1.4-5-2-6.76-3.85,3.52.32,1.3-5.4-.71-2.36.8-.79,2.51-.53,2.2,1.1a13.78,13.78,0,0,0-3.77,2,2.16,2.16,0,0,0-.94-1.49c.16-.31.71-.24.86-.55-.94-1.1-.44-3.12-.47-4.64.15,0,.11-.14.24-.31s-.23,0-.24.08A6.3,6.3,0,0,1,31,.69ZM24.28,4.54A4.67,4.67,0,0,1,26.4,1.79,8.51,8.51,0,0,0,24.28,4.54Zm4-4.09c-3.49.36-4.81,3.74-5,5.82,0,.14.3,0,.24-.16.28.06-.24.37,0,.39,0,.2-.14-.11-.31,0,0,.2.29.12.39.23-.07.14-.15.27-.39.24.07.23.25,0,.39,0C23.39,8.11,24,9.25,24,10,21.14,6.68,24.18-.26,28.29.46ZM23.42,11.37c.19,0,.26-.21.55-.15a2,2,0,0,1,.29.2.57.57,0,0,1,.45.85,1.37,1.37,0,0,1,0,.36l-.28.17a6.88,6.88,0,0,1-4,2.42,32,32,0,0,1,4-2.42,2.26,2.26,0,0,0,.31-.53,1.13,1.13,0,0,0-.45-.85,2.72,2.72,0,0,0-.84-.05.39.39,0,0,1-.16,0ZM6.13,22.77a.44.44,0,0,1,.31-.08c-.72.34-2.36.88-3,1.65a18.14,18.14,0,0,1-2,.71c.09-.15.3-.17.39-.31-.41.17-.7.44-1.1.23.65-4.32,5.76-4.88,9-6.83-1.54,1-3.88,2-5.66,3.06,6.4-2.9,13.38-6.33,19.57-9.43,0,.37-.31.52-.63.63,0,.19.13.23.08.47A160.4,160.4,0,0,1,6.13,22.77Zm20.19,1.34c.65.64,2.9.37,3.93,1C26,24.8,21.4,24.28,19.88,21c.15,0,.05.26.24.24.17-.19-.5-.31-.24-.63C22.74,23,27,24,31.9,24.42A27.66,27.66,0,0,1,26.32,24.11Zm10.45.71a12.57,12.57,0,0,0,3.14-.55c-1.81,0-3.83.41-5.66,0,5.06-.29,10-.72,12.42-3.62.09,0,.14,0,.16.08C45.62,23.5,41.24,25.41,36.78,24.82Zm10.06-5.34c-2.2,3.27-8.15,4.32-13.75,3.93a26.16,26.16,0,0,0,6.84-.79,51.88,51.88,0,0,1-13.28-.08,15.08,15.08,0,0,0,4.79.78c-4.3.37-9.46-1.06-11.63-3.85.17-.26.52.62.94.63a2.53,2.53,0,0,1-.86-3,3,3,0,0,0,.79.94c.09-.33-.54-.61-.55-1.1,2.12,2.52,5.88,3.4,9.74,4.16a24.53,24.53,0,0,1-4.48-.63c2.48,1.39,10.38,1.64,14.62.39a26.58,26.58,0,0,0-3.3.32c3.95-.9,8-1.73,10-4.56-.27,1.06-1.1,1.57-1.81,2.2a3.47,3.47,0,0,0,2-1.81c.86,2.12-1,3.15-2.2,3.61C45.36,21.09,46.35,20,46.83,19.47ZM29.94,9.18c.21-1.06-1.6-2.06-2.12-1.26C28.7,7.61,29.61,8.44,29.94,9.18ZM24.75,21.6a26.48,26.48,0,0,1-3.14-1.26C22.61,21,23.9,21.73,24.75,21.6Z"/></g></g></svg>