<svg xmlns="http://www.w3.org/2000/svg" viewBox="0 0 42.59 26.37"><defs><style>.cls-1{fill:#494a3d;fill-rule:evenodd;}</style></defs><title>письмо</title><g id="Слой_2" data-name="Слой 2"><g id="Layer_1" data-name="Layer 1"><path class="cls-1" d="M40.71,9.57c-.09,2.28-.31,5.51.08,7.21C40.71,15.25,40.88,11.26,40.71,9.57Zm-12.78,16-.66,0A3.88,3.88,0,0,0,27.93,25.54ZM42.2.43C28.91-.15,13.59-.14.3.43,0,8.38-.26,18.22.45,25.92c13,.67,28.45.52,41.6.07C42.88,18.44,42.6,8.23,42.2.43ZM40,.66C35,5,30.19,9.57,25,13.81c-2.51-.08-4.92-.08-7.43,0C12.88,10,7.89,5.25,3.71,1.62c.16,0,.2-.05.3-.07s.12-.35,0-.3c-.42-.11,0,0-.07.3C3.17,1.55,3,.93,2.45.73,14.57.32,27.8.48,40,.66ZM17.53,14.1c2.28-.13,5.37-.1,7.43,0C30.68,9.89,35.3,4.58,41.16.51c-5.35,4.78-10.53,9.73-16.27,14.12-1.73.18-5.24,0-7.13.07C12,10.32,6.77,5.32,1.41.51,7.19,4.64,11.87,9.86,17.53,14.1ZM.74,1.1a.7.7,0,0,1,.15.74c.27-.17.05-.54,0-.74C6.15,4.85,10.8,9.86,16,14,11.27,17.34,5.21,23,1,25.4.32,17.91.76,9,.74,1.1ZM27,25.69c0-.12.1-.16.22-.17-1.19,0-2.7.14-.52-.06-3-.17-6.89,0-9.88-.07.14.25.68.11,1,.15-.41.2-1.54-.11-2.23.07-.21-.12.38-.06.52-.07-1-.28-2.13.28-3.42.15,0-.09.13-.06.22-.07-3.36.11-7.84.13-11.44,0C6.71,22,11.35,17.48,16.64,14.25c0,.09,0,.13.08.15-3.44,3.22-8.06,6-11,9.29-.06,0-.07,0-.07-.07-.19-.31.09.19,0,.28a117.86,117.86,0,0,0,11.2-9.2c2.46.69,7.37,1.1,9.21-.45C31.3,17.8,35.9,22,41,25.62,36.77,25.87,31.22,25.53,27,25.69Zm14.56-.45s-.06.08-.07,0,0,0,0,0c-4.82-2.42-9.8-7.8-14.94-11.11,5.11-4.25,9.82-9.3,15.23-13,0,7.83.3,16.78-.29,24.11ZM5.2,1.84c.76.08,1.41-.35,1.93-.07,0,.16-.8,0-.59.15,9.49-.07,20,.1,28.68-.07-.11,0-.27,0-.3-.07.47,0,1,.22,1.41,0-.14,0-.45.1-.37-.15.77.12,1.53.12,1.86-.37-.19-.1-.31.22-.37,0a.33.33,0,0,0,.3-.15c-.51.1-.33.05-.74.15.13,0,.31,0,.37.15s-.53.15-.59,0c.11,0,.38.09.37-.07-.62-.15-.75-.3-1.26-.07,0-.09.13-.17,0-.22C31.06,1.24,13.4.9,6.76,1.25c-.32-.23-.15-.06,0,.15-.15,0-.37-.36-.45-.22a.08.08,0,0,1,0,.15c-.13-.25-.26-.08-.37.07-.2-.34-.75-.12-1.11-.07.31.17.79.15,1,.37C5.77,1.82,5,1.7,5.2,1.84ZM41.53,16c.15-2.8.13-6.17,0-8.77a11.9,11.9,0,0,0-.15-2.67c0-.4-.06-1.5-.15-1.34,0,4.78-.36,12.94.15,18.35.19-.4-.19-2.14.22-1.71,0-.75-.28-1.94.07-2.23C41.52,17.23,41.65,16.51,41.53,16ZM1.26,5.34a116.61,116.61,0,0,0,0,14.74C1.49,16.68,1.31,9.67,1.26,5.34Zm0,15.16,0-.42c0,.2,0,.39,0,.56C1.18,20.56,1.2,20.51,1.26,20.49Zm.75-.2,0,.21A.24.24,0,0,0,2,20.29Zm.07-6.41c.05-.14.22-.95,0-.67.16-.48-.07-1,.07-1.41-.11.22.33.22.22,0-.22.07-.45-.6-.07-.74-.47-1.89-.11-3.8-.37-5.72C1.75,9.76,1.57,16.9,2,20.13c.12-.29.2-.56,0-.61.17-.3-.06-1.1.22-1.19-.13-.33-.13-.23.07-.3-.34-.16-.24-.82,0-.74-.22-.05-.28-.19-.07-.3-.21-.19-.08-.92.15-.89,0-.1-.29,0-.3-.15.11-.35,0-.95.22-1.26a.53.53,0,0,1-.22-.15c0-.25.23-.31.3-.52S2,14.08,2.08,13.88Zm0,6.8v0C2.17,20.66,2.13,20.67,2.07,20.68ZM2,20.29l0-.16-.06.14S2,20.26,2,20.29Zm-.08.2c0,.18.06.19.14.19l0-.18S2,20.54,1.93,20.49Zm33.84,2.39h0a.3.3,0,0,1,0,.07Zm-.34-.54c-2.78-2.2-6.27-5.49-9.36-7.36,3,2.52,6.63,6,9.68,7.88.06-.31-.42-.19-.09-.38-.11,0-.38.09-.37-.07S35.44,22.42,35.44,22.35ZM36,23c-.18,0,0-.53-.26-.13l.33.21C36.11,23,36.07,22.91,36,23Z"/></g></g></svg>