<svg xmlns="http://www.w3.org/2000/svg" xml:space="preserve" width="1772px" height="1155px" version="1.1" style="shape-rendering:geometricPrecision; text-rendering:geometricPrecision; image-rendering:optimizeQuality; fill-rule:evenodd; clip-rule:evenodd" fill='#ba9241'
viewBox="0 0 992.85 647.39"
 xmlns:xlink="http://www.w3.org/1999/xlink">
 <g id="Слой_x0020_1">
  <metadata id="CorelCorpID_0Corel-Layer"/>
  <g id="_2569170236752">
   <path class="fil0" d="M669.2 126.7l-251.1 -86.62c-23.79,-8.13 -50.43,-6.51 -73.2,4.47l-12.6 6.1c-17.09,8.34 -37.21,9.56 -55.1,3.05l-21.55 -7.73c-1.02,-0.6 -2.04,-1.22 -3.06,-1.62l-128.49 -43.72c-3.05,-1.01 -6.51,-0.81 -9.36,0.61 -2.85,1.43 -5.08,3.87 -6.09,6.92l-107.96 314.94c-2.25,6.3 1.21,13.21 7.51,15.45l128.7 44.12c1.43,0.61 2.65,0.82 4.07,0.82 1.83,0 3.67,-0.41 5.28,-1.22 2.85,-1.42 5.09,-3.87 6.11,-6.91l103.89 -302.96 13.02 4.68c23.98,8.54 51.03,6.92 74.01,-4.27l12.6 -6.1c16.88,-8.34 36.8,-9.56 54.49,-3.45l241.75 83.36c-1.84,10.58 -6.92,28.06 -20.13,37.2 -11.8,8.14 -28.87,8.55 -50.43,1.02l-105.52 -35.99c-3.25,-1.01 -6.71,-0.81 -9.76,0.82 -3.04,1.63 -5.08,4.47 -6.09,7.72 -0.21,0.62 -15.87,58.36 -64.66,84.38 -30.9,16.68 -69.13,17.28 -113.65,2.04 -6.31,-2.24 -13.23,1.21 -15.46,7.52 -2.24,6.3 1.22,13.21 7.52,15.45 23.79,8.14 46.36,12.2 67.31,12.2 23.98,0 45.94,-5.28 65.87,-16.07 43.51,-23.37 64.45,-66.07 72.38,-87.22l93.73 32.13c29.48,10.16 53.67,8.74 72.38,-4.06 30.09,-20.74 31.52,-63.44 31.72,-65.28 0.21,-5.28 -3.26,-10.17 -8.13,-11.78zm-535.75 228.93l-105.72 -36.19 100.03 -291.76 102.88 35.17 2.43 1.22 0.41 0.2 -100.03 291.36z"/>
   <path class="fil0" d="M991.66 307.03l-146.79 -298.27c-1.43,-2.84 -3.86,-5.08 -6.92,-6.09 -3.05,-1.02 -6.51,-0.82 -9.35,0.6l-122.19 59.78c-6.11,3.06 -8.54,10.17 -5.7,16.27l142.32 290.74 -47.77 43.72c-40.47,37.21 -86.21,68.32 -135.62,92.51l-234.02 114.47c-6.5,3.26 -13.83,3.66 -20.74,1.22 -6.91,-2.44 -12.4,-7.32 -15.66,-13.83 -3.25,-6.5 -3.66,-13.82 -1.22,-20.74 2.45,-6.91 7.32,-12.4 13.83,-15.65l130.73 -64.05c6.11,-3.05 8.55,-10.16 5.7,-16.26 -3.05,-6.1 -10.37,-8.54 -16.27,-5.7l-127.88 62.63 -64.46 31.52c-13.41,6.5 -29.88,1.01 -36.4,-12.41 -6.5,-13.41 -1.01,-29.69 12.41,-36.4l187.87 -91.9c6.1,-3.05 8.53,-10.16 5.7,-16.26 -3.06,-6.1 -10.38,-8.54 -16.28,-5.69l-139.06 68.11 -48.8 23.78 -22.97 11.19c-13.42,6.5 -29.89,1.01 -36.4,-12.4 -6.51,-13.42 -1.02,-29.89 12.4,-36.39l23.18 -11.39 168.15 -82.35c6.1,-3.05 8.54,-10.17 5.69,-16.26 -3.05,-6.1 -10.37,-8.54 -16.26,-5.69l-107.97 52.85 -60.18 29.49c-6.51,3.25 -13.83,3.66 -20.74,1.22 -6.92,-2.44 -12.41,-7.32 -15.65,-13.83 -3.26,-6.5 -3.67,-13.82 -1.23,-20.74 2.45,-6.91 7.32,-12.4 13.83,-15.65l89.26 -43.72c6.1,-3.05 8.53,-10.16 5.69,-16.26 -3.05,-6.1 -10.37,-8.54 -16.27,-5.7l-89.25 43.71c-12.41,6.11 -21.76,16.68 -26.23,29.7 -4.48,13 -3.66,27.03 2.43,39.44 4.68,9.76 12.41,17.48 21.77,22.57 -15.46,15.25 -20.14,39.03 -10.17,59.37 8.94,18.29 27.24,28.87 46.35,28.87 2.24,0 4.48,-0.2 6.71,-0.41 -1.62,10.16 -0.4,20.95 4.48,31.11 8.95,18.3 27.24,28.87 46.35,28.87 7.53,0 15.25,-1.63 22.57,-5.29l22.17 -10.98c-1.02,9.56 0.6,19.12 5.08,27.86 6.1,12.41 16.67,21.76 29.69,26.23 5.49,1.82 11.17,2.84 16.87,2.84 7.72,0 15.45,-1.82 22.57,-5.29l234.01 -114.46c51.65,-25.21 99.02,-57.74 141.32,-96.58l53.06 -48.79 120.57 -58.97c6.1,-3.04 8.54,-10.16 5.69,-16.27zm-128.09 49.61l-135.61 -277.12 100.44 -48.99 135.4 277.12 -100.23 48.99z"/>
  </g>
 </g>
</svg>
