<svg version="1.1" id="Слой_1" xmlns="http://www.w3.org/2000/svg" xmlns:xlink="http://www.w3.org/1999/xlink" x="0px" y="0px"
	 viewBox="0 0 107.3 65.9" style="enable-background:new 0 0 107.3 65.9;" xml:space="preserve">
<style type="text/css">
	.st0{fill:none;stroke:#BA9241;stroke-linecap:round;stroke-linejoin:round;}
</style>
<g id="Ð_xA1_Ð_xBB_Ð_xBE_Ð_xB9__x5F_x0020_x5F_1">
	<path class="st0" d="M25,6c-3.7,10.8-7.5,21.6-11.2,32.4c-4.5-1.6-9-3.2-13.5-4.8C4.1,22.8,7.9,12.1,11.7,1.3
		c4.1,1.4,8.1,2.7,11.4,4s5.7,2.2,8,2c2.3-0.2,4.5-1.7,6.4-2.2c1.9-0.5,3.6,0,8.5,1.7c5,1.7,13.4,4.7,21.7,7.7
		c-0.8,2.8-1.5,5.5-3.9,6.2c-2.4,0.7-6.5-0.8-9.4-1.9c-2.9-1-4.7-1.7-6.4-2.3c-0.2,0.5-0.3,1.1-1.6,3.2c-1.3,2.1-3.6,5.7-6.9,7.1
		c-3.3,1.4-7.6,0.4-11.8-0.5"/>
	<path class="st0" d="M87.4,37.9c-4.9-10.1-9.7-20.1-14.6-30.2c4.1-2,8.2-4.1,12.3-6.1c5.1,10.1,10.1,20.3,15.2,30.4
		c-4.2,2.2-8.4,4.3-12.6,6.5c-3.5,3.4-7,6.7-11.3,9.7c-4.3,3-9.4,5.7-14.5,8.2c-5.1,2.5-10.3,4.9-15.5,7.4c-1.9,0.9-3.4,1.8-5,1.5
		c-4.5-1-4.5-5.6-0.6-7.8l12.9-6.3"/>
	<path class="st0" d="M40.7,57.5l-7.3,3.6c-1.9,0.9-3.7,0.2-4.7-1.1c-1-1.2-1.9-4.7,2.1-6.6L49.6,44"/>
	<path class="st0" d="M30.8,53.4L27.7,55c-1.9,0.9-3.7,0.2-4.7-1.1c-1-1.2-1.9-4.7,2.1-6.6l5.3-2.6l13.6-6.8"/>
	<path class="st0" d="M29.3,45.1l-3.1,1.6c-1.9,0.9-3.7,0.2-4.7-1.1c-1-1.2-1.9-4.7,2.1-6.6l8.8-4.3"/>
</g>
</svg>
