<?xml version="1.0" encoding="utf-8"?>
<!-- Generator: Adobe Illustrator 22.0.1, SVG Export Plug-In . SVG Version: 6.00 Build 0)  -->
<svg version="1.1" id="Слой_1" xmlns="http://www.w3.org/2000/svg" xmlns:xlink="http://www.w3.org/1999/xlink" x="0px" y="0px"
	 viewBox="0 0 1100 981.4" style="enable-background:new 0 0 1100 981.4;" xml:space="preserve">
<style type="text/css">
	.st0{opacity:0.25;}
	.st1{fill:#00006B;}
	.st2{fill:#BA9241;}
</style>
<g id="Слой_x0020_1" class="st0">
	<path class="st1" d="M263.7,300.3h94.4c47.9,0,84.2-8.7,107.5-26.1c29-21.8,43.6-58.2,43.6-109c0-56.7-11.6-97.3-34.9-120.6
		c-23.2-23.2-61-34.8-116.2-34.8h-47.9c-13.1,0-24.7,1.4-30.5,2.9c-7.3,2.9-11.6,7.3-13.1,14.5c-1.4,5.8-2.9,18.9-2.9,39.2V300.3
		L263.7,300.3L263.7,300.3z M465.6,651.8H-5v-10.2c71.2,0,113.3-2.9,127.9-7.2c5.8-2.9,10.2-7.3,13-11.6c2.9-5.9,4.4-17.5,4.4-37.8
		V66.4c0-18.9-1.4-32-4.4-36.3c-1.4-2.9-5.8-5.9-13-8.7C103.9,14.1,60.3,9.7-5,9.7V1h412.5c72.6,0,130.8,20.3,174.3,58.1
		c33.4,32,50.9,63.9,50.9,95.9c0,40.6-10.2,71.1-30.5,91.5c-27.6,27.6-79.9,46.5-156.9,58.1c81.3,10.2,139.4,33.4,177.2,69.8
		c30.5,29,46.5,68.3,46.5,114.8c0,37.8-17.5,72.6-52.3,106C576,632.9,525.2,651.8,465.6,651.8L465.6,651.8L465.6,651.8z
		 M384.3,310.4H263.7v274.5c0,20.3,1.4,33.4,4.4,39.2c1.4,4.4,7.2,8.7,14.5,11.6c8.7,2.9,18.9,5.8,30.5,5.8
		c13.1,1.5,42.1,1.5,88.6,1.5c47.9,0,82.8-14.5,106.1-43.6c21.8-26.1,33.4-63.9,33.4-110.4c0-56.7-13-98.8-37.8-129.3
		C475.8,326.4,436.6,310.4,384.3,310.4L384.3,310.4z"/>
	<path class="st2" d="M974,375.8c39.2-34.9,61-53.7,65.4-58.1V537l-8.7-2.9c-8.7-58.2-33.4-107.5-72.6-148.2
		c-40.7-39.2-85.7-59.5-135.1-59.5c-34.8,0-65.3,8.7-91.5,24.7c-32,18.9-46.5,48-46.5,85.7c0,36.3,16,65.3,50.9,88.6
		c29,18.9,75.5,36.3,138,50.9c82.8,20.3,136.5,39.2,162.7,58.1c42.2,30.5,62.5,79.9,62.5,151.1c0,65.4-21.8,117.7-63.9,154
		c-36.3,30.5-81.4,46.4-132.2,46.4c-40.7,0-75.6-7.2-107.5-18.8c-30.5-13.1-58.1-34.9-81.4-63.9c-39.2,52.3-61,79.9-62.5,82.8V707
		l7.3-1.4c13,58.1,27.6,104.6,43.6,139.4c13.1,30.5,29.1,53.8,47.9,74.1c34.9,37.8,87.2,56.6,155.4,56.6c30.5,0,59.6-10.1,85.7-30.5
		c30.5-24.7,46.5-53.8,46.5-90.1c0-45-21.8-79.9-62.5-106c-27.6-17.4-77-34.9-146.8-53.7c-69.7-18.9-119.1-39.2-146.7-59.6
		c-40.7-30.5-61-74.1-61-132.2c0-52.3,18.9-95.9,55.2-132.2c37.8-36.3,81.4-53.7,132.2-53.7c42.2,0,78.5,5.8,106.1,18.9
		C923.2,340.9,942.1,354,974,375.8L974,375.8L974,375.8z"/>
	<polygon class="st1" points="1096.1,214.5 1081.5,214.5 1081.5,15.5 709.6,15.5 709.6,1 1081.5,1 1096.1,1 1096.1,15.5 	"/>
	<polygon class="st1" points="-2.1,772.3 12.4,772.3 12.4,971.4 382.8,971.4 382.8,985.9 12.4,985.9 -2.1,985.9 -2.1,971.4 	"/>
</g>
</svg>
