<svg xmlns="http://www.w3.org/2000/svg" viewBox="0 0 44.58 39.75"><defs><style>.cls-1{fill:#494a3d;fill-rule:evenodd;}</style></defs><title>новости</title><g id="Слой_2" data-name="Слой 2"><g id="Layer_1" data-name="Layer 1"><path class="cls-1" d="M31.8,8.32c-.14.57-.67.77-1.41.74-.39-.12-.43-.94-.82-.82s0,.86,0,1.26c4.2.46,2.84-3.08.07-3.34.16-1.14,1.67-.72,2-.07.27-.26.11-.88,0-1.19-1.3,0-2.3.22-2.75,1C28.56,8,31.41,7,31.8,8.32Zm-8,2.75c.82-.49.21-2.41.89-3,.71.7,1,1.83,1.78,2.45,1.07-.91.14-3.83,1.19-4.75-.58.18-1.45.08-1.78.52,0,.3.6,0,.59.3a5.51,5.51,0,0,1-.15,2.38c-.89-.57-1.14-2.17-2.08-2.45-.39.87-.06,2.46-.67,3.12A14.5,14.5,0,0,1,22.44,7.5c0-.36.46-.23.45-.59a3.51,3.51,0,0,0-2.08.52C22.52,7.94,22.5,10.19,23.85,11.07ZM17.38,12c0,.3-.52.18-.52.52a14.91,14.91,0,0,0,3.72-.74,3,3,0,0,0-.3-1.11c-.44,0-.26.68-.52.89-2.19,1.35-2.13-2.41-.15-1.11a2.34,2.34,0,0,0-.37-1.34c-.87,2.19-2.93-1.09-.37-.89.38,0,.32.52.74.52.11-.43,0-.65-.07-1.11-1.18.33-2.64.38-3.57,1C17.3,8.82,17,10.73,17.38,12Zm-6.24,1.26c-.05.37-.53.31-.52.74a2.73,2.73,0,0,0,1.71-.44c-.95-.25-1.15-2-1-2.82,1.37.66,2.06,2,3.64,2.45.09-1.26-.51-2.46-.67-3.72,0-.37.53-.27.44-.74-.57.17-1.39.09-1.71.52,1,.15,1.06,1.67,1.11,2.53-1.23-.55-2-1.57-3.12-2.23-.36.21-1.11,0-1.26.44C11,10.25,10.65,12.16,11.14,13.23Zm27-4.46c-10.28,2.5-21,4.59-31.06,7.28,10.2-2,21.71-4.44,31.35-7.28ZM7.13,17C17.32,15.69,29.07,12.7,39,9.88,28.86,11.25,17.12,14.25,7.13,17Zm27.19-4.23c-1.29-.33-3.36.43-4.61.89C30.76,14.29,33.31,13.41,34.32,12.78Zm5.42.22a43.87,43.87,0,0,0-9.58,2.23A40.32,40.32,0,0,0,39.75,13Zm.3,1.26c-3.06.63-6.88,1.14-9.58,2.38C33.6,16.09,37.42,15.58,40,14.26ZM20.88,17.46c.06-.06.31,0,.45-.15a4.47,4.47,0,0,0-.22-1c-.21,0-.49,0-.59.07C20.58,16.77,20.59,17.25,20.88,17.46ZM37.3,16.35A25.48,25.48,0,0,0,30.68,18C32.62,18,35.88,17.54,37.3,16.35Zm-17.16.15c-1-.17-.44.67-.37,1.19h.37C20.45,17.4,20.17,16.86,20.13,16.49Zm20.65.89a44.59,44.59,0,0,0-9.66,2.23A44.17,44.17,0,0,0,40.79,17.39ZM7.21,18.95a11.88,11.88,0,0,0,6.24-1.49A16.59,16.59,0,0,0,7.21,18.95ZM21.4,17.68c-.28-.06-.36.09-.59.07a7,7,0,0,0,.3,1.11,2.82,2.82,0,0,0,.52-.15A3.22,3.22,0,0,0,21.4,17.68Zm-1,.22c-1-.16-.4.71-.37,1.19C20.93,19.16,20.53,18.4,20.43,17.9ZM7.65,20.36a37,37,0,0,0,9.58-2.23A48.6,48.6,0,0,0,7.65,20.36Zm15.08-1.78h-.52a24.64,24.64,0,0,0,.52,2.53c.27,0,.36-.09.52-.15C23,20.2,22.92,19.36,22.73,18.57Zm18.35.22A46.86,46.86,0,0,0,31.5,21,40.29,40.29,0,0,0,41.08,18.8ZM25.71,21.1c-.49-.63-.54-1.69-1.19-2.15,0,.83.78,1.34.67,2.08.18,0,.89.49,1.11,0C26.16,20.82,25.82,21,25.71,21.1Zm-4.16-.82c0-.16.33,0,.37-.15a4,4,0,0,0-.15-1C20.82,18.86,21.24,20.08,21.54,20.28ZM7.95,21.77c2.93-.47,7-1,9.58-2.38C14.51,20.06,10.68,20.56,7.95,21.77Zm12.48-1.26c.21,0,.31-.14.52-.15,0-.42-.15-.64-.15-1C19.75,19.12,20.33,20,20.43,20.51Zm21-.45a63.61,63.61,0,0,0-9.58,2.3C34.81,22,38.78,21.32,41.38,20.06ZM8.25,23c2.78,0,6.88-1.14,9.66-2.08A59.81,59.81,0,0,0,8.25,23Zm33.51-1.41a47.28,47.28,0,0,0-9.66,2.16A41.24,41.24,0,0,0,41.75,21.62ZM8.62,24.82a47.39,47.39,0,0,0,9.66-2.3A41.47,41.47,0,0,0,8.62,24.82Zm11.29.3a59.31,59.31,0,0,0,11-2.53A54.75,54.75,0,0,0,19.91,25.11Zm22.21-1.93a38.09,38.09,0,0,0-9.66,2.3A49.93,49.93,0,0,0,42.12,23.18ZM20.21,26.6a62.44,62.44,0,0,0,11-2.6A52.63,52.63,0,0,0,20.21,26.6Zm22.21-1.93A63.74,63.74,0,0,0,32.84,27C35.83,26.64,40.08,25.89,42.42,24.67ZM8.92,26.3c1.64-.17,3.91-.35,5-1.34C12.47,25.06,9.89,25.26,8.92,26.3Zm22.44-.89c-3.49,1-7.62,1.39-10.77,2.75,3.42-.55,7.94-1.27,11-2.67A.36.36,0,0,1,31.35,25.41ZM9.29,27.56a27.72,27.72,0,0,0,7.95-1.93A32.64,32.64,0,0,0,9.29,27.56Zm.3,1.34a38,38,0,0,0,9.66-2.16A51.83,51.83,0,0,0,9.58,28.9ZM21,29.72a56.64,56.64,0,0,0,11-2.53A55.73,55.73,0,0,0,21,29.72Zm12.18-1.26A4.16,4.16,0,0,0,36,27.79,3.62,3.62,0,0,0,33.14,28.46Zm9.36-.67c-10.24,2.51-20.95,4.56-31,7.28,10.24-2,21.32-4.48,31.35-7.21A.48.48,0,0,0,42.5,27.79ZM10,30.61c3.12-.49,7.09-1.18,9.59-2.3A42.28,42.28,0,0,0,10,30.61Zm11.29.59a23.66,23.66,0,0,0,6.39-1.49A16.06,16.06,0,0,0,21.25,31.2Zm-10.92,1a38.55,38.55,0,0,0,9.58-2.3A47.16,47.16,0,0,0,10.33,32.17Zm.3,1.41a42.24,42.24,0,0,0,9.66-2.23A44.14,44.14,0,0,0,10.62,33.58ZM32.91,1.26A1.06,1.06,0,0,0,34.77.82c1.56,1,2.47-1.4,3.71.37a10.45,10.45,0,0,1,.4,1.35c-.07-.5-.13-1-.18-1.5a10.69,10.69,0,0,0-1.34-1c-1-.35-.91.6-1.48.89C35.42.86,35.33.38,34.7.45c-.44.21-.4.89-.89,1-.41-.16-.56-.58-1-.67-.4.15-.34.75-.74.89s-.68-.41-1.26-.37c-.3.11-.28.56-.45.8a2.25,2.25,0,0,0,.52-.43C31.75,2,32.5,2,32.91,1.26Zm-2.6.88L30,2.3h0A.37.37,0,0,0,30.31,2.14ZM20.5,4.09c.71.33,1.64.28,1.86-.45a1.67,1.67,0,0,0,2.38-.45,1.36,1.36,0,0,0,2.15-.52l.87,0c-.37-.08-.58-.33-.94-.42-.46.26-.43,1-1.11,1-.47,0-.59-.4-1-.45-.53.17-.59.8-1.11,1-.43-.14-.64-.5-1.19-.52s-.45.69-.89.82-.77-.49-1.11-.37-.26.73-.67.82-.69-.52-1-.37a1.32,1.32,0,0,1-2,.37c-.55.22-.56,1-1.19,1.11-.45-.1-.64-.44-1.11-.52-.43.19-.56.69-.92.94a16.92,16.92,0,0,0,5.23-1.54C19.44,4.84,20.25,5,20.5,4.09Zm18.57.67c.1-.09.33.35-.07.3,0,.09.22.1.22,0,.17,0,.1.44-.15.3,0,.09.22.1.22,0,.18,0,0,.37-.15.3,0,.09.22.1.22,0,.16,0,0,.35-.15.3.13.19.44.44.15.59,0,.09.14.06.22.07A2.35,2.35,0,0,0,39.9,8c0,.07-.09.06-.15.07a32.46,32.46,0,0,1,1.19,5.42c.52,1.15.66,3.19,1.34,4.46,0,.11-.06,0-.15,0,.35.58.37,1.26.67,1.71.16,1.08.9,3,1.38,5.06-1-7.22-3.87-14-5.06-20.79A3.21,3.21,0,0,1,39.08,4.76ZM27.91,2.65h-.15l.1,0ZM2.08,16.5c-.17-.86-.36-1.7-.57-2.52C1.7,14.89,1.88,15.75,2.08,16.5Zm36.81-14q.1.71.22,1.42A9.4,9.4,0,0,0,38.89,2.54ZM7.33,39a19.25,19.25,0,0,1-1.72-3.75C5.93,36.79,6.39,38.31,7.33,39ZM28.75,1.78c-.43.14-.44.7-.84.87A5.75,5.75,0,0,0,30,2.3C29.53,2.18,29.42,1.7,28.75,1.78Zm15.42,23a33.86,33.86,0,0,1,.3,4.56A12.07,12.07,0,0,0,44.17,24.75ZM13.41,6.07l-.35,0,.16.08A.83.83,0,0,0,13.41,6.07ZM44.13,30a.32.32,0,0,0-.22-.52c0,.15.18.21.15.44s-.23.07-.3.15c-.17-.15.08-.31-.15-.44s.12.42-.07.52c-.22-.06.1-.19,0-.37-.17.06,0,.43-.3.37a.37.37,0,0,0,0-.45c0,.16-.09.6-.3.52s.07-.43-.15-.52c-.06,0,.22.46-.07.6-.08-.07,0-.25-.15,0-.17,0,.1-.19,0-.37-.12.1-.08.37-.22.45s.09-.29-.07-.07c-.2.05.05-.35-.15-.3,0-.18.29,0,.22.15.2-.07-.06-.27-.15-.3s-.09.33,0,.45c-.08.12-.32.08-.45.15a.36.36,0,0,0,0-.45c-.17,0,.1.19,0,.37-.07,0-.06-.09-.07-.15a.08.08,0,0,0,0,.15c-.19.21-.26.17-.52.22.15-.17,0-.17-.07,0-.14,0,.12-.28-.07-.37s.13.34-.15.15c0,.09,0,.13.07.15s-.18,0-.22.22c-.11,0,0-.09,0-.22-.14,0-.06.29-.3.22,0-.15.2-.09.15-.3-.13.07-.12.27-.3.3-.12.18.23-.35-.07-.44.06.09,0,.75-.37.52a.49.49,0,0,0,.07-.37c-.08.24-.22.47-.37.45s.1-.13,0-.3c-.11.09-.11.28-.22.37s-.13-.09-.15,0c-.19,0,.1-.13,0-.3-.14.11-.17.32-.3.45-.25-.07,0-.14-.07-.37-.11.09-.11.28-.22.37s0-.09,0-.22c-.17.33-.43.11-.6.37-.2-.07.2-.14.08-.37-.11.09-.11.28-.22.37,0-.16-.08-.15-.22.07-.2-.07.2-.14.07-.37-.11.09-.11.28-.22.37,0-.16-.08-.15-.22.07-.19-.05.14-.2.07-.37-.18.06-.08.41-.37.37,0-.15.2-.1.15-.3-.06.12-.24.11-.22.3-.22,0,.07-.16,0-.3s-.11.29-.3.3.11-.08.08-.22a1.23,1.23,0,0,0-.22.3c-.11,0,0-.1,0-.22-.15.23-.35-.05-.37.29.18.18-.25-.09,0-.22a.37.37,0,0,0-.22.22c-.11,0,0-.06,0-.15-.16.21-.28,0-.37.22,0-.23-.17-.06-.3.15-.22-.07.17-.11.08-.3a1.18,1.18,0,0,0-.22.3c-.11,0,0-.07,0-.15a.38.38,0,0,0-.22.22c-.1,0,0-.13.08-.15,0-.18-.2.08-.22.15s0-.07,0-.15a.38.38,0,0,0-.22.22c-.2-.07.2-.14.08-.37-.11.09-.11.28-.22.37s0-.06,0-.15A.37.37,0,0,0,34,32c-.11,0,0-.07,0-.15s-.13.06-.15.15,0-.07,0-.15a1.49,1.49,0,0,1-.67.22c0-.06.07-.07.07-.15a.2.2,0,0,0-.22.15c-.11,0,0-.06,0-.15-.16.21-.28,0-.37.22,0-.28-.24.11-.37-.07,0,.08-.9.49-1,.22-.16.07-.22.23-.44.22,0-.06.07-.07.07-.15-.16.07-.22.23-.44.22,0-.06.07-.07.07-.15a.37.37,0,0,0-.22.22c-.11,0,0-.06,0-.15-.36.22-.58.12-.82.37-.11,0,0-.06,0-.15s-.13.07-.15.15,0-.06,0-.15-.13.07-.15.15,0-.09,0-.22c-.35.42-.73.3-1.19.45.15.26,0,0-.07.15-.11,0,0-.07,0-.15s-.13.07-.15.15,0-.07,0-.15c-.54.34-1.18.17-1.71.59-.11,0,0-.06,0-.15s-.13.09-.15,0c0,.15-.33.34-.44.07-.11,0,0,.09,0,.22-.13-.15-.23-.06-.3-.15s0,.09,0,.22c-.13-.15-.23-.07-.3-.15s0,.09,0,.22c-.18-.07-.29-.11-.37.15a.21.21,0,0,1-.15-.22c-.11.1-.16.24-.15-.07-.11.06-.11.24-.15.37-.82-.27-1.13.43-1.56.15a.54.54,0,0,0-.15.22c-.12-.28-.72.39-1,0-.14,0,0,.25-.15.3s-.23-.17-.52-.07c.18.29-.11-.08-.07.22-.12-.18-.24-.09-.3.07-.07,0-.06-.09-.07-.15-.09.23-.22,0-.22.22-.07,0-.06-.09-.07-.15-.1.23-.21,0-.3.22-.11,0,0-.06,0-.15-.3.07-.43.08-.74.15.2.32-.26-.1-.22.22a.41.41,0,0,0-.67.15c-.17,0-.4-.16-.44.07-.11-.17-.24.15-.22-.15-.09.26-.28.07-.3.3-.07,0-.06-.09-.08-.15-.09.23-.21,0-.22.22-.1-.14-.34-.24-.37.07-.12-.31-.56.31-.67-.07-.15.4-.54.11-.59.37-.09,0-.06-.13-.07-.22s-.06.14-.07.22c-.09-.08-.15-.06-.15.08-.1-.18-.15,0-.22-.15-.08.19-.37.17-.44.37-.09-.11-.28-.24-.3,0-.07,0-.06-.09-.07-.15-.09.23-.21,0-.22.22-.07,0-.06-.09-.07-.15-.09.23-.21,0-.22.22a6.37,6.37,0,0,0-2.53.67c-.09,0-.06-.13-.07-.22s-.06.14-.07.22-.06-.09-.07-.15-.06.14-.07.22-.06-.14-.07-.22-.06.14-.07.22-.06-.09-.07-.15-.06.13-.07.22-.06-.14-.07-.22c-.09.23-.22,0-.22.22-.1-.09-.17-.28-.07-.37-.43.51-.38,1.5-.89,1.93,1.26-7.26-3.34-13.38-4.16-20.51.28-2.56-.53-7.49,1.19-10-.22-.19,0-.25,0-.52.11,0,.38-.09.37.07s-.3,0,0,.22c-.05.13-.13,0-.22,0a.35.35,0,0,1,.08.22c.11-.06.29-.06.22-.3a.2.2,0,0,1,.22.15c.21,0,.18-.42.37-.22a.35.35,0,0,1,.15-.59c-.26-.19,1.28-.17,1.56-.74a1.55,1.55,0,0,0,1.71-.3,1.23,1.23,0,0,0,1.78-.52c.27,0,.54,0,.81,0a2.61,2.61,0,0,0-.88-.37c-.48.12-.4.78-1,.82-.4,0-.44-.3-.82-.3a1.5,1.5,0,0,1-1.78.3c-.37.12-.45.54-.82.67s-.47-.28-.82-.3c-.35.17-.37.67-.74.82-.22-.26-.5,0-.82-.15-.36.15-.28.76-.74.82-.35-.12-.48-.46-1-.45s-.36.73-.82.82-.5-.34-1-.3-.32.57-.67.67S.91,8.75.52,8.77A3.35,3.35,0,0,1,0,9.59,26.7,26.7,0,0,1,1.51,14C1.26,12.83,1,11.62.74,10.55c1.14,2.17,1.58,5.77,2.15,8a5.74,5.74,0,0,1-.82-2.07c1.24,6.2,1.62,13.26,3.53,18.78-.16-.75-.28-1.5-.41-2.14.61,2,1.26,4.44,2.3,5.8.26-.1.92.18.89.52A2,2,0,0,1,7.33,39q.22.37.47.72c12.13-2.6,24.06-5.41,36-8.17a2.74,2.74,0,0,1,.59-.59c0-.56,0-1.12,0-1.67a6.47,6.47,0,0,1-.2.85C44.07,30.16,44.46,30,44.13,30ZM7.8,38.19C3.28,30.84,4.81,17.46.74,9.66,2,9.42,3.5,9,5.05,8.77c.3-.17.31-.63.52-.89-2.48,7.27-.09,16.72,1,19-.2.46.4.54.07,1,.41-.29-.07.33.22.07.17,0-.09.2-.07.3.17-.13.09.15.3.3H6.83c.11.14.41.09.37.37-.1,0-.12-.13-.22-.15A18.56,18.56,0,0,1,9.06,36C8.79,36.62,8.82,38,7.8,38.19Zm19.91-3.64c0-.18.12-.23.15-.37-.11,0-.19.11-.3.15s0,.28.15.3c0,.18-.25,0-.3,0s.09-.16.08-.3-.13.07-.22.07c-.06.21.1.19.07.37h-.22a.49.49,0,0,1,.07-.37c-.22-.09-.32.31-.15.37-.17.29-.33-.21-.15-.3-.12,0-.13.07-.22.07-.06.21.1.19.07.37h-.22a.48.48,0,0,1,.07-.37c-.24-.06-.15.19-.3.22,0,.08.17.08.15.22h-.22c-.06-.48.31-.5.52-.52,0-.07-.06-.13-.15-.15s.23.11.3.15.07-.07.15-.07-.07-.13-.15-.15.23.11.3.15.07-.07.15-.07-.07-.07-.07-.15c-.2-.14.19.06.22.15.16-.2.13-.24.44-.15,0,.17-.16.32.07.37C28,34.73,27.76,34.57,27.71,34.55ZM6.31,33.14a.2.2,0,0,1-.12.13l0,.06C6.28,33.23,6.49,33.19,6.31,33.14Zm-.07.3c.06,0,.07,0,.07-.07a.07.07,0,0,1-.08,0A.11.11,0,0,0,6.24,33.43ZM3.34,10.1A5.8,5.8,0,0,0,4.83,10v-.3a9.54,9.54,0,0,1-1.63.3c-.34.33-.15.94-.3,1.41-.14-.32.08-.54-.22-.67.07.3-.53-.05-.3.22,0-.12.35,0,.3.22s-.18-.29-.22-.07c.26,0,0,.2.15.22s.06-.09.15-.07c-.15.26,0,0,.07.15-.15.17,0,.08.07.22s-.29,0-.3.15c.18,0,.36,0,.37.15s-.31-.22-.37,0c.26,0-.26.2,0,.22,0-.09.32-.26.37-.07-.27-.12-.5.41-.37.22.14,0,.14-.21.37-.15s-.05.15.07.3c-.27.14-.34,0-.45.3.18.25.33-.36.45-.15a.6.6,0,0,1-.3.37c.31,0,0,0,0,.15.31,0,0,0,0,.15.29,0,0,.56.37.59-.29.23.12.32-.15.45.09,0,.21,0,.22.07s0,.12-.15.22C3.64,18,4.65,25.23,5.42,29.94a.58.58,0,0,1,.52.37c-.2-.09-.33-.46-.52-.15a.77.77,0,0,1,.15.74c.16,0,.28.19.43.08l0,0a1.07,1.07,0,0,1-.33-.34c.19-.18.36.08.45.22-.11,0-.31-.32-.37-.15A.73.73,0,0,1,6,31l0,0H6c.13.26.13.55.31.73a5.1,5.1,0,0,1-.52-.67c-.14.43.53.65.74,1-.09,0-.17-.13-.22,0,.1.07.28.07.3.22-.39,0,.17.2-.07.22-.18-.2-.05-.38-.37-.52.07.39.26.49.52.82-.17,0-.2-.25-.37-.3-.06.12.13.49-.15.37.08,0,.18-.12.08-.15s-.12.18-.15.07c.25-.15.06-.06,0-.15s.32-.2.15-.22c0,.08-.12.18-.15.07s.18-.12.07-.15-.08.12-.15.15c0-.13.35-.23.15-.3,0,.08-.08.11-.15.15.32-.15-.12-.54-.22-.44.22.26.27,1.08.4,1.38A.67.67,0,0,1,6.46,33c-.08.34.21.76.07,1-.28-.05.05-.25-.22-.3-.15.24.3.41.45.59-.2.09-.1.12-.3.15.09.11.31.09.3.3-.19.1-.18-.34-.3-.07a1.5,1.5,0,0,1,.44.45c-.11.16-.18-.09-.22.08a4.05,4.05,0,0,1,.67,1.56,1,1,0,0,1,.15-.52c.06.36-.12.48-.07.82.34.09-.13-.31.15-.37.07.33.38.37.5.52C7.61,28.57,2.81,20.41,3.34,10.1ZM6.2,33.27v0l0,0Zm1.9,4.25a.27.27,0,0,0,0-.29C8.09,37.32,8.09,37.42,8.1,37.52ZM4.23,11.66c-.07,0-.09-.06-.15-.07.14.79-.11,1.41.15,2-.07-.83.36-2.2.3-3.19A1.32,1.32,0,0,0,4.23,11.66ZM17.9,16.42c.38,2.42,1.14,5.1,1.71,7.58,3.57-.59,7.41-1.55,10.92-2.45C30,18.89,29.68,16,28.6,13.82,25.16,14.8,21.2,15.28,17.9,16.42ZM19.39,22c-.35-1.86-.87-3.54-1.19-5.42a27.3,27.3,0,0,1,3.42-.82,7.52,7.52,0,0,0,.67,2.75,4.64,4.64,0,0,0-.52-2.75c.33-.06.61-.18,1-.22.86,1.6.95,4,1.56,5.8A29.94,29.94,0,0,1,19.39,22Zm10.55-.82A75.68,75.68,0,0,1,20,23.4a1.07,1.07,0,0,1-.08-1,32.9,32.9,0,0,0,4.53-.74c0-.08-.08-.54.37-.52-.59-.53-.4-1.83-.89-2.45a7.87,7.87,0,0,0,1.49-.37c0-1-.46-1.48-.45-2.38-.52.07-.94.25-1.49.3a2.29,2.29,0,0,1-.15-.82c.48-.14,1-.24,1.49-.37.91,1.52,1,3.83,1.56,5.72A3.6,3.6,0,0,0,28,20.36c0-.16-.18-.21-.15-.45a1,1,0,0,1-.74,0c0-.29,0-.23-.22-.52.28.07.42,0,.45.3.47.16.43-.47.3-.67-.53,0-.85.38-1.34.22a38.93,38.93,0,0,0-.82-4,.92.92,0,0,1,.67-.15c-.17,3,3.05,1.66,2.6,4.9-.22,0-.45,0-.52.22C28.88,20.15,30.17,20.08,29.94,21.17Zm0-1.56a.58.58,0,0,1-.59.45c-.35-1.09-.29-2.58-1-3.34,0-.19.11-.23.22-.3s-.28-.12-.37-.22.19-.15.22-.3-.28-.12-.37-.22c-.06-.25.3-.09.22-.37s-.33,0-.37-.15a.66.66,0,0,1,.3-.3c0-.18-.28-.16-.45-.22C29.46,13.45,29.13,18.26,29.94,19.61Z"/></g></g></svg>