<?xml version="1.0" encoding="UTF-8"?>
<!DOCTYPE svg PUBLIC "-//W3C//DTD SVG 1.1//EN" "http://www.w3.org/Graphics/SVG/1.1/DTD/svg11.dtd">
<!-- Creator: CorelDRAW 2017 -->
<svg xmlns="http://www.w3.org/2000/svg" xml:space="preserve" width="1772px" height="1427px" version="1.1" style="shape-rendering:geometricPrecision; text-rendering:geometricPrecision; image-rendering:optimizeQuality; fill-rule:evenodd; clip-rule:evenodd"
viewBox="0 0 884.63 712.7"
 xmlns:xlink="http://www.w3.org/1999/xlink">
 <defs>
  <style type="text/css">
   <![CDATA[
    .fil0 {fill:#292525;fill-rule:nonzero}
   ]]>
  </style>
 </defs>
 <g id="Слой_x0020_1">
  <metadata id="CorelCorpID_0Corel-Layer"/>
  <path class="fil0" d="M551.44 91.79l32.82 5.04c1.54,0.23 2.99,0.88 4.19,1.87l33.41 27.5c2.01,1.64 3.16,4.1 3.16,6.69l0 90.69c0,0.75 -0.1,1.51 -0.3,2.24 -3.76,14.11 -19.44,26.48 -33.55,26.48l-0.32 0c-8.62,0 -16.7,-3.33 -22.75,-9.39 -8.97,-8.98 -25.24,-25.25 -39.57,-39.57 -19.07,-19.08 -54.63,-33.51 -79.27,-32.2 -5.62,0.3 -13.1,1.62 -16.75,6.15 -0.19,0.24 -0.4,0.47 -0.62,0.69 -1.84,1.84 -6.82,6.83 -0.46,16.33l59.97 60.93 39.04 39.04c0.24,0.24 0.46,0.49 0.67,0.75l32.14 40.65c12.08,15.27 28.19,26.68 46.56,32.98l63.33 21.33c9.07,2.66 17.39,7.6 24.07,14.28l5.43 5.43 48.52 -48.52 48.54 -48.54 -38.17 -38.17c-0.62,-0.62 -1.14,-1.33 -1.55,-2.1 -12.97,-24.73 -31.17,-87.34 -40.87,-122.46 -3.77,-13.66 -11.52,-25.64 -22.42,-34.66l-84.79 -70.14c-7.4,-6.12 -17.1,-8.98 -26.64,-7.83 -8.59,1.03 -41.51,4.8 -63.01,7.27 12.91,13.78 22.7,29.63 29.19,47.24zm-133.19 -91.79l2.69 0c30.54,0.29 60.06,10.45 84.24,29.06l6.64 -0.76c19.99,-2.3 61.59,-7.07 71.38,-8.24 14.22,-1.7 28.71,2.56 39.75,11.69l84.79 70.15c13.65,11.29 23.37,26.3 28.09,43.4 9.36,33.9 26.72,93.77 38.92,117.87l37.21 37.21 2.45 -2.45c3.91,-3.91 9.1,-6.06 14.62,-6.06 5.53,0 10.72,2.15 14.62,6.06l34.93 34.93c4.03,4.03 6.05,9.32 6.05,14.62 0,5.29 -2.02,10.58 -6.05,14.62l-9.26 9.26 -12.26 -12.26 9.26 -9.27c0.85,-0.85 0.98,-1.84 0.98,-2.35 0,-0.52 -0.13,-1.51 -0.98,-2.36l-34.93 -34.93c-0.85,-0.85 -1.84,-0.98 -2.36,-0.98 -0.51,0 -1.51,0.13 -2.36,0.98l-8.57 8.57c-0.01,0.01 -0.01,0.01 -0.01,0.01l-54.67 54.67 -63.27 63.27c-0.85,0.85 -0.98,1.85 -0.98,2.36 0,0.52 0.13,1.51 0.98,2.36l34.93 34.93c0.85,0.86 1.84,0.98 2.36,0.98 0.51,0 1.51,-0.12 2.36,-0.98l117.26 -117.26 12.26 12.26 -117.26 117.26c-4.03,4.04 -9.33,6.05 -14.62,6.05 -5.3,0 -10.59,-2.01 -14.62,-6.05l-34.93 -34.93c-3.91,-3.9 -6.06,-9.09 -6.06,-14.62 0,-5.52 2.15,-10.71 6.06,-14.62l2.49 -2.49 -5.43 -5.43c-4.67,-4.67 -10.48,-8.1 -16.82,-9.94 -0.12,-0.04 -0.24,-0.07 -0.36,-0.11l-63.54 -21.4c-21.57,-7.4 -40.44,-20.76 -54.58,-38.64l-31.82 -40.25 -84.95 -84.95c-18.24,-22.72 -23.65,-41.43 -13.5,-55.27 6.1,-7.25 16.09,-11.45 28.95,-12.14 29.39,-1.6 70,14.78 92.46,37.25 14.33,14.33 30.6,30.6 39.57,39.57 2.78,2.79 6.5,4.32 10.48,4.32l0.33 0c5.98,0 14.24,-6.47 16.51,-12.69l0 -85.29 -28.4 -23.38 -22.46 -3.45c4.41,19.99 4.43,40.8 -0.03,60.9 -0.89,4.05 -4.47,6.8 -8.45,6.8 -0.62,0 -1.25,-0.07 -1.88,-0.21 -4.68,-1.03 -7.63,-5.66 -6.59,-10.33 4.75,-21.48 3.7,-43.87 -3.05,-64.76 -0.03,-0.07 -0.04,-0.15 -0.07,-0.22 -0.01,-0.03 -0.02,-0.05 -0.03,-0.08 -6.04,-18.53 -16.14,-34.96 -30.01,-48.83 -2.95,-2.95 -6.08,-5.78 -9.32,-8.42 -0.06,-0.05 -0.13,-0.11 -0.2,-0.17 -0.01,-0.01 -0.02,-0.02 -0.04,-0.03 -23.51,-19.1 -53.2,-28.81 -83.61,-27.33 -30.61,1.49 -59.41,14.26 -81.1,35.95 -23.28,23.27 -36.1,54.22 -36.1,87.13 0,32.92 12.82,63.86 36.1,87.14 30.68,30.68 75.89,43.02 117.97,32.19 4.63,-1.2 9.36,1.59 10.56,6.23 1.19,4.64 -1.6,9.36 -6.24,10.56 -11.51,2.96 -23.34,4.44 -35.16,4.44 -12.08,0 -24.16,-1.54 -35.89,-4.63 -23.95,-6.3 -45.91,-18.93 -63.51,-36.53 -26.54,-26.56 -41.16,-61.86 -41.16,-99.41 0,-37.54 14.62,-72.84 41.17,-99.39 24.74,-24.74 57.6,-39.3 92.52,-41 1.85,-0.09 3.7,-0.14 5.55,-0.16z"/>
  <path class="fil0" d="M530.55 556.34c-21.49,14.81 -69.59,48.77 -116.14,79.01 -23.26,15.11 -46.13,29.27 -64.89,39.54 -9.37,5.13 -17.73,9.28 -24.41,12.06 -3.33,1.38 -6.25,2.42 -8.57,3.07 -2.3,0.65 -4.03,0.87 -4.67,0.86 -2.04,0.02 -7.44,-0.52 -14.38,-1.56 -24.57,-3.6 -70.57,-12.78 -110.18,-21.05 -19.82,-4.13 -38.08,-8.04 -51.39,-10.91 -7.72,-1.66 -13.69,-2.97 -17.41,-3.77l0 -120.02c1.83,-0.51 4.23,-1.16 7.1,-1.94 9.86,-2.68 24.91,-6.69 38.41,-10.01 6.75,-1.67 13.11,-3.15 18.17,-4.21 2.52,-0.52 4.72,-0.94 6.41,-1.21 1.66,-0.27 2.95,-0.37 2.97,-0.35 0.03,-0.01 1.01,0.05 2.34,0.26 5.17,0.77 15.75,3.25 28.64,6.62 38.86,10.15 100.12,28.5 124.87,36.01 8.56,2.58 16.32,6.48 21.41,11.2 2.56,2.36 4.48,4.88 5.77,7.6 1.29,2.74 2.02,5.7 2.03,9.33 -0.01,7.34 -2.95,13.9 -7.76,18.72 -4.78,4.76 -11.26,7.67 -18.51,7.74l-24.14 -2.36 -82.4 -10.58c-5.13,-0.65 -9.82,2.96 -10.48,8.09 -0.66,5.13 2.97,9.81 8.09,10.47l82.67 10.61 25.58 2.51 0.47 0c24.95,-0.01 45.18,-20.24 45.19,-45.2 0.02,-6.28 -1.38,-12.19 -3.84,-17.36 -3.71,-7.79 -9.68,-13.82 -16.43,-18.41 -6.77,-4.6 -14.42,-7.88 -22.2,-10.25 -4.34,-1.32 -9.81,-2.98 -16.06,-4.86l50.77 -31.1c3.3,-1.62 6.67,-2.54 10.23,-2.55 6.05,-0.01 11.52,2.34 15.65,6.13l-25.09 14.88c-4.44,2.63 -5.91,8.38 -3.27,12.82 2.64,4.44 8.38,5.91 12.83,3.27l58.23 -34.53c3.31,-1.64 6.7,-2.57 10.28,-2.57 6.46,0 12.26,2.69 16.47,6.95l-67.8 40.21c-4.45,2.64 -5.91,8.38 -3.27,12.83 2.64,4.44 8.37,5.9 12.82,3.27l73.32 -43.49c0.71,-0.12 1.43,-0.3 2.13,-0.59 1.5,-0.64 2.73,-1.65 3.67,-2.85l2.29 -1.36c3.31,-1.64 6.7,-2.56 10.27,-2.56 6.44,0 12.19,2.59 16.42,6.8 4.22,4.24 6.8,10 6.81,16.43 -0.03,7.84 -3.63,14.69 -9.02,18.36zm-430.75 131.41c0,3.38 -2.86,6.24 -6.24,6.24l-68.61 0c-3.38,0 -6.24,-2.86 -6.24,-6.24l0 -193.36c0,-3.38 2.86,-6.24 6.24,-6.24l68.61 0c3.38,0 6.24,2.86 6.24,6.24l0 193.36zm416.51 -191.71c-6.16,0 -11.85,1.5 -16.89,3.76 -7.67,-9.81 -19.58,-16.16 -33.01,-16.17 -6.93,0 -13.31,1.84 -18.79,4.6l-0.58 0.32 -17.14 10.16c-7.68,-9.19 -19.19,-15.07 -32.1,-15.08 -6.94,0 -13.32,1.84 -18.8,4.6l-0.69 0.39 -65.62 40.19c-14.82,-4.38 -31.28,-9.18 -47.18,-13.69 -16.77,-4.76 -32.9,-9.18 -45.83,-12.45 -6.47,-1.63 -12.14,-2.97 -16.77,-3.93 -2.32,-0.48 -4.37,-0.86 -6.2,-1.14 -1.85,-0.27 -3.4,-0.46 -5.15,-0.47 -1.34,0.01 -2.51,0.12 -3.84,0.29 -4.83,0.63 -11.71,2.1 -19.82,4.01 -16.56,3.89 -37.71,9.55 -49.39,12.73l0 -19.77c0,-13.72 -11.23,-24.95 -24.95,-24.95l-68.61 0c-13.72,0 -24.95,11.23 -24.95,24.95l0 193.36c0,13.72 11.23,24.95 24.95,24.95l68.61 0c13.72,0 24.95,-11.23 24.95,-24.95l0 -15.01c14.81,3.22 47.67,10.32 82.32,17.44 23.44,4.81 47.66,9.62 67.66,13.25 10.01,1.82 18.96,3.33 26.28,4.41 7.4,1.06 12.9,1.72 17.1,1.75 3.27,-0.01 6.36,-0.63 9.71,-1.55 6.22,-1.76 13.29,-4.73 21.4,-8.67 28.2,-13.75 68.69,-39.5 106.9,-64.99 38.13,-25.45 73.81,-50.59 91.28,-62.62 10.94,-7.55 17.09,-20.29 17.09,-33.77 -0.01,-23.16 -18.77,-41.94 -41.94,-41.95z"/>
 </g>
</svg>
