<svg version="1.1" id="Слой_1" xmlns="http://www.w3.org/2000/svg" xmlns:xlink="http://www.w3.org/1999/xlink" x="0px" y="0px"
	 viewBox="0 0 101 81" style="enable-background:new 0 0 101 81;" xml:space="preserve">
<style type="text/css">
	.st0{fill:none;stroke:#BA9241;stroke-linecap:round;stroke-linejoin:round;}
</style>
<g id="Слой_2_1_">
	<g id="Слой_1-2">
		<path class="st0" d="M99.8,42.7"/>
		<path class="st0" d="M57.9,4.4L57.9,4.4l0.9-0.1l1.6-0.2c2.4-0.3,5.7-0.7,6.6-0.8c0.2,0,0.4,0,0.6,0c1.1,0,2.3,0.4,3.1,1.1
			l9.8,8.1c1.4,1.1,2.4,2.7,2.9,4.4c1.3,4.8,3.2,11.1,4.6,13.8c0.1,0.1,0.1,0.2,0.2,0.3l4.3,4.3c0.4,0.4,1.2,0.4,1.6,0l0,0l0.3-0.3
			c0.2-0.2,0.5-0.4,0.9-0.4c0.3,0,0.6,0.1,0.9,0.4l4,4c0.5,0.5,0.5,1.3,0,1.7L99,41.9L85.5,55.4c-0.5,0.5-1.3,0.5-1.7,0l-4-4
			c-0.2-0.2-0.4-0.5-0.4-0.9c0-0.3,0.1-0.6,0.4-0.9l0.2-0.3c0.4-0.4,0.4-1.2,0-1.6l0,0l-0.6-0.6c-0.7-0.7-1.5-1.2-2.4-1.4l0,0
			l-7.3-2.5c-2.3-0.8-4.3-2.2-5.8-4.1l-3.7-4.6l-0.1-0.1l-9.7-9.8c-1.7-2.2-2.3-3.8-1.5-4.9c0.5-0.6,1.4-0.9,2.5-1
			c0.1,0,0.3,0,0.4,0c3,0,7.1,1.7,9.4,4l4.6,4.6c0.5,0.5,1.3,0.8,2,0.8l0,0c1.2,0,2.5-1,3-2.2c0-0.1,0.1-0.3,0.1-0.4v-9.8
			c0-0.3-0.2-0.7-0.4-0.9l-3.3-2.7c-0.2-0.1-0.4-0.2-0.6-0.2L64,11.4c-0.1,0-0.1,0-0.2,0"/>
		<path class="st0" d="M36.5,61.8l7.3-4.6l0,0c1.5-0.8,3.4-0.4,4.4,0.9c0.4,0.4,1,0.5,1.5,0.3l2-1.2l0,0c1.6-0.8,3.5-0.4,4.5,1
			c0.3,0.4,0.9,0.6,1.4,0.3c0.5-0.2,1-0.3,1.5-0.3c2,0,3.7,1.7,3.7,3.7c0,1.2-0.6,2.3-1.5,2.9c-0.5,0.3-1.1,0.8-1.8,1.3
			c-2.3,1.6-5.4,3.7-8.7,5.9c-5.5,3.7-9.5,6.1-12.2,7.4c-0.9,0.5-1.7,0.8-2.3,0.9c-0.3,0.1-0.6,0.1-0.8,0.1c-0.4,0-1-0.1-1.8-0.2
			s-1.8-0.3-3-0.5c-2-0.4-4.7-0.9-7.8-1.5c-3.6-0.7-7.2-1.5-9.5-2c-0.6-0.1-1.2,0.3-1.4,0.9c0,0.1,0,0.2,0,0.2V79
			c0,1-0.8,1.7-1.7,1.7H2.5c-1,0-1.7-0.8-1.7-1.7V56.9c0-1,0.8-1.7,1.7-1.7h7.9c1,0,1.7,0.8,1.7,1.7v2.3c0,0.6,0.5,1.2,1.2,1.2
			c0.1,0,0.2,0,0.3,0c1.3-0.4,3.7-1,5.7-1.5c0.6-0.2,1.6-0.4,2.2-0.4c0.1,0,0.2,0,0.3,0c0.1,0,0.3,0,0.4,0c0.2,0,0.4,0.1,0.7,0.1
			c0.5,0.1,1.1,0.2,1.9,0.4c1.4,0.3,3.1,0.8,5.2,1.4c1.6,0.5,3.5,1,5.4,1.6c2,0.6,3.6,1.1,4.5,1.3c0.8,0.3,2,0.7,2.9,1.5
			c0.4,0.3,0.7,0.8,0.9,1.2c0.2,0.5,0.4,1,0.3,1.6c0,2.3-1.9,4.2-4.2,4.2l0,0h-0.1L37,71.5l0,0l-9.6-1.2"/>
		<line class="st0" x1="94" y1="35.3" x2="80" y2="49.3"/>
		<path class="st0" d="M63,19.4c0.2-1.1,0.4-2.2,0.4-3.3c0-8.5-6.8-15.3-15.3-15.3S32.7,7.7,32.7,16.2S39.6,31.5,48,31.5
			c1.2,0,2.5-0.1,3.7-0.4"/>
		<line class="st0" x1="12.2" y1="59.1" x2="12.2" y2="77.4"/>
		<line class="st0" x1="49.2" y1="58.5" x2="44" y2="61.7"/>
		<line class="st0" x1="57.2" y1="58.6" x2="47.1" y2="64.7"/>
	</g>
</g>
</svg>
