<svg version="1.1" id="Capa_1" xmlns="http://www.w3.org/2000/svg" xmlns:xlink="http://www.w3.org/1999/xlink" x="0px" y="0px"
	 viewBox="0 0 512 512" style="enable-background:new 0 0 512 512;" xml:space="preserve">
<g>
	<path class="st0" d="M447.4,104.7c-48.2-36.2-112.2-56.1-180.1-56.1s-132,20-180.2,56.1c-48.9,36.7-75.9,85.7-75.9,138
		c0,55.3,30.8,107.6,84.9,144.4C83,420,65.6,450.6,65.4,450.9c-1.7,3-1.4,6.7,0.8,9.3c1.6,2,4,3.1,6.4,3.1c0.9,0,1.7-0.1,2.6-0.4
		c2.2-0.7,52.2-17.1,91.2-41.8c32,10.4,65.9,15.7,100.9,15.7c67.9,0,131.9-19.9,180.1-56.1c48.9-36.7,75.9-85.7,75.9-138
		C523.2,190.4,496.3,141.4,447.4,104.7z M267.2,420.2c-34.6,0-68-5.4-99.4-16.1c-2.4-0.8-5.1-0.5-7.2,0.9
		c-23,15.1-51.6,27.4-70.4,34.8c7-13.7,16.3-33.1,23.9-53c1.4-3.7,0-7.8-3.3-9.9c-52.7-33.8-82.9-82.7-82.9-134.2
		c0-97.9,107.4-177.5,239.4-177.5s239.4,79.6,239.4,177.5S399.2,420.2,267.2,420.2z"/>
</g>
<g class="st1">
	<path class="st0" d="M285.7,236.3c7.2-4.4,8.7-11.5,11-17.8c2.2-6.4,3.4-13.6,3.4-21.7c0-17-3.5-29.6-10.5-37.9
		s-16.6-12.4-28.9-12.4c-5.4,0-10.6,0.8-15.6,2.3c-5,1.6-8.9,4.2-11.9,7.8c3.6,0.7,6.4,2.4,8.6,4.9c2.1,2.5,3.2,5.7,3.2,9.5
		c0,4.6-1.5,8.2-4.5,11c-3,2.7-6.7,4.1-11,4.1s-7.8-1.4-10.6-4.2s-4.2-6.3-4.2-10.6c0-7.6,4.4-14.4,13.2-20.3
		c9.9-6.8,22.6-10.1,38.1-10.1c11.7,0,22,2,30.9,6.1s15.8,9.9,20.7,17.6c4.9,7.6,7.4,16.6,7.4,26.9c0,15.4-5.6,28.3-16.9,38.9
		c-11.2,10.6-26.7,18.4-46.2,23.4v41h-10.6v-46.6C263.4,245.1,268.3,247,285.7,236.3z M265.2,330.9c2.8,1.6,5,3.8,6.6,6.6
		c1.6,2.8,2.4,5.8,2.4,9s-0.8,6.2-2.4,8.9c-1.6,2.7-3.8,4.9-6.6,6.6c-2.8,1.6-5.8,2.5-9,2.5c-3.2,0-6.2-0.8-9-2.5
		c-2.8-1.6-5-3.8-6.6-6.6c-1.6-2.7-2.4-5.7-2.4-8.9c0-3.2,0.8-6.2,2.4-9c1.6-2.8,3.8-5,6.6-6.6s5.8-2.4,9-2.4
		C259.5,328.5,262.5,329.3,265.2,330.9z"/>
</g>
</svg>