<?xml version="1.0" standalone="no"?>
<!DOCTYPE svg PUBLIC "-//W3C//DTD SVG 1.1//EN" "http://www.w3.org/Graphics/SVG/1.1/DTD/svg11.dtd" >
<svg xmlns="http://www.w3.org/2000/svg" xmlns:xlink="http://www.w3.org/1999/xlink" version="1.1">
<metadata>
Created by FontForge 20170910 at Wed Aug 27 19:43:55 1997
 By Jimmy Wärting
a_AntiqueTitulGraved *Arsenal Company (c) 1996*  FAX: (095)924-3775; e-Mail: arsenal@itco.msk.su; Phone: (095)924-5811 (Design and Featuring W.Chufarofsky)
</metadata>
<defs>
<font id="AAntiqueTitulGr" horiz-adv-x="746" >
  <font-face 
    font-family="a_AntiqueTitulGr"
    font-weight="400"
    font-stretch="normal"
    units-per-em="1000"
    panose-1="4 2 6 5 6 3 3 3 2 7"
    ascent="800"
    descent="-200"
    x-height="706"
    cap-height="706"
    bbox="-6 -247 1433 928"
    underline-thickness="45"
    underline-position="-172"
    unicode-range="U+0020-2122"
  />
<missing-glyph horiz-adv-x="500" 
d="M63 0v928h375v-928h-375zM125 63h250v803h-250v-803z" />
    <glyph glyph-name=".notdef" horiz-adv-x="500" 
d="M63 0v928h375v-928h-375zM125 63h250v803h-250v-803z" />
    <glyph glyph-name=".null" horiz-adv-x="0" 
 />
    <glyph glyph-name="nonmarkingreturn" horiz-adv-x="244" 
 />
    <glyph glyph-name="space" unicode=" " horiz-adv-x="244" 
 />
    <glyph glyph-name="exclam" unicode="!" horiz-adv-x="246" 
d="M186 632q0 -32 -7 -78l-12 -78q-2 -16 -30 -270h-29l-29 276q0 4 -9 69q-6 41 -6 69q0 99 62 99q60 0 60 -87zM188 50q0 -26 -18.5 -45t-44.5 -19t-43.5 19t-17.5 45t17.5 45t43.5 19t44.5 -19t18.5 -45zM142 698q-5 4 -15 4q-21 0 -33.5 -21.5t-12.5 -43.5
q0 -10 10 -103l27 -250h5q5 55 5 76q0 46 -8 138.5t-8 138.5q0 49 30 61zM133 8q-18 22 -18 46q0 23 18 41h-8q-19 0 -32 -13t-13 -32t12.5 -31t31.5 -12q6 0 9 1z" />
    <glyph glyph-name="quotedbl" unicode="&#x22;" horiz-adv-x="448" 
d="M404 591q0 -135 -142 -195v32q69 33 69 89q0 14 -41 73.5t-41 71.5q0 24 19.5 40.5t43.5 16.5q41 0 68 -45q24 -40 24 -83zM200 591q0 -133 -140 -195v32q69 34 69 89q0 13 -41.5 73t-41.5 72q0 24 19 40.5t43 16.5q43 0 69 -44q23 -38 23 -84zM364 549q0 29 -33.5 68
t-33.5 56q0 10 19 29h-11q-17 0 -28.5 -11.5t-11.5 -28.5q0 -15 41 -67.5t41 -73.5q0 -43 -12 -50q13 2 22 34q7 26 7 44zM162 549q0 17 -34 64t-34 57q0 21 20 32h-12q-40 0 -40 -40q0 -13 42 -69.5t42 -74.5q0 -8 -14 -47q30 39 30 78z" />
    <glyph glyph-name="numbersign" unicode="#" horiz-adv-x="537" 
d="M514 430h-113l-22 -162h103l4 -40h-113l-32 -228h-45l32 228h-145l-32 -228h-45l32 228h-112l-4 40h122l22 162h-112l-4 40h122l32 228h45l-32 -228h145l32 228h44l-31 -228h103zM356 430h-145l-20 -162h143z" />
    <glyph glyph-name="dollar" unicode="$" horiz-adv-x="522" 
d="M484 184q0 -155 -196 -194v-76h-58v76q-69 1 -124 32q-65 37 -65 101q0 22 13.5 36.5t35.5 14.5q39 0 55 -40q2 -7 5 -22q20 -83 80 -92v285q-176 99 -176 214q0 72 53 120q49 45 123 53v62h58v-62q86 -6 131.5 -46t45.5 -83q0 -20 -13.5 -34.5t-33.5 -14.5q-16 0 -32 13
t-22 46q-7 40 -15 53q-16 27 -61 36v-248q196 -109 196 -230zM450 562q-11 -5 -17 -5q-13 0 -40 38q-30 42 -35 45q9 -32 19 -64q16 -44 39 -44q28 0 34 30zM230 452v210q-92 -18 -92 -92q0 -59 92 -118zM432 150q0 103 -167 195q-83 46 -114 74q-55 51 -55 119q0 58 54 112
q-80 -50 -80 -130q0 -59 45 -111q34 -39 102 -81q53 -32 107 -64q82 -52 82 -135q0 -26 -11 -53q-13 -31 -33 -40q31 14 50.5 47t19.5 67zM390 130q0 45 -32 82q-21 25 -70 58v-248q44 7 73 35.5t29 72.5zM133 24q-48 52 -48 84q0 15 11.5 23.5t26.5 6.5q-15 18 -33 18
q-32 0 -32 -34q0 -53 75 -98z" />
    <glyph glyph-name="percent" unicode="%" horiz-adv-x="972" 
d="M945 176q0 -89 -61 -140q-57 -48 -147 -48q-92 0 -148 47q-60 50 -60 141q0 88 59 139q55 48 145 48q91 0 149 -47q63 -51 63 -140zM744 732l-467 -742h-54l468 742h53zM443 545q0 -89 -61 -140q-57 -48 -147 -48q-92 0 -148 47q-60 50 -60 141q0 88 59 139q55 48 145 48
q91 0 149 -47q63 -51 63 -140zM867 174q0 126 -81 161h-3q25 0 41 -69q12 -52 12 -92q0 -110 -54 -158h3q37 0 62 63q20 50 20 95zM819 170q0 165 -82 165q-80 0 -80 -159q0 -160 80 -160q82 0 82 154zM365 543q0 126 -81 161h-3q25 0 41 -69q12 -52 12 -92q0 -110 -54 -158
h3q37 0 62 63q20 50 20 95zM695 344h-8q-5 0 -18 -4q-60 -18 -90 -58q-34 -45 -34 -104q0 -98 78 -149q28 -18 57 -18q-41 0 -73 64q-27 54 -27 101q0 116 115 168zM317 539q0 165 -82 165q-80 0 -80 -159q0 -160 80 -160q82 0 82 154zM193 713h-8q-4 0 -18 -4
q-57 -17 -90.5 -60t-33.5 -102q0 -98 78 -149q28 -18 57 -18q-41 0 -73 64q-27 54 -27 101q0 119 115 168z" />
    <glyph glyph-name="ampersand" unicode="&#x26;" 
d="M736 427q-57 -9 -104 -60q-28 -29 -72 -100q-29 -47 -45 -71q17 -26 64 -89q5 -8 17 -22q18 -17 40 -17q39 0 72 60l24 -12q-52 -130 -150 -130q-80 0 -147 114q-113 -114 -230 -114q-69 0 -121 49.5t-52 118.5q0 50 23 89q21 35 71 82q46 44 85 68q-82 88 -82 141
t76 119t130 66q45 0 83 -37.5t38 -82.5q0 -44 -48 -88q-3 -3 -84 -63q88 -97 172 -225q74 98 74 145q0 28 -24 45q-21 14 -50 14v27h240v-27zM656 427h-104q35 -17 35 -57q14 7 36.5 28.5t32.5 28.5zM398 584q0 32 -31.5 63t-63.5 31q-1 0 -15 -5t-23 -5q31 0 63 -29
q28 -25 44 -57q9 -18 9 -28q0 -13 3 -13q4 0 9 18t5 25zM364 547q0 29 -33.5 67t-62.5 38q-22 0 -41 -16.5t-19 -38.5q0 -39 96 -128q60 43 60 78zM666 38q-27 -12 -50 -12q-55 0 -102 50q-24 26 -51 67q-22 35 -45 71q-20 30 -92 108q-78 86 -108 127q-53 71 -53 113v-1
q1 10 2.5 22t8.5 17q-13 -7 -21.5 -29t-8.5 -39q0 -40 52 -110q30 -42 107 -126q70 -78 89 -106q31 -46 96 -136q41 -50 96 -50q43 0 80 34zM418 124q-110 165 -188 246q-92 -80 -92 -148q0 -61 47.5 -111.5t107.5 -50.5q70 0 125 64zM247 7q-76 11 -121 55q-50 48 -50 122
q0 36 30 96q-58 -58 -58 -122q0 -61 46.5 -107.5t107.5 -46.5q21 0 45 3z" />
    <glyph glyph-name="quotesingle" unicode="'" horiz-adv-x="246" 
d="M200 591q0 -133 -140 -195v32q68 35 68 89q0 12 -41 73t-41 72q0 24 19 40.5t43 16.5q43 0 69 -44q23 -38 23 -84zM162 549q0 17 -34 64t-34 57q0 21 20 32h-12q-40 0 -40 -43q0 -11 41 -65t41 -73q0 -15 -12 -50q30 39 30 78z" />
    <glyph glyph-name="parenleft" unicode="(" horiz-adv-x="331" 
d="M306 -225l-18 -21q-115 65 -184 204q-64 128 -64 269q0 257 145 405q38 39 103 88l18 -19q-77 -71 -113 -212q-29 -111 -29 -244q0 -301 142 -470zM256 675h-2q-98 -77 -150 -201q-48 -114 -48 -247q0 -124 52 -238t146 -195v3q-164 209 -164 434q0 120 43 237
q44 122 123 207z" />
    <glyph glyph-name="parenright" unicode=")" horiz-adv-x="331" 
d="M291 244q0 -146 -63 -279q-68 -147 -186 -212l-18 21q141 158 141 454q0 153 -26 251q-31 121 -115 223l23 18q244 -166 244 -476zM214 248q0 297 -136 410q103 -134 103 -432q0 -243 -115 -422q86 85 121 205q27 95 27 239z" />
    <glyph glyph-name="asterisk" unicode="*" horiz-adv-x="480" 
d="M471 526q0 -67 -99 -67q-10 0 -30 2.5t-30 2.5q-31 0 -51 -4q69 -47 86 -61q57 -47 57 -79q0 -21 -16 -38t-37 -17q-40 0 -72 72q-7 16 -39 111l-17 -55q-19 -60 -29 -80q-26 -48 -63 -48q-22 0 -38.5 16.5t-16.5 38.5q0 35 55 80q15 12 86 61q-12 3 -35 3
q-13 0 -39 -2.5t-39 -2.5q-95 0 -95 65q0 24 16.5 40t40.5 16q35 0 138 -75q8 -6 24 -17q0 24 -22 80.5t-22 80.5t14.5 42.5t37.5 18.5q26 0 42 -18t16 -45q0 -32 -14 -67q-17 -42 -28 -92q7 3 29 18q106 74 137 74q22 0 37.5 -16t15.5 -38zM454 530q-5 32 -38 32
q-19 0 -78 -35q-40 -25 -80 -49v-5q22 3 90 33q65 28 83 28q14 0 23 -4zM249 692h-11q-38 0 -38 -49q0 -27 17 -78t17 -77h6q4 12 4 32t-6 60t-6 60q0 33 17 52zM387 320q0 29 -111 116q-8 6 -23 20l-4 -2l70 -78q45 -51 45 -88q23 12 23 32zM222 473v5q-169 38 -190 66
q-6 -9 -6 -18q0 -47 76 -47q11 0 32 1.5t32 1.5q30 0 56 -9zM232 454l-4 2q-6 0 -49 -73q-44 -76 -79 -88q15 -13 29 -13q21 0 36.5 21t32 74.5t34.5 76.5z" />
    <glyph glyph-name="plus" unicode="+" horiz-adv-x="584" 
d="M519 300h-170v-174h-114v174h-170v60h170v174h114v-174h170v-60zM284 144v372h-33v-372h33z" />
    <glyph glyph-name="comma" unicode="," horiz-adv-x="246" 
d="M192 -8q0 -65 -41 -126t-102 -85v27q71 42 71 102q0 18 -33.5 74.5t-33.5 75.5q0 23 17 39.5t40 16.5q40 0 63 -44q19 -36 19 -80zM158 -58q0 14 -27.5 62t-27.5 60q0 17 26 28q-17 8 -21 8q-38 0 -38 -40q0 -16 33 -74.5t33 -75.5q0 -47 -16 -54q17 7 29 38q9 25 9 48z
" />
    <glyph glyph-name="hyphen" unicode="-" horiz-adv-x="384" 
d="M331 210h-278v97h278v-97zM314 227v32h-244v-32h244z" />
    <glyph glyph-name="hyphen" unicode="&#x2010;" horiz-adv-x="384" 
d="M331 210h-278v97h278v-97zM314 227v32h-244v-32h244z" />
    <glyph glyph-name="period" unicode="." horiz-adv-x="246" 
d="M188 50q0 -26 -18 -45t-44 -19t-44 19t-18 45t18 45t44 19t44 -19t18 -45zM136 8q-22 22 -22 44q0 10 7.5 25.5t7.5 16.5q0 2 -5 2q-18 0 -30.5 -13.5t-12.5 -31.5q0 -17 12.5 -30.5t29.5 -13.5h6q4 0 7 1z" />
    <glyph glyph-name="slash" unicode="/" horiz-adv-x="544" 
d="M486 712l-359 -730h-69l359 730h69z" />
    <glyph glyph-name="zero" unicode="0" horiz-adv-x="522" 
d="M500 351q0 -143 -48 -239q-62 -126 -190 -126q-94 0 -156 75q-52 64 -70 165q-10 55 -10 121q0 270 139 347q45 25 97 25q129 0 191 -127q47 -96 47 -241zM427 345q0 120 -15 187q-25 109 -94 155q20 -18 35 -45q38 -67 38 -301q0 -107 -8 -165q-14 -99 -55 -152
q64 44 86 146q13 61 13 175zM375 356q0 130 -13 198q-26 137 -102 137q-106 0 -106 -333q0 -182 26 -261q27 -83 83 -83q112 0 112 342zM184 18q-109 124 -109 329q0 222 109 337q-142 -76 -142 -338q0 -252 142 -328z" />
    <glyph glyph-name="one" unicode="1" horiz-adv-x="437" 
d="M366 0h-290v28q49 4 66 17q22 16 22 63v430q0 39 -26 55q-18 11 -62 15v37q121 7 176 74h26v-585q0 -65 12.5 -80.5t75.5 -25.5v-28zM213 116v424q0 82 -63 82q-15 0 -30 -4q37 -8 50 -33q10 -19 10 -61v-408q0 -35 -6 -51q-9 -22 -36 -37q45 2 61 23q14 18 14 65z" />
    <glyph glyph-name="two" unicode="2" horiz-adv-x="522" 
d="M496 162l-65 -162h-390v22l65 71q116 125 158 186q81 119 81 224q0 60 -32 101q-35 46 -93 46q-96 0 -129 -112h-31q46 181 216 181q76 0 132.5 -46t56.5 -121q0 -94 -66 -191q-46 -67 -138 -153q-59 -55 -107 -104h164q54 0 82 9q39 13 66 49h30zM396 511q0 68 -37 117
q-41 55 -106 55q-36 0 -67 -19q12 4 28 4q66 0 107 -47.5t41 -114.5q0 -102 -92 -242q126 124 126 247zM435 81q-43 -30 -109 -30h-189q-26 0 -35 -6q-5 -3 -25 -27h247q47 0 68 10q27 14 43 53z" />
    <glyph glyph-name="three" unicode="3" horiz-adv-x="522" 
d="M454 228q0 -97 -78 -169.5t-176 -72.5q-92 0 -131 65q-11 18 -11 34q0 20 15 35.5t35 15.5q23 0 65 -58t67 -58q51 0 80 52q23 43 23 99q0 138 -143 187q124 82 124 176q0 43 -29 72.5t-72 29.5q-64 0 -132 -83l-21 17q40 64 99 104q65 45 134 45q53 0 92 -35.5t39 -87.5
q0 -78 -116 -170q62 -23 99 -77t37 -121zM364 562q0 48 -31 79.5t-79 31.5q-57 0 -85 -34q13 15 57 15q50 0 82 -35.5t32 -86.5q0 -35 -22 -78q46 52 46 108zM388 194q0 50 -27.5 98.5t-69.5 74.5q-21 13 -32 13q-6 0 -27 -18q128 -63 128 -191q0 -54 -26 -109q54 56 54 132
zM140 102q-23 17 -32 17q-14 0 -24 -11.5t-10 -25.5q0 -33 52 -66q-22 40 -22 54q0 32 36 32z" />
    <glyph glyph-name="four" unicode="4" horiz-adv-x="522" 
d="M509 236h-149v-250h-114v250h-228v34l319 449h23v-435h149v-48zM295 4v608l-33 -47v-561h33zM246 284v258l-182 -258h182z" />
    <glyph glyph-name="five" unicode="5" horiz-adv-x="522" 
d="M461 220q0 -101 -73.5 -167.5t-175.5 -66.5q-69 0 -111.5 29.5t-42.5 66.5q0 20 14 34t34 14q28 0 48 -29l34 -52q23 -29 58 -29q53 0 89 43q33 41 33 95q0 80 -59 128q-54 45 -136 45q-32 0 -57 -5l21 349q35 7 93 7q19 0 56 -1t56 -1q51 0 63.5 7t15.5 32h25v-11
q0 -69 -15 -99q-22 -44 -84 -44q-18 0 -54.5 2.5t-54.5 2.5q-42 0 -75 -6l-11 -118q16 2 40 2q65 0 110 -15q73 -24 116 -80.5t43 -132.5zM412 632q-36 -16 -79 -16q-20 0 -60.5 2t-60.5 2q-32 0 -49 -4v-32q23 3 55 3q20 0 59 -2.5t59 -2.5q70 0 76 50zM408 186
q0 83 -72 140q-66 53 -152 53q-20 0 -36 -2v-29q71 0 112 -15q56 -21 90 -67t34 -105q0 -27 -10 -62q-12 -44 -29 -51q27 10 46 60q17 43 17 78zM148 9q-42 42 -42 63q0 22 27 30q-13 10 -29 10q-29 0 -29 -32q0 -44 73 -71z" />
    <glyph glyph-name="six" unicode="6" horiz-adv-x="522" 
d="M503 226q0 -102 -65 -171t-166 -69q-117 0 -183 95q-59 83 -59 205q0 84 20 151q34 115 141 197.5t226 84.5v-30q-97 -18 -165 -100q-61 -73 -82 -177q58 40 121 40q93 0 154 -67q58 -65 58 -159zM423 221q0 187 -139 205q65 -24 89 -88q17 -45 17 -128q0 -133 -60 -188
q93 45 93 199zM332 690q-63 -19 -107 -47q-48 -30 -91 -85q-87 -111 -87 -263q0 -142 75 -229q21 -25 37 -35q10 -6 53 -23q-132 93 -132 285q0 130 67 235.5t185 161.5zM374 216q0 198 -118 198q-102 0 -102 -185q0 -105 32 -158q34 -57 84 -57q43 0 73.5 50t30.5 152z" />
    <glyph glyph-name="seven" unicode="7" horiz-adv-x="522" 
d="M490 678q-85 -183 -142 -373q-29 -99 -56 -177q-7 -22 -25 -65q-37 -77 -71 -77q-32 0 -32 34q0 27 18 63q16 30 32 59q24 47 84 180q40 89 110 246h-224q-57 0 -79 -14.5t-45 -65.5h-30l84 231h28q5 -30 37 -38q13 -3 57 -3h254zM433 616h-245q-3 0 -8.5 1t-8.5 1
q-59 0 -84 -54q37 20 80 20h201q31 0 39 3q12 5 26 29z" />
    <glyph glyph-name="eight" unicode="8" horiz-adv-x="522" 
d="M486 184q0 -88 -73 -144q-67 -52 -157 -52q-82 0 -143 46q-67 50 -67 130q0 106 146 183q-130 90 -130 189q0 79 59 131t139 52q75 0 130 -45q60 -48 60 -121q0 -89 -120 -153q156 -97 156 -216zM384 563q0 56 -35 92t-91 36q-45 0 -78 -24q-36 -26 -36 -70
q0 -56 56 -106q25 -22 104 -71q44 30 62 61t18 82zM433 150q0 76 -87 147q-80 58 -161 116q-87 70 -87 144q0 42 30 95q-50 -50 -50 -120q0 -75 86 -143l158 -112q86 -68 86 -141q0 -57 -54 -108q79 42 79 122zM392 132q0 63 -61 118q-18 15 -114 78q-97 -58 -97 -164
q0 -66 38 -107t104 -41q52 0 91 32.5t39 83.5z" />
    <glyph glyph-name="nine" unicode="9" horiz-adv-x="522" 
d="M495 406q0 -92 -33 -169q-48 -112 -141 -180q-97 -71 -216 -71v28q107 22 169 101q51 66 79 184q-53 -41 -130 -41q-70 0 -124.5 43.5t-70.5 111.5q-7 30 -7 69q0 101 64.5 169t165.5 68q118 0 185 -101q59 -88 59 -212zM371 477q0 104 -35 159t-83 55q-44 0 -74 -50
t-30 -155q0 -75 21 -125q29 -70 93 -70q108 0 108 186zM421 438q0 197 -104 245q70 -70 70 -220q0 -295 -163 -416q197 83 197 391zM185 276q-116 71 -116 208q0 123 104 206q-136 -57 -136 -211q0 -46 16 -87q19 -49 49 -74.5t83 -41.5z" />
    <glyph glyph-name="colon" unicode=":" horiz-adv-x="246" 
d="M188 370q0 -26 -18 -44t-44 -18t-44 18t-18 44t18 43.5t44 17.5t44 -17.5t18 -43.5zM188 50q0 -26 -18 -45t-44 -19t-44 19t-18 45t18 45t44 19t44 -19t18 -45zM136 326q-22 23 -22 44q0 8 7.5 23t7.5 18t-5 3q-18 0 -30.5 -14t-12.5 -32q0 -17 12.5 -29.5t29.5 -12.5h13
zM136 8q-22 22 -22 44q0 10 7.5 25.5t7.5 16.5q0 2 -5 2q-18 0 -30.5 -13.5t-12.5 -31.5q0 -17 12.5 -30.5t29.5 -13.5h6q4 0 7 1z" />
    <glyph glyph-name="semicolon" unicode=";" horiz-adv-x="246" 
d="M188 370q0 -26 -18.5 -44t-44.5 -18t-44.5 18t-18.5 44t18.5 43.5t44.5 17.5t44.5 -17.5t18.5 -43.5zM192 -8q0 -65 -41 -126t-102 -85v27q71 42 71 102q0 18 -33.5 74.5t-33.5 75.5q0 23 17 39.5t40 16.5q40 0 63 -44q19 -36 19 -80zM135 326q-21 22 -21 44q0 8 7 23
t7 19q0 2 -4 2q-18 0 -30 -14t-12 -32q0 -16 12.5 -29t28.5 -13h12zM158 -58q0 14 -27.5 62t-27.5 60q0 17 26 28q-17 8 -21 8q-38 0 -38 -40q0 -16 33 -74.5t33 -75.5q0 -47 -16 -54q17 7 29 38q9 25 9 48z" />
    <glyph glyph-name="less" unicode="&#x3c;" horiz-adv-x="584" 
d="M566 92l-546 224v40l546 226v-70l-422 -176l422 -174v-70z" />
    <glyph glyph-name="equal" unicode="=" horiz-adv-x="584" 
d="M567 387h-547v65h547v-65zM567 224h-547v64h547v-64z" />
    <glyph glyph-name="greater" unicode="&#x3e;" horiz-adv-x="584" 
d="M566 318l-546 -226v70l423 176l-423 174v70l546 -223v-41z" />
    <glyph glyph-name="question" unicode="?" horiz-adv-x="331" 
d="M314 484q0 -172 -179 -172v-131h-29v245q35 1 96 11q78 26 78 97q0 39 -26.5 65.5t-65.5 26.5q-11 0 -32.5 -2t-32.5 -2q-23 0 -41 13t-18 35q0 26 22 40q19 13 46 13q56 0 104 -44q78 -72 78 -195zM184 51q0 -26 -18 -45.5t-44 -19.5q-27 0 -44.5 19t-17.5 46t17.5 46
t44.5 19q26 0 44 -19.5t18 -45.5zM172 642q-58 10 -58 38q0 4 8 13t8 12q-1 1 -3 1q-46 0 -46 -36q0 -31 47 -31v0q-9 0 44 3zM296 507q-31 -93 -161 -99v-33h5q67 0 110.5 33.5t45.5 98.5zM130 7q-20 26 -20 45q0 23 20 46h-10q-18 0 -30.5 -14t-12.5 -32q0 -43 53 -45z
" />
    <glyph glyph-name="at" unicode="@" horiz-adv-x="800" 
d="M760 405q0 -95 -47 -167q-54 -82 -144 -82q-69 0 -94 74h-2q-47 -72 -121 -72q-99 0 -99 128q0 86 58 164q64 85 147 85q29 0 47 -15q14 -11 29 -40l11 42h67l-65 -250q-8 -31 -8 -41q0 -47 46 -47q69 0 112 79q37 66 37 141q0 123 -97 207q-93 81 -218 81
q-148 0 -233 -113q-78 -102 -78 -254q0 -91 51 -166.5t135 -113.5q60 -27 135 -27q97 0 208 54l14 -22q-113 -58 -221 -58q-123 0 -220 58q-103 62 -146 172q-24 61 -24 114q0 162 108.5 269t270.5 107q139 0 237 -83q104 -87 104 -224zM519 428q0 67 -47 67q-21 0 -48 -14
q-51 -27 -80 -84q-27 -53 -27 -114q0 -89 70 -89q46 0 85 68q29 52 41 110q6 30 6 56z" />
    <glyph glyph-name="A" unicode="A" 
d="M734 0h-297v28q77 0 77 42q0 17 -14 53l-56 143h-237l-33 -85q-13 -33 -13 -67q0 -37 22.5 -61.5t58.5 -24.5v-28h-232v28q73 0 125 133l173 443q-24 45 -86 45v21l90 42h90l231 -590q37 -94 101 -94v-28zM563 70q0 27 -18 72l-179 452q-26 63 -65 63q-14 0 -25 -4
q39 -16 61 -71l177 -452q16 -41 16 -62t-27 -40h11q49 0 49 42zM431 298l-107 270l-105 -270h212zM160 28q-30 22 -30 55q0 3 5 35l-1 1q2 -2 2 -5q0 -14 -72 -86h96z" />
    <glyph glyph-name="B" unicode="B" horiz-adv-x="715" 
d="M674 176q0 -176 -268 -176h-376v28q58 -1 80 14q27 18 27 73v469q0 60 -24 79q-21 16 -83 15v28h392q92 0 157 -43q75 -49 75 -137q0 -69 -57 -114q-49 -39 -123 -49v-3q93 -20 139 -54q61 -46 61 -130zM568 528q0 55 -31 101q-34 52 -87 52l-5 -3q93 -32 93 -155
q0 -105 -82 -145l6 -1q106 39 106 151zM519 524q0 44 -18 84q-22 47 -58 60q-29 10 -83 10q-49 0 -70 -13q-28 -17 -28 -65v-223h94q55 0 82 10q40 13 60.5 52t20.5 85zM580 182q0 105 -73 151q-25 16 -53 16q-2 0 -6 -1q102 -39 102 -164q0 -126 -100 -160l7 -2
q123 22 123 160zM534 184q0 76 -41.5 120.5t-116.5 44.5h-114v-246q0 -46 39 -63q26 -12 80 -12q153 0 153 156zM186 103v500q0 40 -10 55q-13 20 -50 20h-14q42 -18 42 -78v-490q0 -63 -42 -82h14q60 0 60 75z" />
    <glyph glyph-name="C" unicode="C" 
d="M728 150q-113 -164 -318 -164q-154 0 -259.5 104.5t-105.5 258.5t103.5 262t257.5 108q32 0 93 -16t93 -16q39 0 66 28h40v-221h-30q-96 197 -245 197q-118 0 -180 -112q-51 -91 -51 -219q0 -131 63 -225q72 -109 197 -109q144 0 246 140zM638 589l-3 85q-21 -10 -62 -10
q2 -4 65 -75zM384 0q-127 32 -207 126q-84 98 -84 226q0 80 35.5 154.5t96.5 126.5q34 29 83 60q-246 -93 -246 -339q0 -144 89 -241t233 -113z" />
    <glyph glyph-name="D" unicode="D" horiz-adv-x="874" 
d="M832 348q0 -159 -114 -256q-108 -92 -270 -92h-396v28q55 0 75 12q27 16 27 68v504q0 36 -28 51q-20 11 -74 15v28h413q158 0 262.5 -100.5t104.5 -257.5zM738 343q0 129 -48 214q-58 102 -177 117q191 -75 191 -334q0 -232 -191 -312q114 9 174 108q51 85 51 207z
M688 345q0 120 -49 202q-55 93 -164 120q-45 11 -103 11q-57 0 -76 -27q-16 -22 -16 -82v-439q0 -67 19.5 -84.5t87.5 -17.5q93 0 164 41q77 43 112 125q25 58 25 151zM203 106v467q0 58 -11.5 80t-56.5 23q23 -13 30 -32q5 -14 5 -45v-487q0 -64 -35 -84q39 0 53.5 19
t14.5 59z" />
    <glyph glyph-name="E" unicode="E" horiz-adv-x="713" 
d="M695 181l-56 -181h-615v28q66 0 88 14.5t22 65.5v482q0 59 -27 76q-19 12 -83 12v28h590l61 -160h-36q-49 61 -122 96.5t-151 35.5q-53 0 -75 -11q-32 -16 -32 -64v-226h107q128 0 128 121h34v-266h-34q0 117 -126 117h-109v-246q0 -46 31 -63q22 -12 71 -12h17.5h17.5
q80 0 146 45q43 30 111 108h42zM605 606v4l-37 68h-85q-2 0 -7 -1q37 0 129 -71zM486 316v98q-20 -33 -70 -50q50 -12 70 -48zM624 109v5q0 -23 -34 -42q-27 -15 -89 -42l5 -2h83zM182 103v499q0 40 -12 56q-14 20 -54 20q34 -15 34 -85v-487q0 -59 -34 -78q42 0 56 19
q10 14 10 56z" />
    <glyph glyph-name="F" unicode="F" horiz-adv-x="693" 
d="M677 544h-37q-40 46 -94 81q-62 40 -114 48q-35 5 -60 5q-72 0 -90 -24q-14 -18 -14 -94v-182h92q137 0 140 125h36v-267h-36q-7 72 -38 95q-26 19 -101 19h-93v-244q0 -50 32 -65q28 -13 91 -13v-28h-355v28q69 5 85 18q23 17 23 82v461q0 54 -21.5 72t-76.5 18
q-9 0 -13 -1v28h583zM616 595l-50 83h-93q64 -20 143 -83zM496 316v105q-18 -36 -71 -53q57 -13 71 -52zM192 92v506q0 65 -24 74q-15 6 -48 6q40 -14 40 -77v-501q0 -45 -16 -58q-4 -4 -20 -14h5q63 0 63 64z" />
    <glyph glyph-name="G" unicode="G" horiz-adv-x="811" 
d="M798 278q-72 -8 -87 -23t-15 -85v-112q-140 -72 -282 -72q-162 0 -267.5 100t-105.5 262q0 153 95 260q98 111 249 111q14 0 163 -24q31 -5 40 -5q46 0 64 25h37v-221h-19q-94 192 -247 192q-118 0 -183 -113q-54 -93 -54 -221q0 -97 34 -175q39 -90 116 -132
q46 -25 93 -25q42 0 78 18q42 21 55 56q10 27 10 73q0 74 -13 88.5t-86 22.5v29h325v-29zM641 580l-7 92q-24 -9 -43 -9q-15 0 -49 9q51 -33 99 -92zM622 158v42q0 41 -15 56.5t-56 21.5q38 -29 38 -75v-66q0 -71 -68 -109q57 14 79 42.5t22 87.5zM344 4q-51 21 -84 43
q-77 50 -123.5 132t-46.5 172q0 74 34.5 153.5t89.5 126.5q47 26 102 66l-2 1q-13 -2 -44 -12q-93 -31 -154 -135q-58 -98 -58 -201q0 -101 47 -185q49 -88 137 -129q25 -11 102 -32z" />
    <glyph glyph-name="H" unicode="H" horiz-adv-x="874" 
d="M845 0h-334v28q59 0 82 13.5t23 65.5v238h-356v-242q0 -46 31 -63q22 -12 73 -12v-28h-334v28q57 0 77 11q28 16 28 68v492q0 52 -23 65.5t-82 13.5v28h334v-28q-50 0 -72 -12q-32 -17 -32 -63v-221h356v218q0 48 -32 65q-22 13 -73 13v28h334v-28q-53 0 -74 -11
q-31 -16 -31 -64v-500q0 -49 31 -64q20 -11 74 -11v-28zM664 103v500q0 38 -8 53q-11 22 -46 22h-14q36 -16 36 -77v-495q0 -32 -5 -45q-7 -20 -31 -33h16q52 0 52 75zM184 103v500q0 41 -14 58t-54 17q36 -23 36 -78v-495q0 -32 -5 -45q-7 -16 -31 -32h15q53 0 53 75z" />
    <glyph glyph-name="I" unicode="I" horiz-adv-x="416" 
d="M375 0h-333v28q61 0 80 13q24 17 24 75v473q0 50 -28 71q-24 18 -76 18v28h333v-28q-54 0 -77 -17q-26 -20 -26 -72v-473q0 -51 27 -71q23 -17 76 -17v-28zM194 81v531q0 66 -72 66q27 -9 35 -29q6 -13 6 -46v-510q0 -42 -41 -65q72 0 72 53z" />
    <glyph glyph-name="J" unicode="J" horiz-adv-x="413" 
d="M386 678q-59 0 -79 -19t-20 -77v-494q0 -86 -44 -140q-47 -59 -131 -59q-43 0 -76 24q-36 26 -36 68q0 23 14 40.5t36 17.5q26 0 41 -19q4 -5 15 -58q10 -45 24 -45q31 0 31 72v581q0 66 -20 87t-85 21v28h330v-28zM210 17v573q0 49 -9.5 68.5t-47.5 19.5h-7v-2
q32 -48 32 -72v-611q0 -40 -17 -76q49 20 49 100zM86 -93v2q0 8 -20 31t-20 32q0 23 22 23q15 0 15 5t-12.5 13t-18.5 8q-16 0 -26 -13t-10 -29q0 -50 70 -72z" />
    <glyph glyph-name="K" unicode="K" horiz-adv-x="821" 
d="M809 0h-336v28q80 0 80 36q0 19 -29 55l-198 247l-63 -56v-207q0 -46 32 -63q22 -12 71 -12v-28h-342v28q60 0 81 10q33 16 33 70v485q0 56 -24 70.5t-90 14.5v28h342v-28q-56 0 -76 -12q-27 -17 -27 -69v-249l203 182q68 61 68 98q0 50 -80 50v28h300v-28
q-92 -13 -214 -121l-121 -107l265 -331q64 -79 99 -88q13 -3 26 -3v-28zM650 678h-122q23 -20 23 -43q0 -13 -7 -31q60 52 106 74zM603 68q0 27 -39 76l-202 254l-23 -20l189 -240q42 -53 42 -76q0 -21 -25 -34h13q18 0 31.5 11t13.5 29zM186 103v500q0 41 -14.5 58
t-55.5 17q25 -11 32 -29q6 -13 6 -44v-499q0 -33 -6 -48q-9 -20 -36 -30h13q37 0 50 21q11 17 11 54z" />
    <glyph glyph-name="L" unicode="L" horiz-adv-x="715" 
d="M702 180l-66 -180h-606v28q96 0 107 44q3 12 3 32v497q0 57 -38 68q-23 7 -72 9v28h348v-28q-63 0 -83 -11q-30 -17 -30 -75v-490q0 -48 31 -62q27 -12 90 -12q89 0 154 41q52 32 116 111h46zM630 126q-55 -67 -134 -98h91zM188 98v492q0 44 -7 64q-9 24 -45 24h-15
q35 -21 35 -72v-517q0 -41 -35 -61q2 0 8 -1t9 -1q50 0 50 72z" />
    <glyph glyph-name="M" unicode="M" horiz-adv-x="949" 
d="M912 0h-323v28q99 0 99 85v503l-248 -616h-30l-245 597v-418q0 -64 24 -103q29 -48 89 -48v-28h-252v28q109 0 109 149v458q-37 43 -109 43v28h228l223 -535l219 535h216v-28q-99 0 -99 -75v-501q0 -45 30 -62q22 -12 69 -12v-28zM753 678q-32 0 -42 -24q-7 -15 -7 -51
v-498q0 -31 -5 -45q-8 -19 -31 -32h17q33 0 44 22q7 15 7 52v501q0 55 17 75zM431 62q0 14 -15 50l-195 474q-19 46 -34 64q-25 28 -65 28h-18q34 -12 54 -39q11 -16 30 -61l232 -550q11 20 11 34zM188 28q-40 19 -50 65q-17 -46 -50 -65h100z" />
    <glyph glyph-name="N" unicode="N" horiz-adv-x="817" 
d="M801 678q-51 0 -77.5 -33t-26.5 -85v-576h-29l-513 598v-402q0 -61 25 -102q30 -50 87 -50v-28h-246v28q54 0 83 65q23 50 23 112v409q-58 64 -118 64v28h207l452 -526v354q0 52 -42 98t-93 46v28h268v-28zM715 678h-118v-2q6 -1 35.5 -27.5t34.5 -34.5q9 40 48 64z
M668 8q0 35 -7.5 53t-30.5 45l-451 525q-27 31 -45 39t-60 8v-2l17 -12q41 -29 66 -58zM189 28q-47 26 -62 65q-14 -44 -51 -65h113z" />
    <glyph glyph-name="O" unicode="O" horiz-adv-x="832" 
d="M790 356q0 -160 -113.5 -265t-274.5 -105q-157 0 -258.5 106.5t-101.5 263.5q0 165 105 264.5t270 99.5q159 0 266 -103t107 -261zM696 332q0 236 -137 322q-53 33 -71 30q176 -90 176 -359q0 -165 -86 -265q63 30 94 118q24 68 24 154zM648 318q0 138 -57 244
q-71 130 -197 130q-106 0 -164 -93q-50 -79 -50 -191q0 -111 32 -203q39 -114 118 -162q48 -29 98 -29q44 0 86 21q70 35 105 121q29 72 29 162zM304 12l-1 2q-213 100 -213 350q0 172 141 300h-3q-170 -104 -170 -305q0 -126 64 -218t182 -129z" />
    <glyph glyph-name="P" unicode="P" horiz-adv-x="704" 
d="M664 513q0 -86 -71 -139q-57 -42 -158 -51q-27 -3 -169 -3v-212q0 -55 40 -70q15 -6 86 -10v-28h-364v28q64 1 83 11q31 17 31 75v453q0 75 -20 93q-16 14 -94 18v28h344q36 0 110 -8q71 -8 125 -60q57 -55 57 -125zM576 510q0 136 -120 162q89 -44 89 -162
q0 -120 -87 -156q118 18 118 156zM528 512q0 58 -27 101q-41 65 -145 65q-60 0 -77 -28q-13 -20 -13 -84v-218h70q94 0 140 34q52 39 52 130zM191 593q0 45 -15.5 64t-59.5 22q42 -18 42 -90v-498q0 -48 -37 -63h13q56 0 56 52z" />
    <glyph glyph-name="Q" unicode="Q" horiz-adv-x="832" 
d="M802 -54l-106 -142h-11q-168 0 -344 188q-134 17 -217 124q-80 102 -80 240q0 119 63 213q66 99 177 132q61 18 135 18q160 0 266.5 -102t106.5 -261q0 -133 -81.5 -231.5t-212.5 -128.5q106 -73 186 -73q46 0 98 35zM698 332q0 123 -46 216q-55 113 -162 136
q176 -90 176 -370q0 -154 -86 -254q118 88 118 272zM650 318q0 108 -33 195q-40 105 -120 151q-47 27 -101 27q-105 0 -164 -92q-50 -79 -50 -191q0 -113 31 -203q39 -113 119 -162q47 -29 98 -29q113 0 172 100q48 83 48 204zM306 12q-214 111 -214 352q0 93 35 165
q32 64 103 135q-170 -104 -170 -310q0 -125 64 -215t182 -127zM698 -148q-49 0 -81 8q-119 30 -203 126q-26 0 -46 2q60 -66 131 -110q86 -54 159 -54q23 0 40 28z" />
    <glyph glyph-name="R" unicode="R" horiz-adv-x="790" 
d="M773 0h-94q-52 0 -100 40q-29 24 -75 83l-70 89l-52 66q-39 46 -62 46h-55v-212q0 -45 16 -60.5t62 -21.5q23 -3 32 -2v-28h-347v28q72 5 84 11q30 15 30 75v480q0 64 -39 75q-19 5 -75 9v28h395q92 0 162 -45q81 -52 81 -139q0 -76 -59 -129q-52 -47 -132 -61l60 -69
q103 -118 164 -186q34 -38 74 -49v-28zM578 516q0 142 -122 159q89 -45 89 -165q0 -61 -24 -97.5t-81 -58.5q138 16 138 162zM528 515q0 49 -21 90q-23 46 -65 61q-34 12 -86 12q-56 0 -73.5 -22.5t-17.5 -79.5v-225h81q46 0 92 18q50 20 71 56q19 33 19 90zM688 14
q-61 31 -123 106q-51 64 -101 129q-21 27 -68 75h-42q43 -32 132 -154q83 -112 131 -137q34 -17 71 -19zM188 78v515q0 48 -10 64q-14 21 -60 21q40 -16 40 -76v-510q0 -47 -35 -64q65 0 65 50z" />
    <glyph glyph-name="S" unicode="S" horiz-adv-x="618" 
d="M572 214q0 -94 -66.5 -160t-160.5 -66q-32 0 -93.5 21t-93.5 21q-40 0 -64 -30h-28v254h32q84 -238 247 -238q62 0 106.5 38.5t44.5 99.5q0 60 -31 92q-45 47 -177 66q-144 20 -195 90q-35 48 -35 113q0 86 55.5 145t141.5 59q25 0 74.5 -9.5t74.5 -9.5q26 0 50 12h38
l22 -205h-35q-48 88 -90 128q-61 61 -139 61q-54 0 -95 -37.5t-41 -90.5q0 -51 41 -80q52 -37 208 -60q209 -31 209 -214zM459 578l-17 95q-15 -5 -32 -5q-22 0 -40 5q21 -14 47 -45q35 -43 42 -50zM534 186q0 74 -51 113q-38 28 -120 46q-46 8 -137 27q-70 17 -107 64.5
t-37 105.5q0 18 -1 27q-7 -19 -7 -63q0 -37 22.5 -76.5t51.5 -59.5q13 -9 53 -20q77 -21 151 -35q161 -30 161 -153q0 -35 -21 -76q42 42 42 100zM146 56q-43 51 -64 105v-133q23 31 64 28z" />
    <glyph glyph-name="T" unicode="T" 
d="M727 540h-36q-46 79 -107 109q-54 27 -150 29v-568q0 -48 23 -64t89 -18v-28h-350v28q62 1 83 13q30 18 30 75v562q-86 0 -147 -35q-49 -29 -111 -103h-31l36 166h635zM670 598l-22 80h-94q61 -19 116 -80zM148 678h-80l-20 -85q43 57 100 85zM358 618q0 57 -32 60v-568
q0 -57 -36 -82h11q36 0 49 28q8 18 8 59v503z" />
    <glyph glyph-name="U" unicode="U" horiz-adv-x="832" 
d="M808 678q-62 -9 -84 -59q-20 -46 -20 -139v-258q0 -119 -87 -181q-76 -55 -200 -55q-162 0 -238 91q-42 50 -42 138v381q0 56 -30 71q-12 5 -81 11v28h338v-28q-58 -4 -73 -12q-28 -15 -28 -65v-397q0 -88 58 -134q53 -42 143 -42q99 0 156 54.5t57 153.5v242
q0 139 -48 175q-28 21 -78 25v28h257v-28zM721 678h-103q47 -21 59 -79q12 56 44 79zM354 3q-168 71 -168 209v400q0 68 -58 67l-1 -1q9 -17 17 -34q10 -20 10 -38v-399q0 -160 200 -204z" />
    <glyph glyph-name="V" unicode="V" horiz-adv-x="758" 
d="M742 678q-75 -4 -141 -171l-207 -521h-28l-254 608q-23 54 -30 63q-18 19 -66 21v28h300v-28q-78 0 -78 -45q0 -19 11 -45l182 -436l131 330q28 71 28 111q0 85 -79 85v28h231v-28zM660 678h-98q40 -22 43 -79q22 54 55 79zM387 52q0 7 -15 43l-209 502q-19 46 -32 60
q-20 21 -61 25q27 -10 57 -81l245 -587q15 27 15 38z" />
    <glyph glyph-name="W" unicode="W" horiz-adv-x="1067" 
d="M1054 678q-71 -32 -118 -167l-182 -525h-29l-193 550l-191 -550h-27l-190 550q-10 32 -19 64q-13 37 -30 55q-23 23 -61 23v28h294v-28q-2 1 -7 1q-73 0 -73 -41q0 -24 16 -70l135 -388l138 396q-16 54 -34 73q-23 25 -73 29v28h304v-28q-78 -2 -78 -38q0 -21 24 -89
l130 -371l106 306q24 69 24 100q0 84 -92 92v28h226v-28zM989 678h-99q40 -25 44 -80q21 55 55 80zM746 66q0 12 -10 40l-173 492q-17 48 -27 59q-15 17 -57 21q32 -28 55 -94l198 -566q14 30 14 48zM336 60q0 15 -8 38l-166 478q-18 50 -21 57q-17 37 -39 42q-9 2 -32 3
q29 -21 57 -102l195 -562q14 36 14 46z" />
    <glyph glyph-name="X" unicode="X" horiz-adv-x="821" 
d="M803 0h-361v28q84 0 84 40q0 26 -52 95l-104 137l-94 -116q-52 -64 -52 -99q0 -52 80 -57v-28h-280v28q97 0 220 156l110 139l-194 254q-21 27 -42 55q-28 32 -53 40q-18 6 -45 6v28h342v-28h-20q-64 1 -64 -33q0 -20 29 -58l129 -171l92 112q48 58 48 94q0 28 -27 43
q-23 13 -53 13v28h276v-28q-57 -4 -119 -56q-37 -31 -92 -98l-108 -131l203 -266q68 -89 116 -97q13 -2 31 -2v-28zM680 676l-8 2h-111q31 -16 31 -47q0 -14 -2 -22l1 -1q1 6 40 35q36 27 49 33zM578 71q0 36 -65 121l-321 422q-27 36 -42 47q-24 17 -60 17l-3 -2q1 1 3 1
q18 0 67 -65l332 -443q53 -71 53 -101q0 -20 -26 -40q62 0 62 43zM214 28q-28 16 -28 39q0 17 8 41l-1 1q4 -4 -13 -18q-10 -8 -89 -63h123z" />
    <glyph glyph-name="Y" unicode="Y" 
d="M733 678q-62 -8 -141 -142l-148 -252v-180q0 -49 32 -64q16 -8 75 -12v-28h-337v28q95 0 104 50q2 11 2 36v145l-214 357q-23 38 -35 48q-19 16 -57 14v28h330v-28q-53 -2 -59 -4q-35 -7 -35 -37q0 -20 36 -80l144 -241l96 163q52 88 52 135q0 30 -19 47t-49 17v28h223
v-28zM652 678h-87q30 -20 30 -72q18 38 57 72zM368 90v182l-208 350q-20 34 -30 43q-16 13 -50 13q11 -3 43 -56l213 -357v-173q0 -26 -10 -39t-36 -25h22q56 0 56 62z" />
    <glyph glyph-name="Z" unicode="Z" horiz-adv-x="683" 
d="M658 244l-40 -244h-582v20l458 658h-160q-61 0 -120 -30.5t-94 -79.5q-1 -1 -37 -59h-35l35 197h569v-20l-460 -658h158q50 0 79 8q59 16 115 83q49 58 74 125h40zM181 678h-85l-16 -85q38 53 101 85zM534 660q0 15 -19 18l-455 -650q11 0 31 2q13 4 45 50l376 538
q22 31 22 42zM590 156q-61 -93 -136 -128h97z" />
    <glyph glyph-name="bracketleft" unicode="[" horiz-adv-x="331" 
d="M308 -220h-229v940h229v-28h-55q-31 0 -43 -8q-16 -11 -16 -42v-782q0 -30 10.5 -41.5t39.5 -11.5h64v-27zM128 642q0 41 -33 50v-885q33 8 33 61v774z" />
    <glyph glyph-name="backslash" unicode="\" horiz-adv-x="284" 
d="M288 -16h-65l-222 710h63z" />
    <glyph glyph-name="bracketright" unicode="]" horiz-adv-x="331" 
d="M252 -222h-230v28h60q32 0 43.5 11t11.5 43v778q0 32 -11.5 43t-43.5 11h-60v28h230v-942zM186 -132v753q0 37 -10 52.5t-45 18.5q23 -21 23 -66v-754q0 -46 -23 -66q32 2 43.5 16t11.5 46z" />
    <glyph glyph-name="asciicircum" unicode="^" horiz-adv-x="584" 
d="M512 484q0 -18 -26 -18q-35 0 -126 73q-85 68 -111 106q-134 -179 -156 -179q-21 0 -21 8q0 3 18 26q104 130 135 220h122q9 -18 90 -127q75 -101 75 -109zM490 497q-1 6 -14 19q-28 26 -81 79q-6 6 -37 49q-23 31 -43 43q-15 9 -37 9q-18 0 -18 -20q0 -31 91.5 -109
t124.5 -78q9 0 14 8z" />
    <glyph glyph-name="underscore" unicode="_" horiz-adv-x="512" 
d="M518 -217h-524v63h524v-63z" />
    <glyph glyph-name="grave" unicode="`" horiz-adv-x="341" 
d="M280 513h-33l-183 155h153zM236 542l-46 98h-70z" />
    <glyph glyph-name="a" unicode="a" 
d="M734 0h-297v28q77 0 77 42q0 17 -14 53l-56 143h-237l-33 -85q-13 -33 -13 -67q0 -37 22.5 -61.5t58.5 -24.5v-28h-232v28q73 0 125 133l173 443q-24 45 -86 45v21l90 42h90l231 -590q37 -94 101 -94v-28zM563 70q0 27 -18 72l-179 452q-26 63 -65 63q-14 0 -25 -4
q39 -16 61 -71l177 -452q16 -41 16 -62t-27 -40h11q49 0 49 42zM431 298l-107 270l-105 -270h212zM160 28q-30 22 -30 55q0 3 5 35l-1 1q2 -2 2 -5q0 -14 -72 -86h96z" />
    <glyph glyph-name="b" unicode="b" horiz-adv-x="715" 
d="M674 176q0 -176 -268 -176h-376v28q58 -1 80 14q27 18 27 73v469q0 60 -24 79q-21 16 -83 15v28h392q92 0 157 -43q75 -49 75 -137q0 -69 -57 -114q-49 -39 -123 -49v-3q93 -20 139 -54q61 -46 61 -130zM568 528q0 55 -31 101q-34 52 -87 52l-5 -3q93 -32 93 -155
q0 -105 -82 -145l6 -1q106 39 106 151zM519 524q0 44 -18 84q-22 47 -58 60q-29 10 -83 10q-49 0 -70 -13q-28 -17 -28 -65v-223h94q55 0 82 10q40 13 60.5 52t20.5 85zM580 182q0 105 -73 151q-25 16 -53 16q-2 0 -6 -1q102 -39 102 -164q0 -126 -100 -160l7 -2
q123 22 123 160zM534 184q0 76 -41.5 120.5t-116.5 44.5h-114v-246q0 -46 39 -63q26 -12 80 -12q153 0 153 156zM186 103v500q0 40 -10 55q-13 20 -50 20h-14q42 -18 42 -78v-490q0 -63 -42 -82h14q60 0 60 75z" />
    <glyph glyph-name="c" unicode="c" 
d="M728 150q-113 -164 -318 -164q-154 0 -259.5 104.5t-105.5 258.5t103.5 262t257.5 108q32 0 93 -16t93 -16q39 0 66 28h40v-221h-30q-96 197 -245 197q-118 0 -180 -112q-51 -91 -51 -219q0 -131 63 -225q72 -109 197 -109q144 0 246 140zM638 589l-3 85q-21 -10 -62 -10
q2 -4 65 -75zM384 0q-127 32 -207 126q-84 98 -84 226q0 80 35.5 154.5t96.5 126.5q34 29 83 60q-246 -93 -246 -339q0 -144 89 -241t233 -113z" />
    <glyph glyph-name="d" unicode="d" horiz-adv-x="874" 
d="M832 348q0 -159 -114 -256q-108 -92 -270 -92h-396v28q55 0 75 12q27 16 27 68v504q0 36 -28 51q-20 11 -74 15v28h413q158 0 262.5 -100.5t104.5 -257.5zM738 343q0 129 -48 214q-58 102 -177 117q191 -75 191 -334q0 -232 -191 -312q114 9 174 108q51 85 51 207z
M688 345q0 120 -49 202q-55 93 -164 120q-45 11 -103 11q-57 0 -76 -27q-16 -22 -16 -82v-439q0 -67 19.5 -84.5t87.5 -17.5q93 0 164 41q77 43 112 125q25 58 25 151zM203 106v467q0 58 -11.5 80t-56.5 23q23 -13 30 -32q5 -14 5 -45v-487q0 -64 -35 -84q39 0 53.5 19
t14.5 59z" />
    <glyph glyph-name="e" unicode="e" horiz-adv-x="713" 
d="M695 181l-56 -181h-615v28q66 0 88 14.5t22 65.5v482q0 59 -27 76q-19 12 -83 12v28h590l61 -160h-36q-49 61 -122 96.5t-151 35.5q-53 0 -75 -11q-32 -16 -32 -64v-226h107q128 0 128 121h34v-266h-34q0 117 -126 117h-109v-246q0 -46 31 -63q22 -12 71 -12h17.5h17.5
q80 0 146 45q43 30 111 108h42zM605 606v4l-37 68h-85q-2 0 -7 -1q37 0 129 -71zM486 316v98q-20 -33 -70 -50q50 -12 70 -48zM624 109v5q0 -23 -34 -42q-27 -15 -89 -42l5 -2h83zM182 103v499q0 40 -12 56q-14 20 -54 20q34 -15 34 -85v-487q0 -59 -34 -78q42 0 56 19
q10 14 10 56z" />
    <glyph glyph-name="f" unicode="f" horiz-adv-x="693" 
d="M677 544h-37q-40 46 -94 81q-62 40 -114 48q-35 5 -60 5q-72 0 -90 -24q-14 -18 -14 -94v-182h92q137 0 140 125h36v-267h-36q-7 72 -38 95q-26 19 -101 19h-93v-244q0 -50 32 -65q28 -13 91 -13v-28h-355v28q69 5 85 18q23 17 23 82v461q0 54 -21.5 72t-76.5 18
q-9 0 -13 -1v28h583zM616 595l-50 83h-93q64 -20 143 -83zM496 316v105q-18 -36 -71 -53q57 -13 71 -52zM192 92v506q0 65 -24 74q-15 6 -48 6q40 -14 40 -77v-501q0 -45 -16 -58q-4 -4 -20 -14h5q63 0 63 64z" />
    <glyph glyph-name="g" unicode="g" horiz-adv-x="811" 
d="M798 278q-72 -8 -87 -23t-15 -85v-112q-140 -72 -282 -72q-162 0 -267.5 100t-105.5 262q0 153 95 260q98 111 249 111q14 0 163 -24q31 -5 40 -5q46 0 64 25h37v-221h-19q-94 192 -247 192q-118 0 -183 -113q-54 -93 -54 -221q0 -97 34 -175q39 -90 116 -132
q46 -25 93 -25q42 0 78 18q42 21 55 56q10 27 10 73q0 74 -13 88.5t-86 22.5v29h325v-29zM641 580l-7 92q-24 -9 -43 -9q-15 0 -49 9q51 -33 99 -92zM622 158v42q0 41 -15 56.5t-56 21.5q38 -29 38 -75v-66q0 -71 -68 -109q57 14 79 42.5t22 87.5zM344 4q-51 21 -84 43
q-77 50 -123.5 132t-46.5 172q0 74 34.5 153.5t89.5 126.5q47 26 102 66l-2 1q-13 -2 -44 -12q-93 -31 -154 -135q-58 -98 -58 -201q0 -101 47 -185q49 -88 137 -129q25 -11 102 -32z" />
    <glyph glyph-name="h" unicode="h" horiz-adv-x="874" 
d="M845 0h-334v28q59 0 82 13.5t23 65.5v238h-356v-242q0 -46 31 -63q22 -12 73 -12v-28h-334v28q57 0 77 11q28 16 28 68v492q0 52 -23 65.5t-82 13.5v28h334v-28q-50 0 -72 -12q-32 -17 -32 -63v-221h356v218q0 48 -32 65q-22 13 -73 13v28h334v-28q-53 0 -74 -11
q-31 -16 -31 -64v-500q0 -49 31 -64q20 -11 74 -11v-28zM664 103v500q0 38 -8 53q-11 22 -46 22h-14q36 -16 36 -77v-495q0 -32 -5 -45q-7 -20 -31 -33h16q52 0 52 75zM184 103v500q0 41 -14 58t-54 17q36 -23 36 -78v-495q0 -32 -5 -45q-7 -16 -31 -32h15q53 0 53 75z" />
    <glyph glyph-name="i" unicode="i" horiz-adv-x="416" 
d="M375 0h-333v28q61 0 80 13q24 17 24 75v473q0 50 -28 71q-24 18 -76 18v28h333v-28q-54 0 -77 -17q-26 -20 -26 -72v-473q0 -51 27 -71q23 -17 76 -17v-28zM194 81v531q0 66 -72 66q27 -9 35 -29q6 -13 6 -46v-510q0 -42 -41 -65q72 0 72 53z" />
    <glyph glyph-name="j" unicode="j" horiz-adv-x="413" 
d="M386 678q-59 0 -79 -19t-20 -77v-494q0 -86 -44 -140q-47 -59 -131 -59q-43 0 -76 24q-36 26 -36 68q0 23 14 40.5t36 17.5q26 0 41 -19q4 -5 15 -58q10 -45 24 -45q31 0 31 72v581q0 66 -20 87t-85 21v28h330v-28zM210 17v573q0 49 -9.5 68.5t-47.5 19.5h-7v-2
q32 -48 32 -72v-611q0 -40 -17 -76q49 20 49 100zM86 -93v2q0 8 -20 31t-20 32q0 23 22 23q15 0 15 5t-12.5 13t-18.5 8q-16 0 -26 -13t-10 -29q0 -50 70 -72z" />
    <glyph glyph-name="k" unicode="k" horiz-adv-x="821" 
d="M809 0h-336v28q80 0 80 36q0 19 -29 55l-198 247l-63 -56v-207q0 -46 32 -63q22 -12 71 -12v-28h-342v28q60 0 81 10q33 16 33 70v485q0 56 -24 70.5t-90 14.5v28h342v-28q-56 0 -76 -12q-27 -17 -27 -69v-249l203 182q68 61 68 98q0 50 -80 50v28h300v-28
q-92 -13 -214 -121l-121 -107l265 -331q64 -79 99 -88q13 -3 26 -3v-28zM650 678h-122q23 -20 23 -43q0 -13 -7 -31q60 52 106 74zM603 68q0 27 -39 76l-202 254l-23 -20l189 -240q42 -53 42 -76q0 -21 -25 -34h13q18 0 31.5 11t13.5 29zM186 103v500q0 41 -14.5 58
t-55.5 17q25 -11 32 -29q6 -13 6 -44v-499q0 -33 -6 -48q-9 -20 -36 -30h13q37 0 50 21q11 17 11 54z" />
    <glyph glyph-name="l" unicode="l" horiz-adv-x="715" 
d="M702 180l-66 -180h-606v28q96 0 107 44q3 12 3 32v497q0 57 -38 68q-23 7 -72 9v28h348v-28q-63 0 -83 -11q-30 -17 -30 -75v-490q0 -48 31 -62q27 -12 90 -12q89 0 154 41q52 32 116 111h46zM630 126q-55 -67 -134 -98h91zM188 98v492q0 44 -7 64q-9 24 -45 24h-15
q35 -21 35 -72v-517q0 -41 -35 -61q2 0 8 -1t9 -1q50 0 50 72z" />
    <glyph glyph-name="m" unicode="m" horiz-adv-x="949" 
d="M912 0h-323v28q99 0 99 85v503l-248 -616h-30l-245 597v-418q0 -64 24 -103q29 -48 89 -48v-28h-252v28q109 0 109 149v458q-37 43 -109 43v28h228l223 -535l219 535h216v-28q-99 0 -99 -75v-501q0 -45 30 -62q22 -12 69 -12v-28zM753 678q-32 0 -42 -24q-7 -15 -7 -51
v-498q0 -31 -5 -45q-8 -19 -31 -32h17q33 0 44 22q7 15 7 52v501q0 55 17 75zM431 62q0 14 -15 50l-195 474q-19 46 -34 64q-25 28 -65 28h-18q34 -12 54 -39q11 -16 30 -61l232 -550q11 20 11 34zM188 28q-40 19 -50 65q-17 -46 -50 -65h100z" />
    <glyph glyph-name="n" unicode="n" horiz-adv-x="817" 
d="M801 678q-51 0 -77.5 -33t-26.5 -85v-576h-29l-513 598v-402q0 -61 25 -102q30 -50 87 -50v-28h-246v28q54 0 83 65q23 50 23 112v409q-58 64 -118 64v28h207l452 -526v354q0 52 -42 98t-93 46v28h268v-28zM715 678h-118v-2q6 -1 35.5 -27.5t34.5 -34.5q9 40 48 64z
M668 8q0 35 -7.5 53t-30.5 45l-451 525q-27 31 -45 39t-60 8v-2l17 -12q41 -29 66 -58zM189 28q-47 26 -62 65q-14 -44 -51 -65h113z" />
    <glyph glyph-name="o" unicode="o" horiz-adv-x="832" 
d="M790 356q0 -160 -113.5 -265t-274.5 -105q-157 0 -258.5 106.5t-101.5 263.5q0 165 105 264.5t270 99.5q159 0 266 -103t107 -261zM696 332q0 236 -137 322q-53 33 -71 30q176 -90 176 -359q0 -165 -86 -265q63 30 94 118q24 68 24 154zM648 318q0 138 -57 244
q-71 130 -197 130q-106 0 -164 -93q-50 -79 -50 -191q0 -111 32 -203q39 -114 118 -162q48 -29 98 -29q44 0 86 21q70 35 105 121q29 72 29 162zM304 12l-1 2q-213 100 -213 350q0 172 141 300h-3q-170 -104 -170 -305q0 -126 64 -218t182 -129z" />
    <glyph glyph-name="p" unicode="p" horiz-adv-x="704" 
d="M664 513q0 -86 -71 -139q-57 -42 -158 -51q-27 -3 -169 -3v-212q0 -55 40 -70q15 -6 86 -10v-28h-364v28q64 1 83 11q31 17 31 75v453q0 75 -20 93q-16 14 -94 18v28h344q36 0 110 -8q71 -8 125 -60q57 -55 57 -125zM576 510q0 136 -120 162q89 -44 89 -162
q0 -120 -87 -156q118 18 118 156zM528 512q0 58 -27 101q-41 65 -145 65q-60 0 -77 -28q-13 -20 -13 -84v-218h70q94 0 140 34q52 39 52 130zM191 593q0 45 -15.5 64t-59.5 22q42 -18 42 -90v-498q0 -48 -37 -63h13q56 0 56 52z" />
    <glyph glyph-name="q" unicode="q" horiz-adv-x="832" 
d="M802 -54l-106 -142h-11q-168 0 -344 188q-134 17 -217 124q-80 102 -80 240q0 119 63 213q66 99 177 132q61 18 135 18q160 0 266.5 -102t106.5 -261q0 -133 -81.5 -231.5t-212.5 -128.5q106 -73 186 -73q46 0 98 35zM698 332q0 123 -46 216q-55 113 -162 136
q176 -90 176 -370q0 -154 -86 -254q118 88 118 272zM650 318q0 108 -33 195q-40 105 -120 151q-47 27 -101 27q-105 0 -164 -92q-50 -79 -50 -191q0 -113 31 -203q39 -113 119 -162q47 -29 98 -29q113 0 172 100q48 83 48 204zM306 12q-214 111 -214 352q0 93 35 165
q32 64 103 135q-170 -104 -170 -310q0 -125 64 -215t182 -127zM698 -148q-49 0 -81 8q-119 30 -203 126q-26 0 -46 2q60 -66 131 -110q86 -54 159 -54q23 0 40 28z" />
    <glyph glyph-name="r" unicode="r" horiz-adv-x="790" 
d="M773 0h-94q-52 0 -100 40q-29 24 -75 83l-70 89l-52 66q-39 46 -62 46h-55v-212q0 -45 16 -60.5t62 -21.5q23 -3 32 -2v-28h-347v28q72 5 84 11q30 15 30 75v480q0 64 -39 75q-19 5 -75 9v28h395q92 0 162 -45q81 -52 81 -139q0 -76 -59 -129q-52 -47 -132 -61l60 -69
q103 -118 164 -186q34 -38 74 -49v-28zM578 516q0 142 -122 159q89 -45 89 -165q0 -61 -24 -97.5t-81 -58.5q138 16 138 162zM528 515q0 49 -21 90q-23 46 -65 61q-34 12 -86 12q-56 0 -73.5 -22.5t-17.5 -79.5v-225h81q46 0 92 18q50 20 71 56q19 33 19 90zM688 14
q-61 31 -123 106q-51 64 -101 129q-21 27 -68 75h-42q43 -32 132 -154q83 -112 131 -137q34 -17 71 -19zM188 78v515q0 48 -10 64q-14 21 -60 21q40 -16 40 -76v-510q0 -47 -35 -64q65 0 65 50z" />
    <glyph glyph-name="s" unicode="s" horiz-adv-x="618" 
d="M572 214q0 -94 -66.5 -160t-160.5 -66q-32 0 -93.5 21t-93.5 21q-40 0 -64 -30h-28v254h32q84 -238 247 -238q62 0 106.5 38.5t44.5 99.5q0 60 -31 92q-45 47 -177 66q-144 20 -195 90q-35 48 -35 113q0 86 55.5 145t141.5 59q25 0 74.5 -9.5t74.5 -9.5q26 0 50 12h38
l22 -205h-35q-48 88 -90 128q-61 61 -139 61q-54 0 -95 -37.5t-41 -90.5q0 -51 41 -80q52 -37 208 -60q209 -31 209 -214zM459 578l-17 95q-15 -5 -32 -5q-22 0 -40 5q21 -14 47 -45q35 -43 42 -50zM534 186q0 74 -51 113q-38 28 -120 46q-46 8 -137 27q-70 17 -107 64.5
t-37 105.5q0 18 -1 27q-7 -19 -7 -63q0 -37 22.5 -76.5t51.5 -59.5q13 -9 53 -20q77 -21 151 -35q161 -30 161 -153q0 -35 -21 -76q42 42 42 100zM146 56q-43 51 -64 105v-133q23 31 64 28z" />
    <glyph glyph-name="t" unicode="t" 
d="M727 540h-36q-46 79 -107 109q-54 27 -150 29v-568q0 -48 23 -64t89 -18v-28h-350v28q62 1 83 13q30 18 30 75v562q-86 0 -147 -35q-49 -29 -111 -103h-31l36 166h635zM670 598l-22 80h-94q61 -19 116 -80zM148 678h-80l-20 -85q43 57 100 85zM358 618q0 57 -32 60v-568
q0 -57 -36 -82h11q36 0 49 28q8 18 8 59v503z" />
    <glyph glyph-name="u" unicode="u" horiz-adv-x="832" 
d="M808 678q-62 -9 -84 -59q-20 -46 -20 -139v-258q0 -119 -87 -181q-76 -55 -200 -55q-162 0 -238 91q-42 50 -42 138v381q0 56 -30 71q-12 5 -81 11v28h338v-28q-58 -4 -73 -12q-28 -15 -28 -65v-397q0 -88 58 -134q53 -42 143 -42q99 0 156 54.5t57 153.5v242
q0 139 -48 175q-28 21 -78 25v28h257v-28zM721 678h-103q47 -21 59 -79q12 56 44 79zM354 3q-168 71 -168 209v400q0 68 -58 67l-1 -1q9 -17 17 -34q10 -20 10 -38v-399q0 -160 200 -204z" />
    <glyph glyph-name="v" unicode="v" horiz-adv-x="758" 
d="M742 678q-75 -4 -141 -171l-207 -521h-28l-254 608q-23 54 -30 63q-18 19 -66 21v28h300v-28q-78 0 -78 -45q0 -19 11 -45l182 -436l131 330q28 71 28 111q0 85 -79 85v28h231v-28zM660 678h-98q40 -22 43 -79q22 54 55 79zM387 52q0 7 -15 43l-209 502q-19 46 -32 60
q-20 21 -61 25q27 -10 57 -81l245 -587q15 27 15 38z" />
    <glyph glyph-name="w" unicode="w" horiz-adv-x="1067" 
d="M1054 678q-71 -32 -118 -167l-182 -525h-29l-193 550l-191 -550h-27l-190 550q-10 32 -19 64q-13 37 -30 55q-23 23 -61 23v28h294v-28q-2 1 -7 1q-73 0 -73 -41q0 -24 16 -70l135 -388l138 396q-16 54 -34 73q-23 25 -73 29v28h304v-28q-78 -2 -78 -38q0 -21 24 -89
l130 -371l106 306q24 69 24 100q0 84 -92 92v28h226v-28zM989 678h-99q40 -25 44 -80q21 55 55 80zM746 66q0 12 -10 40l-173 492q-17 48 -27 59q-15 17 -57 21q32 -28 55 -94l198 -566q14 30 14 48zM336 60q0 15 -8 38l-166 478q-18 50 -21 57q-17 37 -39 42q-9 2 -32 3
q29 -21 57 -102l195 -562q14 36 14 46z" />
    <glyph glyph-name="x" unicode="x" horiz-adv-x="821" 
d="M803 0h-361v28q84 0 84 40q0 26 -52 95l-104 137l-94 -116q-52 -64 -52 -99q0 -52 80 -57v-28h-280v28q97 0 220 156l110 139l-194 254q-21 27 -42 55q-28 32 -53 40q-18 6 -45 6v28h342v-28h-20q-64 1 -64 -33q0 -20 29 -58l129 -171l92 112q48 58 48 94q0 28 -27 43
q-23 13 -53 13v28h276v-28q-57 -4 -119 -56q-37 -31 -92 -98l-108 -131l203 -266q68 -89 116 -97q13 -2 31 -2v-28zM680 676l-8 2h-111q31 -16 31 -47q0 -14 -2 -22l1 -1q1 6 40 35q36 27 49 33zM578 71q0 36 -65 121l-321 422q-27 36 -42 47q-24 17 -60 17l-3 -2q1 1 3 1
q18 0 67 -65l332 -443q53 -71 53 -101q0 -20 -26 -40q62 0 62 43zM214 28q-28 16 -28 39q0 17 8 41l-1 1q4 -4 -13 -18q-10 -8 -89 -63h123z" />
    <glyph glyph-name="y" unicode="y" 
d="M733 678q-62 -8 -141 -142l-148 -252v-180q0 -49 32 -64q16 -8 75 -12v-28h-337v28q95 0 104 50q2 11 2 36v145l-214 357q-23 38 -35 48q-19 16 -57 14v28h330v-28q-53 -2 -59 -4q-35 -7 -35 -37q0 -20 36 -80l144 -241l96 163q52 88 52 135q0 30 -19 47t-49 17v28h223
v-28zM652 678h-87q30 -20 30 -72q18 38 57 72zM368 90v182l-208 350q-20 34 -30 43q-16 13 -50 13q11 -3 43 -56l213 -357v-173q0 -26 -10 -39t-36 -25h22q56 0 56 62z" />
    <glyph glyph-name="z" unicode="z" horiz-adv-x="683" 
d="M658 244l-40 -244h-582v20l458 658h-160q-61 0 -120 -30.5t-94 -79.5q-1 -1 -37 -59h-35l35 197h569v-20l-460 -658h158q50 0 79 8q59 16 115 83q49 58 74 125h40zM181 678h-85l-16 -85q38 53 101 85zM534 660q0 15 -19 18l-455 -650q11 0 31 2q13 4 45 50l376 538
q22 31 22 42zM590 156q-61 -93 -136 -128h97z" />
    <glyph glyph-name="braceleft" unicode="{" horiz-adv-x="342" 
d="M318 -231q-84 0 -146 42q-72 48 -72 128l15 63q14 58 14 109q0 101 -105 117v34q48 7 76.5 37.5t28.5 78.5q0 29 -14.5 85t-14.5 85q0 81 71 129q62 43 147 43v-23q-45 -4 -75 -32.5t-30 -72.5q0 -28 13.5 -83t13.5 -83q0 -64 -52 -117q-48 -51 -113 -64v-2
q165 -53 165 -179q0 -28 -13.5 -83t-13.5 -83q0 -44 30 -72t75 -33v-24zM264 697v2q-1 1 -3 1q-6 0 -48 -22q-18 -9 -51 -28q-46 -31 -46 -100q0 -29 15 -85t15 -85q0 -70 -46 -103h3q31 0 54 44q20 38 20 72q0 26 -13.5 76.5t-13.5 76.5q0 94 114 151zM264 -209
q-148 52 -148 149q0 29 15 85t15 85q0 37 -21 84q-4 9 -8 8l1 1q59 -42 59 -106q0 -26 -13.5 -76.5t-13.5 -76.5q0 -98 114 -151v-2z" />
    <glyph glyph-name="bar" unicode="|" horiz-adv-x="226" 
d="M144 -221h-64v915h64v-915z" />
    <glyph glyph-name="braceright" unicode="}" horiz-adv-x="341" 
d="M318 228q-104 -12 -104 -110q0 -30 14 -89.5t14 -89.5q0 -84 -70 -130q-60 -40 -148 -40v26q102 13 102 105q0 27 -13.5 74.5t-13.5 91.5q0 130 171 176v2l-2 -1q-5 1 -54 27q-21 9 -59 32q-56 44 -56 111q0 30 13.5 89.5t13.5 89.5q0 90 -102 103v25q55 0 94 -13
q52 -17 88 -61t36 -96q0 -30 -14 -88t-14 -88q0 -100 104 -112v-34zM232 278l-1 -1q-49 18 -81 57.5t-32 89.5q0 28 14 83t14 83q0 18 -22 63q-23 49 -37 49q-4 0 -8 -4l1 1q99 -36 99 -126q0 -26 -13.5 -74.5t-13.5 -74.5q0 -93 80 -146zM232 210l-1 1q-51 -16 -82 -55
t-31 -92q0 -28 14 -83t14 -83q0 -73 -67 -107l1 -1q99 36 99 126q0 26 -13.5 74.5t-13.5 74.5q0 89 80 145z" />
    <glyph glyph-name="asciitilde" unicode="~" horiz-adv-x="592" 
d="M565 368q0 -75 -43.5 -118.5t-118.5 -43.5q-24 0 -83 17l-86 24q-29 7 -45 7q-81 0 -115 -48h-47q0 75 43.5 118.5t118.5 43.5q16 0 45 -7l86 -24q59 -17 83 -17q30 0 63 13q38 14 53 35h46zM531 338h-4q-62 -47 -124 -47q-11 0 -43 8l-128 32q-28 7 -43 7q-47 0 -86 -28
q-42 -30 -44 -76h3q43 70 127 70q15 0 45 -8q43 -12 86 -25q61 -17 83 -17q84 0 128 84z" />
    <glyph glyph-name="currency" unicode="&#xa4;" horiz-adv-x="512" 
d="M503 538l-70 -70q43 -61 43 -130t-43 -133l65 -64l-46 -45l-66 64q-68 -42 -131 -42q-65 0 -131 42l-67 -64l-44 45l65 64q-44 59 -44 131q0 77 44 132l-68 67l47 46l67 -67q61 44 130 44q68 0 136 -44l68 67zM412 338q0 64 -46.5 110t-110.5 46t-110.5 -46t-46.5 -110
t46.5 -110.5t110.5 -46.5t110.5 46.5t46.5 110.5z" />
    <glyph glyph-name="brokenbar" unicode="&#xa6;" horiz-adv-x="266" 
d="M172 350h-78v396h78v-396zM172 -216h-78v396h78v-396z" />
    <glyph glyph-name="section" unicode="&#xa7;" horiz-adv-x="475" 
d="M430 290q0 -101 -133 -119l-2 -2q104 -77 104 -152q0 -62 -51 -98q-46 -33 -110 -33q-62 0 -109 32q-53 36 -53 95q0 42 45 42q29 0 38 -21q4 -11 9 -62q4 -44 15 -56q15 -16 60 -16q42 0 72 18q36 21 36 60q0 24 -25 52q-41 47 -136 110q-68 45 -93 69q-52 50 -52 99
q0 59 41 93t101 34l2 2q-109 73 -109 147q0 66 48 102q43 33 111 33q62 0 109 -32q53 -36 53 -95q0 -42 -45 -42q-27 0 -36 21q-5 12 -9 62q-4 43 -16 56q-15 16 -61 16q-106 0 -106 -81q0 -24 26 -52q39 -42 134 -103q66 -42 95 -73q47 -49 47 -106zM377 602q0 53 -55 84
l-1 -1v-3q0 -9 10 -48q2 -16 7 -48q3 -18 18 -18q21 0 21 34zM411 284q0 50 -77 111q-72 54 -144 107q-77 64 -77 122q0 3 1 9.5t1 9.5q0 6 -2 6q-4 0 -10.5 -25t-6.5 -33q0 -60 75 -122q69 -49 138 -99q75 -57 75 -109q0 -9 -6.5 -26.5t-6.5 -26.5q0 -4 2 -4q8 0 23 34.5
t15 45.5zM369 260q0 32 -27 60q-23 23 -54 45q-80 56 -90 56q-33 0 -60 -18q-30 -20 -30 -52q0 -33 24 -59q35 -37 124 -97q15 -10 32 -10q31 0 56 22t25 53zM384 17q0 62 -75 123q-70 49 -141 97q-75 56 -75 107q0 30 15 56l-4 3q-8 -4 -24 -33t-16 -38q0 -57 78 -121
q73 -54 146 -107q78 -62 78 -114q0 -20 -4 -36l2 -1q8 4 15 29q5 22 5 35zM156 -80q-4 33 -15 98q-4 19 -20 19q-21 0 -21 -34q0 -53 55 -84z" />
    <glyph glyph-name="copyright" unicode="&#xa9;" horiz-adv-x="953" 
d="M882 394q0 -177 -131.5 -308.5t-308.5 -131.5q-184 0 -313 128.5t-129 311.5q0 179 131.5 310.5t310.5 131.5q186 0 313 -128t127 -314zM835 394q0 163 -115 279t-278 116q-159 0 -277.5 -118t-118.5 -277t118 -276.5t278 -117.5q158 0 275.5 118t117.5 276zM679 240
q-84 -122 -238 -122q-117 0 -195.5 77.5t-78.5 194.5q0 118 78.5 197.5t195.5 79.5q23 0 68 -12t68 -12q29 0 50 21h30v-166h-23q-72 148 -184 148q-87 0 -135 -86q-40 -70 -40 -164q0 -99 48 -168q55 -80 149 -80q107 0 185 104z" />
    <glyph glyph-name="guillemotleft" unicode="&#xab;" horiz-adv-x="565" 
d="M545 0h-133l-136 243l136 245h133l-139 -245zM289 0h-131l-138 243l138 245h131l-137 -245zM459 16l-127 227l127 227q-25 -2 -44 -24q-8 -9 -29 -45l-92 -158l92 -166q34 -61 73 -61zM204 17l-128 226l128 227h-6q-20 0 -37 -19q-6 -8 -23 -37l-99 -171l99 -176
q28 -50 66 -50z" />
    <glyph glyph-name="logicalnot" unicode="&#xac;" horiz-adv-x="400" 
d="M350 64h-42v125h-258v38h300v-163z" />
    <glyph glyph-name="registered" unicode="&#xae;" horiz-adv-x="953" 
d="M882 394q0 -177 -131.5 -308.5t-308.5 -131.5q-184 0 -313 128.5t-129 311.5q0 179 131.5 310.5t310.5 131.5q186 0 313 -128t127 -314zM835 394q0 163 -115 279t-278 116q-159 0 -277.5 -118t-118.5 -277t118 -276.5t278 -117.5q158 0 275.5 118t117.5 276zM707 150h-64
q-37 0 -69 28q-13 11 -50 57q-23 28 -69 83q-10 13 -32 39q-16 17 -28 17h-38v-147q0 -39 20 -50q14 -8 56 -8v-19h-240v19q39 0 56 9q23 14 23 51v323q0 43 -19 56q-14 10 -60 10v19h273q66 0 113 -31q55 -36 55 -98q0 -51 -42 -87q-36 -32 -90 -42q51 -59 101 -118
q80 -91 104 -92v-19zM538 505q0 113 -118 113q-39 0 -53 -18q-10 -14 -10 -53v-155h56q125 0 125 113z" />
    <glyph glyph-name="degree" unicode="&#xb0;" horiz-adv-x="410" 
d="M370 555q0 -70 -50 -119t-121 -49q-72 0 -120 47t-48 119q0 69 50 117t120 48q71 0 120 -46.5t49 -116.5zM308 545q0 94 -50 127q30 -42 30 -137q0 -50 -24 -100q44 41 44 110zM266 540q0 154 -68 154q-65 0 -65 -122q0 -52 14 -95q20 -61 60 -61q59 0 59 124zM148 413
q-77 71 -77 142q0 73 60 129l-1 2q-82 -55 -82 -139q0 -87 99 -136z" />
    <glyph glyph-name="plusminus" unicode="&#xb1;" horiz-adv-x="562" 
d="M554 68h-546v66h240v172h-240v66h240v240h66v-240h240v-66h-240v-172h240v-66z" />
    <glyph glyph-name="paragraph" unicode="&#xb6;" horiz-adv-x="636" 
d="M559 -192h-333v16q35 0 66 16q38 20 38 51v398h-31q-120 0 -171 51t-51 171q0 123 49.5 172.5t172.5 49.5h254v-16q-92 1 -92 -92v-713q0 -36 26.5 -62t62.5 -26h9v-16zM330 307v410q-84 -6 -112 -69q-18 -40 -18 -137q0 -96 18 -137q28 -61 112 -67zM256 307v2
q-61 19 -80 92q-12 47 -12 110q0 174 92 204v2h-6q-21 0 -41 -3q-117 -18 -117 -203q0 -181 117 -200q24 -4 47 -4zM410 -107v759q0 65 -48 65h-18v-827q0 -45 -40 -64v-2h31q75 0 75 69z" />
    <glyph glyph-name="guillemotright" unicode="&#xbb;" horiz-adv-x="565" 
d="M544 243l-138 -243h-131l137 243l-137 245h131zM288 243l-136 -243h-133l139 243l-139 245h133zM525 243l-99 171q-3 6 -9 19q-20 37 -57 37l128 -227l-128 -226h4q34 0 62 50zM270 243l-92 158q-23 39 -28 45q-18 22 -45 24l127 -227l-127 -227q39 0 73 61z" />
    <glyph glyph-name="Beta" unicode="&#x392;" horiz-adv-x="1000" 
 />
    <glyph glyph-name="Pi" unicode="&#x3a0;" horiz-adv-x="1000" 
 />
    <glyph glyph-name="mu" unicode="&#xb5;" horiz-adv-x="550" 
d="M529 0h-177v86h-2q-55 -97 -124 -97q-10 0 -25 3v-198h-175v18q29 0 49 15t20 43v452q0 72 -64 72v19h34q90 0 136 11v-328q0 -27 13 -48q15 -24 40 -24q32 0 59 31q9 9 40 58v194q0 44 -11 63q-15 24 -56 24v19q126 0 172 11v-323q0 -82 71 -82v-19zM418 84v260
q0 50 -51 50h-21v-3q0 -11 10.5 -28.5t10.5 -30.5v-313h7q44 0 44 65zM161 -136v466q0 35 -13 49.5t-48 14.5h-11v-3q0 -10 10.5 -35t10.5 -41v-444q0 -35 -26 -56v-3h11q33 0 47 9q19 11 19 43z" />
    <glyph glyph-name="mu" unicode="&#x3bc;" horiz-adv-x="550" 
d="M529 0h-177v86h-2q-55 -97 -124 -97q-10 0 -25 3v-198h-175v18q29 0 49 15t20 43v452q0 72 -64 72v19h34q90 0 136 11v-328q0 -27 13 -48q15 -24 40 -24q32 0 59 31q9 9 40 58v194q0 44 -11 63q-15 24 -56 24v19q126 0 172 11v-323q0 -82 71 -82v-19zM418 84v260
q0 50 -51 50h-21v-3q0 -11 10.5 -28.5t10.5 -30.5v-313h7q44 0 44 65zM161 -136v466q0 35 -13 49.5t-48 14.5h-11v-3q0 -10 10.5 -35t10.5 -41v-444q0 -35 -26 -56v-3h11q33 0 47 9q19 11 19 43z" />
    <glyph glyph-name="afii10023" unicode="&#x401;" horiz-adv-x="715" 
d="M515 865q0 -28 -18 -46.5t-46 -18.5t-46.5 17.5t-18.5 45.5q0 29 18 47t47 18q27 0 45.5 -18t18.5 -45zM284 865q0 -28 -18 -46.5t-46 -18.5t-46.5 17.5t-18.5 45.5t18.5 46.5t46.5 18.5q27 0 45.5 -18t18.5 -45zM695 181l-56 -181h-615v28q66 0 88 14.5t22 65.5v482
q0 59 -27 76q-19 12 -83 12v28h590l61 -160h-36q-49 61 -122 96.5t-151 35.5q-53 0 -75 -11q-32 -16 -32 -64v-226h107q128 0 128 121h34v-266h-34q0 117 -126 117h-109v-246q0 -46 31 -63q22 -12 71 -12h17.5h17.5q80 0 146 45q43 30 111 108h42zM461 814v2q0 8 -14 22
t-14 28q0 26 28 45v2h-9q-50 0 -50 -50q0 -49 59 -49zM605 606v4l-37 68h-85q-2 0 -7 -1q37 0 129 -71zM230 814v2q0 8 -14 22t-14 28q0 26 28 45v2h-9q-50 0 -50 -50q0 -49 59 -49zM486 316v98q-20 -33 -70 -50q50 -12 70 -48zM624 109v5q0 -23 -34 -42q-27 -15 -89 -42
l5 -2h83zM182 103v499q0 40 -12 56q-14 20 -54 20q34 -15 34 -85v-487q0 -59 -34 -78q42 0 56 19q10 14 10 56z" />
    <glyph glyph-name="afii10017" unicode="&#x410;" 
d="M734 0h-297v28q77 0 77 42q0 17 -14 53l-56 143h-237l-33 -85q-13 -33 -13 -67q0 -37 22.5 -61.5t58.5 -24.5v-28h-232v28q73 0 125 133l173 443q-24 45 -86 45v21l90 42h90l231 -590q37 -94 101 -94v-28zM563 70q0 27 -18 72l-179 452q-26 63 -65 63q-14 0 -25 -4
q39 -16 61 -71l177 -452q16 -41 16 -62t-27 -40h11q49 0 49 42zM431 298l-107 270l-105 -270h212zM160 28q-30 22 -30 55q0 3 5 35l-1 1q2 -2 2 -5q0 -14 -72 -86h96z" />
    <glyph glyph-name="afii10018" unicode="&#x411;" horiz-adv-x="704" 
d="M664 193q0 -193 -292 -193h-344v27q60 0 85 19q29 23 29 81v468q0 53 -33 71q-23 13 -81 13v27h545l61 -162h-37q-107 135 -241 135q-52 0 -69 -12q-21 -16 -21 -69v-202h42q27 1 41 1q176 0 245.5 -55.5t69.5 -148.5zM578 600l-50 79h-71q-1 0 -6 -2q3 1 8 1
q34 0 117 -83zM576 194q0 67 -27 111q-32 50 -94 59l-3 -2q93 -52 93 -166q0 -117 -93 -164l3 -1q121 31 121 163zM528 194q0 175 -192 175h-70v-239q0 -58 16 -78q18 -25 74 -25q172 0 172 167zM190 103v500q0 38 -9 54q-12 22 -47 22h-13q24 -15 30.5 -30.5t6.5 -45.5
v-487q0 -63 -42 -89q42 0 58 17t16 59z" />
    <glyph glyph-name="afii10019" unicode="&#x412;" horiz-adv-x="715" 
d="M674 176q0 -176 -268 -176h-376v28q57 0 78 13q29 18 29 74v469q0 60 -24 79q-21 15 -83 15v28h392q92 0 157 -43q75 -49 75 -137q0 -69 -57 -114q-49 -39 -123 -49v-3q200 -39 200 -184zM568 528q0 55 -31 101q-34 52 -87 52l-5 -3q93 -32 93 -155q0 -105 -82 -145l6 -1
q106 39 106 151zM519 524q0 44 -18 84q-22 47 -58 60q-29 10 -83 10q-49 0 -70 -13q-28 -17 -28 -65v-223h94q55 0 82 10q40 13 60.5 52t20.5 85zM580 182q0 105 -73 151q-25 16 -53 16q-2 0 -6 -1q102 -39 102 -164q0 -126 -100 -160l7 -2q123 22 123 160zM534 184
q0 76 -41.5 120.5t-116.5 44.5h-114v-246q0 -46 39 -63q26 -12 80 -12q153 0 153 156zM186 103v500q0 40 -10 55q-13 20 -50 20h-14q42 -18 42 -78v-490q0 -63 -42 -82h14q60 0 60 75z" />
    <glyph glyph-name="afii10020" unicode="&#x413;" horiz-adv-x="659" 
d="M650 544h-37q-119 135 -268 135q-46 0 -61.5 -16t-15.5 -62v-495q0 -50 32 -65q28 -13 91 -13v-28h-355v28q66 0 85 17q23 19 23 83v461q0 58 -28 76q-21 14 -83 14v27h556zM590 600l-52 79h-77q19 -1 67 -34q39 -28 61 -50zM447 679v0q-2 0 -4 -2l3 2h1zM192 590
q0 48 -11 66q-15 23 -61 23q40 -15 40 -73v-498q0 -63 -36 -80q44 0 58 25q10 18 10 66v471z" />
    <glyph glyph-name="afii10021" unicode="&#x414;" horiz-adv-x="809" 
d="M791 -138h-36q-26 51 -85 94q-63 44 -117 44h-325q-64 0 -116.5 -38.5t-80.5 -99.5h-31l36 166h92q43 43 58 102q11 42 11 117v338q0 93 -135 93v28h684v-28q-53 0 -74 -11q-31 -16 -31 -64v-500q0 -49 28 -63q25 -12 86 -12zM565 103v500q0 38 -8 53q-11 22 -46 22h-14
q36 -16 36 -77v-495q0 -32 -5 -45q-7 -20 -31 -33h16q52 0 52 75zM253 678h-99q42 -16 51 -52q10 32 48 52zM517 107v493q0 45 -20.5 61.5t-66.5 16.5h-73q-130 0 -130 -93v-339q0 -157 -45 -218h236q54 0 73 12q26 17 26 67zM737 -80l-20 80h-91q64 -29 108 -80h3zM109 0
h-61l-20 -85q36 52 81 85z" />
    <glyph glyph-name="afii10022" unicode="&#x415;" horiz-adv-x="713" 
d="M695 181l-56 -181h-615v28q66 0 88 14.5t22 65.5v482q0 59 -27 76q-19 12 -83 12v28h590l61 -160h-36q-49 61 -122 96.5t-151 35.5q-53 0 -75 -11q-32 -16 -32 -64v-226h107q128 0 128 121h34v-266h-34q0 117 -126 117h-109v-246q0 -46 31 -63q22 -12 71 -12h17.5h17.5
q80 0 146 45q43 30 111 108h42zM605 606v4l-37 68h-85q-2 0 -7 -1q37 0 129 -71zM486 316v98q-20 -33 -70 -50q50 -12 70 -48zM624 109v5q0 -23 -34 -42q-27 -15 -89 -42l5 -2h83zM182 103v499q0 40 -12 56q-14 20 -54 20q34 -15 34 -85v-487q0 -59 -34 -78q42 0 56 19
q10 14 10 56z" />
    <glyph glyph-name="afii10024" unicode="&#x416;" horiz-adv-x="1217" 
d="M1217 0h-336v28q80 0 80 36q0 19 -29 55l-198 247l-63 -56v-207q0 -46 32 -63q22 -12 71 -12v-28h-331v28q50 0 72 12q31 16 31 63v207l-63 56l-198 -247q-29 -36 -29 -55q0 -36 80 -36v-28h-336v28q37 0 72 31q16 14 53 60l265 331l-121 107q-122 108 -214 121v28h300
v-28q-80 0 -80 -50q0 -37 68 -98l203 -182v249q0 51 -28 68q-20 13 -75 13v28h331v-28q-56 0 -76 -12q-27 -17 -27 -69v-249l203 182q68 61 68 98q0 50 -80 50v28h300v-28q-92 -13 -214 -121l-121 -107l265 -331q63 -79 99 -88q12 -3 26 -3v-28zM1058 678h-122
q23 -20 23 -43q0 -13 -7 -31q60 52 106 74zM1011 68q0 27 -39 76l-202 254l-23 -20l189 -240q42 -53 42 -76q0 -21 -25 -34h13q18 0 31.5 11t13.5 29zM594 103v500q0 40 -13 57.5t-53 17.5v-2q34 -24 34 -80v-490q0 -61 -39 -76v-2q42 0 56.5 16.5t14.5 58.5zM256 678h-117
q54 -31 101 -74q-5 15 -5 34t21 40zM424 418l-22 21l-263 -331q-29 -36 -35 -43q-23 -25 -43 -35v-2q0 -6 5 -6q11 0 48.5 26.5t46.5 38.5z" />
    <glyph glyph-name="afii10025" unicode="&#x417;" horiz-adv-x="684" 
d="M642 176q0 -191 -295 -191q-13 0 -148 26q-26 5 -38 5q-50 0 -60 -31h-32v244h32q30 -213 246 -213q76 0 117 47q38 44 38 121q0 76 -40 122q-43 48 -118 48h-87v27h74q56 0 80 8q36 13 58 55q18 34 18 80q0 113 -90 155q-25 12 -69 12q-76 0 -138.5 -60t-68.5 -137h-30
v226h36q11 -26 46 -26q14 0 83 13q64 12 134 12q91 0 158 -50q74 -55 74 -143q0 -69 -54 -112q-48 -37 -120 -45v-3q0 2 3 2q9 0 66 -27q24 -10 66 -34q59 -47 59 -131zM536 528q0 56 -31 107q-35 59 -87 59l-5 -3q3 2 6 2q11 0 34 -25q53 -58 53 -145q0 -105 -76 -142h3
q45 0 76 53q27 45 27 94zM162 652q-23 0 -54 28v-106q22 50 54 78zM548 182q0 66 -30 112q-33 51 -95 60l-7 -6q102 -39 102 -164q0 -139 -100 -173l7 -2q123 23 123 173zM138 47q-34 29 -53 84v-112q13 25 53 28z" />
    <glyph glyph-name="afii10026" unicode="&#x418;" horiz-adv-x="874" 
d="M845 0h-334v28q59 0 82 13.5t23 65.5v411h-3l-329 -356q-24 -26 -24 -59q0 -47 31 -63q21 -12 73 -12v-28h-334v28q57 0 77 11q28 16 28 68v492q0 52 -23 65.5t-82 13.5v28h334v-28q-50 0 -72 -12q-32 -17 -32 -63v-417h3l329 357q24 26 24 57q0 48 -32 65q-22 13 -73 13
v28h334v-28q-53 0 -74 -11q-31 -16 -31 -64v-500q0 -49 31 -64q20 -11 74 -11v-28zM664 103v500q0 38 -8 53q-11 22 -46 22h-14q36 -16 36 -77v-495q0 -32 -5 -45q-7 -20 -31 -33h16q52 0 52 75zM184 103v500q0 41 -14 58t-54 17q36 -23 36 -78v-495q0 -32 -5 -45
q-7 -16 -31 -32h15q53 0 53 75z" />
    <glyph glyph-name="afii10027" unicode="&#x419;" horiz-adv-x="875" 
d="M611 833q0 -61 -118 -61h-110q-118 0 -118 61q0 32 50 82h41q-20 -38 -20 -66q0 -59 78 -59h48q78 0 78 59q0 28 -20 66h40q51 -49 51 -82zM845 0h-334v28q59 0 82 13.5t23 65.5v411h-3l-329 -356q-24 -26 -24 -59q0 -47 31 -63q21 -12 73 -12v-28h-334v28q57 0 77 11
q28 16 28 68v492q0 52 -23 65.5t-82 13.5v28h334v-28q-50 0 -72 -12q-32 -17 -32 -63v-417h3l329 357q24 26 24 57q0 48 -32 65q-22 13 -73 13v28h334v-28q-53 0 -74 -11q-31 -16 -31 -64v-500q0 -49 31 -64q20 -11 74 -11v-28zM572 840q0 36 -24 63h-12q16 -26 16 -58
q0 -49 -51 -59v-3q71 24 71 57zM375 783v3q-78 14 -78 50q0 27 32 67h-12q-40 -40 -40 -69q0 -51 98 -51zM664 103v500q0 38 -8 53q-11 22 -46 22h-14q36 -16 36 -77v-495q0 -32 -5 -45q-7 -20 -31 -33h16q52 0 52 75zM184 103v500q0 41 -14 58t-54 17q36 -23 36 -78v-495
q0 -32 -5 -45q-7 -16 -31 -32h15q53 0 53 75z" />
    <glyph glyph-name="afii10028" unicode="&#x41a;" horiz-adv-x="815" 
d="M812 0h-336v28q80 0 80 36q0 19 -29 55l-198 247l-63 -56v-207q0 -46 32 -63q22 -12 71 -12v-28h-342v28q60 0 81 10q33 16 33 70v485q0 56 -24 70.5t-90 14.5v28h342v-28q-56 0 -76 -12q-27 -17 -27 -69v-249l203 182q68 61 68 98q0 50 -80 50v28h300v-28
q-92 -13 -214 -121l-121 -107l265 -331q64 -79 99 -88q13 -3 26 -3v-28zM653 678h-122q23 -20 23 -43q0 -13 -7 -31q60 52 106 74zM606 68q0 27 -39 76l-202 254l-23 -20l189 -240q42 -53 42 -76q0 -21 -25 -34h13q18 0 31.5 11t13.5 29zM189 103v500q0 41 -14.5 58
t-55.5 17q25 -11 32 -29q6 -13 6 -44v-499q0 -33 -6 -48q-9 -20 -36 -30h13q37 0 50 21q11 17 11 54z" />
    <glyph glyph-name="afii10029" unicode="&#x41b;" horiz-adv-x="790" 
d="M760 0h-334v28q58 0 77 11q28 16 28 68v493q0 47 -23 64q-18 13 -68 15l4 -1q-11 -1 -24 -1h-25q-16 1 -24 1q-130 0 -130 -93v-398q0 -90 -20 -134q-30 -65 -109 -65q-47 0 -78 22q-34 24 -34 70q0 23 14 40.5t36 17.5q27 0 42 -20t15 -48q0 -54 29 -54q38 0 59 54
q16 40 16 86v429q0 59 -46 80q-29 13 -98 13v28h693v-28q-53 0 -74 -11q-31 -16 -31 -64v-500q0 -48 31 -64q21 -11 74 -11v-28zM579 103v500q0 38 -8 53q-11 22 -46 22h-14q36 -16 36 -77v-495q0 -32 -5 -45q-7 -20 -31 -33h16q52 0 52 75zM267 678h-99q42 -16 51 -52
q10 32 48 52zM86 6q-40 37 -40 65q0 23 21 23q16 0 16 4q0 6 -12 14t-19 8q-16 0 -26 -13t-10 -29q0 -50 69 -74z" />
    <glyph glyph-name="afii10030" unicode="&#x41c;" horiz-adv-x="949" 
d="M912 0h-323v28q99 0 99 85v503l-248 -616h-30l-245 597v-418q0 -64 24 -103q29 -48 89 -48v-28h-252v28q109 0 109 149v458q-37 43 -109 43v28h228l223 -535l219 535h216v-28q-99 0 -99 -75v-501q0 -45 30 -62q22 -12 69 -12v-28zM753 678q-32 0 -42 -24q-7 -15 -7 -51
v-498q0 -31 -5 -45q-8 -19 -31 -32h17q33 0 44 22q7 15 7 52v501q0 55 17 75zM431 62q0 14 -15 50l-195 474q-19 46 -34 64q-25 28 -65 28h-18q34 -12 54 -39q11 -16 30 -61l232 -550q11 20 11 34zM188 28q-40 19 -50 65q-17 -46 -50 -65h100z" />
    <glyph glyph-name="afii10031" unicode="&#x41d;" horiz-adv-x="875" 
d="M845 0h-334v28q59 0 82 13.5t23 65.5v238h-356v-242q0 -46 31 -63q22 -12 73 -12v-28h-334v28q57 0 77 11q28 16 28 68v492q0 52 -23 65.5t-82 13.5v28h334v-28q-50 0 -72 -12q-32 -17 -32 -63v-221h356v218q0 48 -32 65q-22 13 -73 13v28h334v-28q-53 0 -74 -11
q-31 -16 -31 -64v-500q0 -49 31 -64q20 -11 74 -11v-28zM664 103v500q0 38 -8 53q-11 22 -46 22h-14q36 -16 36 -77v-495q0 -32 -5 -45q-7 -20 -31 -33h16q52 0 52 75zM184 103v500q0 41 -14 58t-54 17q36 -23 36 -78v-495q0 -32 -5 -45q-7 -16 -31 -32h15q53 0 53 75z" />
    <glyph glyph-name="afii10032" unicode="&#x41e;" horiz-adv-x="832" 
d="M790 356q0 -160 -113.5 -265t-274.5 -105q-157 0 -258.5 106.5t-101.5 263.5q0 165 105 264.5t270 99.5q159 0 266 -103t107 -261zM696 332q0 236 -137 322q-53 33 -71 30q176 -90 176 -359q0 -165 -86 -265q63 30 94 118q24 68 24 154zM648 318q0 138 -57 244
q-71 130 -197 130q-106 0 -164 -93q-50 -79 -50 -191q0 -111 32 -203q39 -114 118 -162q48 -29 98 -29q44 0 86 21q70 35 105 121q29 72 29 162zM304 12l-1 2q-213 100 -213 350q0 172 141 300h-3q-170 -104 -170 -305q0 -126 64 -218t182 -129z" />
    <glyph glyph-name="afii10033" unicode="&#x41f;" horiz-adv-x="875" 
d="M845 0h-334v28q58 0 81.5 13.5t23.5 65.5v493q0 45 -20.5 61.5t-66.5 16.5h-183q-45 0 -64 -15q-22 -17 -22 -60v-500q0 -47 31 -63q21 -12 73 -12v-28h-334v28q57 0 77 11q28 16 28 68v491q0 53 -22.5 66.5t-82.5 13.5v28h815v-28q-53 0 -74 -11q-31 -16 -31 -64v-500
q0 -48 25 -61.5t80 -13.5v-28zM664 103v500q0 38 -8 53q-11 22 -46 22h-14q36 -16 36 -77v-495q0 -32 -5 -45q-7 -20 -31 -33h16q52 0 52 75zM184 103v500q0 41 -14 58t-54 17q36 -23 36 -79v-494q0 -32 -5 -45q-7 -16 -31 -32h15q53 0 53 75z" />
    <glyph glyph-name="afii10034" unicode="&#x420;" horiz-adv-x="699" 
d="M666 513q0 -97 -70 -144q-55 -37 -159 -46q-33 -3 -169 -3v-212q0 -50 41 -68q27 -12 85 -12v-28h-364v28q61 0 85 17q29 21 29 80v454q0 62 -27 83q-22 17 -87 17v27h344q292 0 292 -193zM578 512q0 132 -121 163l-3 -1q93 -46 93 -164q0 -120 -93 -157l3 -1
q121 18 121 160zM530 512q0 167 -172 167q-56 0 -74 -25q-16 -20 -16 -78v-228h70q94 0 140 34q52 39 52 130zM192 103v494q0 44 -15.5 63t-58.5 19q28 -15 35 -29t7 -48v-503q0 -55 -37 -71h13q56 0 56 75z" />
    <glyph glyph-name="afii10035" unicode="&#x421;" 
d="M725 150q-113 -164 -318 -164q-154 0 -259.5 104.5t-105.5 258.5q0 153 104 261.5t257 108.5q32 0 93 -16t93 -16q39 0 66 28h40v-221h-30q-96 197 -245 197q-118 0 -180 -112q-51 -91 -51 -219q0 -131 63 -225q72 -109 197 -109q144 0 246 140zM635 589l-3 85
q-21 -10 -49 -10h-13q-5 0 -11 2q25 -19 76 -77zM381 0q-127 32 -207 126q-84 98 -84 226q0 80 35.5 154.5t96.5 126.5q34 29 83 60q-246 -93 -246 -339q0 -144 89 -241t233 -113z" />
    <glyph glyph-name="afii10036" unicode="&#x422;" horiz-adv-x="743" 
d="M725 540h-36q-46 79 -107 109q-54 27 -150 29v-568q0 -48 23 -64t89 -18v-28h-350v28q62 1 83 13q30 18 30 75v562q-86 0 -147 -35q-49 -29 -111 -103h-31l36 166h635zM668 598l-22 80h-94q61 -19 116 -80zM146 678h-80l-20 -85q43 57 100 85zM356 618q0 57 -32 60v-568
q0 -57 -36 -82h11q36 0 49 28q8 18 8 59v503z" />
    <glyph glyph-name="afii10037" unicode="&#x423;" horiz-adv-x="736" 
d="M727 678q-46 0 -88 -65q-17 -27 -54 -106l-188 -408q-28 -61 -48 -81q-30 -32 -85 -32q-47 0 -78 22q-34 24 -34 70q0 23 14 40.5t36 17.5q25 0 41 -19q4 -4 15 -56q10 -44 29 -44q24 0 49.5 27.5t25.5 52.5q0 16 -11 38l-224 458q-23 47 -41 63q-25 22 -71 22v28h320
v-28q-76 0 -76 -45q0 -30 19 -68l155 -312h2l114 247q21 46 21 93q0 38 -21 61.5t-58 23.5v28h236v-28zM649 676v2h-102q40 -22 43 -79q23 47 59 77zM388 163q0 12 -15 43l-188 391q-22 45 -35 59q-22 22 -63 22v-2q10 -6 30 -33t27 -42l233 -479q11 24 11 41zM238 4
q-40 37 -40 65q0 23 21 23q16 0 16 4q0 6 -12 14t-19 8q-16 0 -26 -13t-10 -29q0 -50 69 -74z" />
    <glyph glyph-name="afii10038" unicode="&#x424;" horiz-adv-x="940" 
d="M910 363q0 -85 -67 -143q-51 -44 -148 -55q-31 -3 -162 -3v-46q0 -51 27 -71q23 -17 76 -17v-28h-333v28q65 0 85 17.5t20 80.5q0 6 -1 18v18h-36q-24 -1 -36 -1q-169 0 -237 57t-68 142q0 86 67 142q51 43 148 53q31 3 162 3v31q0 51 -28 71q-23 18 -76 18v28h333v-28
q-68 0 -88 -27q-15 -22 -15 -93h40q26 1 40 1q162 0 229.5 -53.5t67.5 -142.5zM707 525l-3 1l-6 -1h9zM822 359q0 88 -47 134q-22 22 -47 25q24 -4 45 -70q18 -55 18 -89q0 -125 -93 -165l6 -2q118 18 118 167zM774 360q0 82 -45 126.5t-127 44.5h-69v-342h69q82 0 127 44.5
t45 126.5zM455 81v531q0 66 -72 66q26 -11 33.5 -27.5t7.5 -47.5v-510q0 -42 -41 -65q72 0 72 53zM407 189v342h-69q-82 0 -127 -44.5t-45 -126.5t45 -126.5t127 -44.5h69zM197 194q-54 22 -86.5 65.5t-32.5 100.5q0 122 119 164l-6 2q-64 -14 -104 -58t-40 -108t40 -109
t104 -59z" />
    <glyph glyph-name="afii10039" unicode="&#x425;" horiz-adv-x="816" 
d="M801 0h-361v28q84 0 84 40q0 26 -52 95l-104 137l-94 -116q-52 -64 -52 -99q0 -52 80 -57v-28h-280v28q97 0 220 156l110 139l-194 254q-21 27 -42 55q-28 32 -53 40q-18 6 -45 6v28h342v-28h-20q-64 1 -64 -33q0 -20 29 -58l129 -171l92 112q48 58 48 94q0 28 -27 43
q-23 13 -53 13v28h276v-28q-57 -4 -119 -56q-37 -31 -92 -98l-108 -131l203 -266q68 -89 116 -97q13 -2 31 -2v-28zM678 676l-8 2h-111q31 -16 31 -47q0 -14 -2 -22l1 -1q1 6 40 35q36 27 49 33zM576 71q0 36 -65 121l-321 422q-27 36 -42 47q-24 17 -60 17l-3 -2q1 1 3 1
q18 0 67 -65l332 -443q53 -71 53 -101q0 -20 -26 -40q62 0 62 43zM212 28q-28 16 -28 39q0 17 8 41l-1 1q4 -4 -13 -18q-10 -8 -89 -63h123z" />
    <glyph glyph-name="afii10040" unicode="&#x426;" horiz-adv-x="879" 
d="M888 -138h-36q-36 60 -90 97q-60 41 -125 41h-607v28q60 0 79 13q25 18 25 75v473q0 50 -28 71q-24 18 -76 18v28h333v-28q-54 0 -77 -17q-26 -20 -26 -72v-473q0 -51 27 -71q23 -17 76 -17h153q54 0 74.5 17.5t20.5 70.5v473q0 51 -28 71q-23 18 -76 18v28h333v-28
q-54 0 -77 -17q-26 -20 -26 -72v-473q0 -56 32 -74q23 -14 83 -14zM659 81v531q0 66 -72 66q26 -11 33.5 -27.5t7.5 -47.5v-510q0 -42 -41 -65q72 0 72 53zM831 -80l-22 80h-94q61 -19 116 -80zM182 81v531q0 66 -72 66q27 -9 35 -29q6 -13 6 -46v-510q0 -42 -41 -65
q72 0 72 53z" />
    <glyph glyph-name="afii10041" unicode="&#x427;" horiz-adv-x="724" 
d="M694 0h-362v28q65 0 92 12q41 19 41 76v207q-65 -14 -130 -14q-189 0 -222 120q-9 32 -9 141q0 53 -16 78q-20 30 -70 30v28h300v-28q-49 0 -69 -20t-20 -69v-81q0 -86 20 -122q27 -50 106 -50q65 0 110 15v238q0 51 -21.5 70t-72.5 19v28h323v-28q-54 0 -77 -17
q-26 -20 -26 -72v-473q0 -51 27 -71q23 -17 76 -17v-28zM513 81v531q0 66 -72 66q26 -11 33.5 -27.5t7.5 -47.5v-510q0 -42 -41 -65q72 0 72 53zM244 337q-50 34 -69 65q-24 40 -24 111v99q0 66 -68 66q29 -15 35 -49q2 -9 2 -64q0 -100 15 -143q26 -72 106 -86z" />
    <glyph glyph-name="afii10042" unicode="&#x428;" horiz-adv-x="1245" 
d="M1215 0h-1185v28q61 0 79 13q25 17 25 75v473q0 50 -28 71q-24 18 -76 18v28h333v-28q-54 0 -77 -17q-26 -20 -26 -72v-473q0 -51 27 -71q23 -17 76 -17h100q54 0 75.5 17.5t21.5 70.5v473q0 50 -28 71q-24 18 -76 18v28h333v-28q-54 0 -77 -17q-26 -20 -26 -72v-473
q0 -88 93 -88h103q60 0 79 13q25 17 25 75v473q0 50 -28 71q-24 18 -76 18v28h333v-28q-54 0 -77 -17q-26 -20 -26 -72v-473q0 -51 27 -71q23 -17 76 -17v-28zM1034 81v531q0 66 -72 66q27 -9 35 -29q6 -13 6 -46v-510q0 -42 -41 -65q72 0 72 53zM608 81v531q0 66 -72 66
q27 -9 35 -29q6 -13 6 -46v-510q0 -42 -41 -65q72 0 72 53zM182 81v531q0 66 -72 66q27 -9 35 -29q6 -13 6 -46v-510q0 -42 -41 -65q72 0 72 53z" />
    <glyph glyph-name="afii10043" unicode="&#x429;" horiz-adv-x="1248" 
d="M1263 -138h-36q-36 61 -97 99.5t-130 38.5h-970v28q61 0 80 13q24 17 24 75v473q0 50 -28 71q-24 18 -76 18v28h333v-28q-54 0 -77 -17q-26 -20 -26 -72v-473q0 -51 27 -71q23 -17 76 -17h100q54 0 75.5 17.5t21.5 70.5v473q0 50 -28 71q-24 18 -76 18v28h333v-28
q-54 0 -77 -17q-26 -20 -26 -72v-473q0 -88 93 -88h103q60 0 79 13q25 17 25 75v473q0 50 -28 71q-24 18 -76 18v28h333v-28q-54 0 -77 -17q-26 -20 -26 -72v-473q0 -55 32 -74q23 -14 83 -14zM1034 81v531q0 66 -72 66q27 -9 35 -29q6 -13 6 -46v-510q0 -42 -41 -65
q72 0 72 53zM1206 -80l-22 80h-90v-3l1 1q8 -2 54 -35t57 -43zM608 81v531q0 66 -72 66q27 -9 35 -29q6 -13 6 -46v-510q0 -42 -41 -65q72 0 72 53zM182 81v531q0 66 -72 66q27 -9 35 -29q6 -13 6 -46v-510q0 -42 -41 -65q72 0 72 53z" />
    <glyph glyph-name="afii10044" unicode="&#x42a;" horiz-adv-x="803" 
d="M794 193q0 -193 -292 -193h-361v27q71 0 101 18.5t30 81.5v468q0 32 -13 55q-16 29 -46 29q-53 0 -102 -45q-41 -38 -66 -94h-30l36 166h462v-27q-58 0 -82 -12q-35 -18 -35 -69v-202h42q27 1 41 1q176 0 245.5 -55.5t69.5 -148.5zM706 194q0 67 -27 111q-32 50 -94 59
l-3 -2q93 -52 93 -166q0 -117 -93 -164l3 -1q121 31 121 163zM143 679h-79l-20 -86h2q40 55 97 86zM658 194q0 175 -192 175h-70v-239q0 -58 16 -78q18 -25 74 -25q172 0 172 167zM320 103v500q0 76 -56 76h-10q34 -25 34 -84v-479q0 -63 -42 -89q42 0 58 17t16 59z" />
    <glyph glyph-name="afii10045" unicode="&#x42b;" horiz-adv-x="1027" 
d="M996 0h-333v28q61 0 80 13q24 17 24 75v473q0 51 -28 71q-23 18 -76 18v28h333v-28q-54 0 -77 -17q-26 -20 -26 -72v-473q0 -51 27 -71q23 -17 76 -17v-28zM667 193q0 -193 -292 -193h-344v28q60 0 85 19q29 22 29 80v468q0 54 -27 68.5t-87 14.5v28h355v-28
q-61 0 -87 -13q-30 -15 -30 -67v-202h42q27 1 41 1q176 0 245.5 -55.5t69.5 -148.5zM815 81v531q0 66 -72 66q26 -11 33.5 -27.5t7.5 -47.5v-510q0 -42 -41 -65q72 0 72 53zM579 194q0 67 -27 111q-32 50 -94 59l-3 -2q93 -54 93 -166q0 -117 -93 -164l3 -1q121 31 121 163z
M531 194q0 175 -192 175h-70v-239q0 -57 16 -78q18 -24 74 -24q172 0 172 166zM193 103v500q0 38 -9 53q-12 22 -47 22h-13q37 -22 37 -75v-487q0 -63 -42 -88q42 0 58 16.5t16 58.5z" />
    <glyph glyph-name="afii10046" unicode="&#x42c;" horiz-adv-x="699" 
d="M666 193q0 -193 -292 -193h-344v27q60 0 85 19q29 23 29 81v468q0 53 -33 71q-23 13 -81 13v27h355v-27q-58 0 -82 -12q-35 -18 -35 -69v-202h42q27 1 41 1q176 0 245.5 -55.5t69.5 -148.5zM578 194q0 67 -27 111q-32 50 -94 59l-3 -2q93 -52 93 -166q0 -117 -93 -164
l3 -1q121 31 121 163zM530 194q0 175 -192 175h-70v-239q0 -58 16 -78q18 -25 74 -25q172 0 172 167zM192 103v500q0 38 -9 54q-12 22 -47 22h-13q24 -15 30.5 -30.5t6.5 -45.5v-487q0 -63 -42 -89q42 0 58 17t16 59z" />
    <glyph glyph-name="afii10047" unicode="&#x42d;" 
d="M704 349q0 -154 -105.5 -258.5t-259.5 -104.5q-205 0 -318 164l30 16q102 -140 246 -140q54 0 102 24q79 40 120 127q36 77 38 174h-143q-129 0 -128 -117h-34v266h34q-1 -122 128 -122h143q-4 126 -54 209q-62 104 -177 104q-85 0 -154 -57t-91 -140h-30v221h40
q24 -28 58 -28q29 0 76 10q37 9 75 17q26 5 39 5q159 0 262 -105.5t103 -264.5zM607 353q0 126 -40 205q-47 91 -155 135l-5 -2q167 -83 167 -332q0 -122 -47 -208q-54 -100 -162 -133l4 -4q118 25 181 124q57 89 57 215zM135 652q-36 0 -67 28v-106q29 49 67 78zM319 365
q-32 19 -52 54v-108q18 35 52 54z" />
    <glyph glyph-name="afii10048" unicode="&#x42e;" horiz-adv-x="1170" 
d="M1128 356q0 -160 -113.5 -265t-274.5 -105q-155 0 -257.5 104.5t-102.5 260.5h-117v-235q0 -90 103 -88v-28h-333v28q104 -2 104 89v472q0 91 -104 89v28h333v-28q-103 2 -103 -89v-211h117q0 148 115 247q110 94 260 94q158 0 265.5 -102.5t107.5 -260.5zM1034 332
q0 236 -137 322q-53 33 -71 30q176 -90 176 -359q0 -165 -86 -265q63 30 94 118q24 68 24 154zM986 318q0 138 -57 244q-71 129 -197 129q-105 0 -164 -92q-50 -79 -50 -191q0 -111 32 -203q39 -114 118 -162q48 -29 98 -29q44 0 86 21q70 35 105 121q29 72 29 162zM642 12
l-1 2q-213 100 -213 350q0 172 141 300h-3q-170 -104 -170 -305q0 -126 64 -218t182 -129zM185 117v474q0 46 -11 64q-15 23 -58 23q37 -19 37 -87v-475q0 -67 -40 -88q45 0 60 23q12 18 12 66z" />
    <glyph glyph-name="afii10049" unicode="&#x42f;" horiz-adv-x="735" 
d="M705 0h-342v28q53 0 76 18q28 20 28 71v203h-33q-18 -11 -75 -82q-43 -55 -85 -110q-56 -68 -95 -97q-42 -31 -88 -31h-94v28q47 0 103 62q15 16 78 101q66 89 109 132q-218 21 -218 188q0 108 95 157q73 38 192 38h349v-27q-66 0 -88 -16q-26 -21 -26 -84v-462
q0 -55 31 -74q25 -15 83 -15v-28zM467 348v228q0 58 -15 79q-19 24 -75 24q-172 0 -172 -168q0 -91 52 -130q45 -33 140 -33h70zM515 82v531q0 66 -72 66q26 -11 34 -30q7 -14 7 -45v-510q0 -43 -41 -66q72 0 72 54zM209 676q-5 4 -10 4q-13 0 -46 -28q-39 -33 -53.5 -62.5
t-14.5 -79.5q0 -122 120 -154l3 1q-92 56 -92 153q0 108 93 166zM343 320h-39q-50 -55 -93 -114q-46 -64 -71 -94q-46 -56 -82 -82q8 -7 18 -7q44 0 188 197q44 61 79 100z" />
    <glyph glyph-name="afii10065" unicode="&#x430;" 
d="M734 0h-297v28q77 0 77 42q0 17 -14 53l-56 143h-237l-33 -85q-13 -33 -13 -67q0 -37 22.5 -61.5t58.5 -24.5v-28h-232v28q73 0 125 133l173 443q-24 45 -86 45v21l90 42h90l231 -590q37 -94 101 -94v-28zM563 70q0 27 -18 72l-179 452q-26 63 -65 63q-14 0 -25 -4
q39 -16 61 -71l177 -452q16 -41 16 -62t-27 -40h11q49 0 49 42zM431 298l-107 270l-105 -270h212zM160 28q-30 22 -30 55q0 3 5 35l-1 1q2 -2 2 -5q0 -14 -72 -86h96z" />
    <glyph glyph-name="afii10066" unicode="&#x431;" horiz-adv-x="704" 
d="M664 193q0 -193 -292 -193h-344v27q60 0 85 19q29 23 29 81v468q0 53 -33 71q-23 13 -81 13v27h545l61 -162h-37q-107 135 -241 135q-52 0 -69 -12q-21 -16 -21 -69v-202h42q27 1 41 1q176 0 245.5 -55.5t69.5 -148.5zM578 600l-50 79h-71q-1 0 -6 -2q3 1 8 1
q34 0 117 -83zM576 194q0 67 -27 111q-32 50 -94 59l-3 -2q93 -52 93 -166q0 -117 -93 -164l3 -1q121 31 121 163zM528 194q0 175 -192 175h-70v-239q0 -58 16 -78q18 -25 74 -25q172 0 172 167zM190 103v500q0 38 -9 54q-12 22 -47 22h-13q24 -15 30.5 -30.5t6.5 -45.5
v-487q0 -63 -42 -89q42 0 58 17t16 59z" />
    <glyph glyph-name="afii10067" unicode="&#x432;" horiz-adv-x="715" 
d="M674 176q0 -176 -268 -176h-376v28q57 0 78 13q29 18 29 74v469q0 60 -24 79q-21 15 -83 15v28h392q92 0 157 -43q75 -49 75 -137q0 -69 -57 -114q-49 -39 -123 -49v-3q200 -39 200 -184zM568 528q0 55 -31 101q-34 52 -87 52l-5 -3q93 -32 93 -155q0 -105 -82 -145l6 -1
q106 39 106 151zM519 524q0 44 -18 84q-22 47 -58 60q-29 10 -83 10q-49 0 -70 -13q-28 -17 -28 -65v-223h94q55 0 82 10q40 13 60.5 52t20.5 85zM580 182q0 105 -73 151q-25 16 -53 16q-2 0 -6 -1q102 -39 102 -164q0 -126 -100 -160l7 -2q123 22 123 160zM534 184
q0 76 -41.5 120.5t-116.5 44.5h-114v-246q0 -46 39 -63q26 -12 80 -12q153 0 153 156zM186 103v500q0 40 -10 55q-13 20 -50 20h-14q42 -18 42 -78v-490q0 -63 -42 -82h14q60 0 60 75z" />
    <glyph glyph-name="afii10068" unicode="&#x433;" horiz-adv-x="659" 
d="M650 544h-37q-119 135 -268 135q-46 0 -61.5 -16t-15.5 -62v-495q0 -50 32 -65q28 -13 91 -13v-28h-355v28q66 0 85 17q23 19 23 83v461q0 58 -28 76q-21 14 -83 14v27h556zM590 600l-52 79h-77q19 -1 67 -34q39 -28 61 -50zM447 679v0q-2 0 -4 -2l3 2h1zM192 590
q0 48 -11 66q-15 23 -61 23q40 -15 40 -73v-498q0 -63 -36 -80q44 0 58 25q10 18 10 66v471z" />
    <glyph glyph-name="afii10069" unicode="&#x434;" horiz-adv-x="809" 
d="M791 -138h-36q-26 51 -85 94q-63 44 -117 44h-325q-64 0 -116.5 -38.5t-80.5 -99.5h-31l36 166h92q43 43 58 102q11 42 11 117v338q0 93 -135 93v28h684v-28q-53 0 -74 -11q-31 -16 -31 -64v-500q0 -49 28 -63q25 -12 86 -12zM565 103v500q0 38 -8 53q-11 22 -46 22h-14
q36 -16 36 -77v-495q0 -32 -5 -45q-7 -20 -31 -33h16q52 0 52 75zM253 678h-99q42 -16 51 -52q10 32 48 52zM517 107v493q0 45 -20.5 61.5t-66.5 16.5h-73q-130 0 -130 -93v-339q0 -157 -45 -218h236q54 0 73 12q26 17 26 67zM737 -80l-20 80h-91q64 -29 108 -80h3zM109 0
h-61l-20 -85q36 52 81 85z" />
    <glyph glyph-name="afii10070" unicode="&#x435;" horiz-adv-x="713" 
d="M695 181l-56 -181h-615v28q66 0 88 14.5t22 65.5v482q0 59 -27 76q-19 12 -83 12v28h590l61 -160h-36q-49 61 -122 96.5t-151 35.5q-53 0 -75 -11q-32 -16 -32 -64v-226h107q128 0 128 121h34v-266h-34q0 117 -126 117h-109v-246q0 -46 31 -63q22 -12 71 -12h17.5h17.5
q80 0 146 45q43 30 111 108h42zM605 606v4l-37 68h-85q-2 0 -7 -1q37 0 129 -71zM486 316v98q-20 -33 -70 -50q50 -12 70 -48zM624 109v5q0 -23 -34 -42q-27 -15 -89 -42l5 -2h83zM182 103v499q0 40 -12 56q-14 20 -54 20q34 -15 34 -85v-487q0 -59 -34 -78q42 0 56 19
q10 14 10 56z" />
    <glyph glyph-name="afii10072" unicode="&#x436;" horiz-adv-x="1217" 
d="M1217 0h-336v28q80 0 80 36q0 19 -29 55l-198 247l-63 -56v-207q0 -46 32 -63q22 -12 71 -12v-28h-331v28q50 0 72 12q31 16 31 63v207l-63 56l-198 -247q-29 -36 -29 -55q0 -36 80 -36v-28h-336v28q37 0 72 31q16 14 53 60l265 331l-121 107q-122 108 -214 121v28h300
v-28q-80 0 -80 -50q0 -37 68 -98l203 -182v249q0 51 -28 68q-20 13 -75 13v28h331v-28q-56 0 -76 -12q-27 -17 -27 -69v-249l203 182q68 61 68 98q0 50 -80 50v28h300v-28q-92 -13 -214 -121l-121 -107l265 -331q63 -79 99 -88q12 -3 26 -3v-28zM1058 678h-122
q23 -20 23 -43q0 -13 -7 -31q60 52 106 74zM1011 68q0 27 -39 76l-202 254l-23 -20l189 -240q42 -53 42 -76q0 -21 -25 -34h13q18 0 31.5 11t13.5 29zM594 103v500q0 40 -13 57.5t-53 17.5v-2q34 -24 34 -80v-490q0 -61 -39 -76v-2q42 0 56.5 16.5t14.5 58.5zM256 678h-117
q54 -31 101 -74q-5 15 -5 34t21 40zM424 418l-22 21l-263 -331q-29 -36 -35 -43q-23 -25 -43 -35v-2q0 -6 5 -6q11 0 48.5 26.5t46.5 38.5z" />
    <glyph glyph-name="afii10073" unicode="&#x437;" horiz-adv-x="684" 
d="M642 176q0 -191 -295 -191q-13 0 -148 26q-26 5 -38 5q-50 0 -60 -31h-32v244h32q30 -213 246 -213q76 0 117 47q38 44 38 121q0 76 -40 122q-43 48 -118 48h-87v27h74q56 0 80 8q36 13 58 55q18 34 18 80q0 113 -90 155q-25 12 -69 12q-76 0 -138.5 -60t-68.5 -137h-30
v226h36q11 -26 46 -26q14 0 83 13q64 12 134 12q91 0 158 -50q74 -55 74 -143q0 -69 -54 -112q-48 -37 -120 -45v-3q0 2 3 2q9 0 66 -27q24 -10 66 -34q59 -47 59 -131zM536 528q0 56 -31 107q-35 59 -87 59l-5 -3q3 2 6 2q11 0 34 -25q53 -58 53 -145q0 -105 -76 -142h3
q45 0 76 53q27 45 27 94zM162 652q-23 0 -54 28v-106q22 50 54 78zM548 182q0 66 -30 112q-33 51 -95 60l-7 -6q102 -39 102 -164q0 -139 -100 -173l7 -2q123 23 123 173zM138 47q-34 29 -53 84v-112q13 25 53 28z" />
    <glyph glyph-name="afii10074" unicode="&#x438;" horiz-adv-x="874" 
d="M845 0h-334v28q59 0 82 13.5t23 65.5v411h-3l-329 -356q-24 -26 -24 -59q0 -47 31 -63q21 -12 73 -12v-28h-334v28q57 0 77 11q28 16 28 68v492q0 52 -23 65.5t-82 13.5v28h334v-28q-50 0 -72 -12q-32 -17 -32 -63v-417h3l329 357q24 26 24 57q0 48 -32 65q-22 13 -73 13
v28h334v-28q-53 0 -74 -11q-31 -16 -31 -64v-500q0 -49 31 -64q20 -11 74 -11v-28zM664 103v500q0 38 -8 53q-11 22 -46 22h-14q36 -16 36 -77v-495q0 -32 -5 -45q-7 -20 -31 -33h16q52 0 52 75zM184 103v500q0 41 -14 58t-54 17q36 -23 36 -78v-495q0 -32 -5 -45
q-7 -16 -31 -32h15q53 0 53 75z" />
    <glyph glyph-name="afii10075" unicode="&#x439;" horiz-adv-x="875" 
d="M611 833q0 -61 -118 -61h-110q-118 0 -118 61q0 32 50 82h41q-20 -38 -20 -66q0 -59 78 -59h48q78 0 78 59q0 28 -20 66h40q51 -49 51 -82zM845 0h-334v28q59 0 82 13.5t23 65.5v411h-3l-329 -356q-24 -26 -24 -59q0 -47 31 -63q21 -12 73 -12v-28h-334v28q57 0 77 11
q28 16 28 68v492q0 52 -23 65.5t-82 13.5v28h334v-28q-50 0 -72 -12q-32 -17 -32 -63v-417h3l329 357q24 26 24 57q0 48 -32 65q-22 13 -73 13v28h334v-28q-53 0 -74 -11q-31 -16 -31 -64v-500q0 -49 31 -64q20 -11 74 -11v-28zM572 840q0 36 -24 63h-12q16 -26 16 -58
q0 -49 -51 -59v-3q71 24 71 57zM375 783v3q-78 14 -78 50q0 27 32 67h-12q-40 -40 -40 -69q0 -51 98 -51zM664 103v500q0 38 -8 53q-11 22 -46 22h-14q36 -16 36 -77v-495q0 -32 -5 -45q-7 -20 -31 -33h16q52 0 52 75zM184 103v500q0 41 -14 58t-54 17q36 -23 36 -78v-495
q0 -32 -5 -45q-7 -16 -31 -32h15q53 0 53 75z" />
    <glyph glyph-name="afii10076" unicode="&#x43a;" horiz-adv-x="815" 
d="M812 0h-336v28q80 0 80 36q0 19 -29 55l-198 247l-63 -56v-207q0 -46 32 -63q22 -12 71 -12v-28h-342v28q60 0 81 10q33 16 33 70v485q0 56 -24 70.5t-90 14.5v28h342v-28q-56 0 -76 -12q-27 -17 -27 -69v-249l203 182q68 61 68 98q0 50 -80 50v28h300v-28
q-92 -13 -214 -121l-121 -107l265 -331q64 -79 99 -88q13 -3 26 -3v-28zM653 678h-122q23 -20 23 -43q0 -13 -7 -31q60 52 106 74zM606 68q0 27 -39 76l-202 254l-23 -20l189 -240q42 -53 42 -76q0 -21 -25 -34h13q18 0 31.5 11t13.5 29zM189 103v500q0 41 -14.5 58
t-55.5 17q25 -11 32 -29q6 -13 6 -44v-499q0 -33 -6 -48q-9 -20 -36 -30h13q37 0 50 21q11 17 11 54z" />
    <glyph glyph-name="afii10077" unicode="&#x43b;" horiz-adv-x="790" 
d="M760 0h-334v28q58 0 77 11q28 16 28 68v493q0 47 -23 64q-18 13 -68 15l4 -1q-11 -1 -24 -1h-25q-16 1 -24 1q-130 0 -130 -93v-398q0 -90 -20 -134q-30 -65 -109 -65q-47 0 -78 22q-34 24 -34 70q0 23 14 40.5t36 17.5q27 0 42 -20t15 -48q0 -54 29 -54q38 0 59 54
q16 40 16 86v429q0 59 -46 80q-29 13 -98 13v28h693v-28q-53 0 -74 -11q-31 -16 -31 -64v-500q0 -48 31 -64q21 -11 74 -11v-28zM579 103v500q0 38 -8 53q-11 22 -46 22h-14q36 -16 36 -77v-495q0 -32 -5 -45q-7 -20 -31 -33h16q52 0 52 75zM267 678h-99q42 -16 51 -52
q10 32 48 52zM86 6q-40 37 -40 65q0 23 21 23q16 0 16 4q0 6 -12 14t-19 8q-16 0 -26 -13t-10 -29q0 -50 69 -74z" />
    <glyph glyph-name="afii10078" unicode="&#x43c;" horiz-adv-x="949" 
d="M912 0h-323v28q99 0 99 85v503l-248 -616h-30l-245 597v-418q0 -64 24 -103q29 -48 89 -48v-28h-252v28q109 0 109 149v458q-37 43 -109 43v28h228l223 -535l219 535h216v-28q-99 0 -99 -75v-501q0 -45 30 -62q22 -12 69 -12v-28zM753 678q-32 0 -42 -24q-7 -15 -7 -51
v-498q0 -31 -5 -45q-8 -19 -31 -32h17q33 0 44 22q7 15 7 52v501q0 55 17 75zM431 62q0 14 -15 50l-195 474q-19 46 -34 64q-25 28 -65 28h-18q34 -12 54 -39q11 -16 30 -61l232 -550q11 20 11 34zM188 28q-40 19 -50 65q-17 -46 -50 -65h100z" />
    <glyph glyph-name="afii10079" unicode="&#x43d;" horiz-adv-x="875" 
d="M845 0h-334v28q59 0 82 13.5t23 65.5v238h-356v-242q0 -46 31 -63q22 -12 73 -12v-28h-334v28q57 0 77 11q28 16 28 68v492q0 52 -23 65.5t-82 13.5v28h334v-28q-50 0 -72 -12q-32 -17 -32 -63v-221h356v218q0 48 -32 65q-22 13 -73 13v28h334v-28q-53 0 -74 -11
q-31 -16 -31 -64v-500q0 -49 31 -64q20 -11 74 -11v-28zM664 103v500q0 38 -8 53q-11 22 -46 22h-14q36 -16 36 -77v-495q0 -32 -5 -45q-7 -20 -31 -33h16q52 0 52 75zM184 103v500q0 41 -14 58t-54 17q36 -23 36 -78v-495q0 -32 -5 -45q-7 -16 -31 -32h15q53 0 53 75z" />
    <glyph glyph-name="afii10080" unicode="&#x43e;" horiz-adv-x="832" 
d="M790 356q0 -160 -113.5 -265t-274.5 -105q-157 0 -258.5 106.5t-101.5 263.5q0 165 105 264.5t270 99.5q159 0 266 -103t107 -261zM696 332q0 236 -137 322q-53 33 -71 30q176 -90 176 -359q0 -165 -86 -265q63 30 94 118q24 68 24 154zM648 318q0 138 -57 244
q-71 130 -197 130q-106 0 -164 -93q-50 -79 -50 -191q0 -111 32 -203q39 -114 118 -162q48 -29 98 -29q44 0 86 21q70 35 105 121q29 72 29 162zM304 12l-1 2q-213 100 -213 350q0 172 141 300h-3q-170 -104 -170 -305q0 -126 64 -218t182 -129z" />
    <glyph glyph-name="afii10081" unicode="&#x43f;" horiz-adv-x="875" 
d="M845 0h-334v28q58 0 81.5 13.5t23.5 65.5v493q0 45 -20.5 61.5t-66.5 16.5h-183q-45 0 -64 -15q-22 -17 -22 -60v-500q0 -47 31 -63q21 -12 73 -12v-28h-334v28q57 0 77 11q28 16 28 68v491q0 53 -22.5 66.5t-82.5 13.5v28h815v-28q-53 0 -74 -11q-31 -16 -31 -64v-500
q0 -48 25 -61.5t80 -13.5v-28zM664 103v500q0 38 -8 53q-11 22 -46 22h-14q36 -16 36 -77v-495q0 -32 -5 -45q-7 -20 -31 -33h16q52 0 52 75zM184 103v500q0 41 -14 58t-54 17q36 -23 36 -79v-494q0 -32 -5 -45q-7 -16 -31 -32h15q53 0 53 75z" />
    <glyph glyph-name="afii10082" unicode="&#x440;" horiz-adv-x="699" 
d="M666 513q0 -97 -70 -144q-55 -37 -159 -46q-33 -3 -169 -3v-212q0 -50 41 -68q27 -12 85 -12v-28h-364v28q61 0 85 17q29 21 29 80v454q0 62 -27 83q-22 17 -87 17v27h344q292 0 292 -193zM578 512q0 132 -121 163l-3 -1q93 -46 93 -164q0 -120 -93 -157l3 -1
q121 18 121 160zM530 512q0 167 -172 167q-56 0 -74 -25q-16 -20 -16 -78v-228h70q94 0 140 34q52 39 52 130zM192 103v494q0 44 -15.5 63t-58.5 19q28 -15 35 -29t7 -48v-503q0 -55 -37 -71h13q56 0 56 75z" />
    <glyph glyph-name="afii10083" unicode="&#x441;" 
d="M725 150q-113 -164 -318 -164q-154 0 -259.5 104.5t-105.5 258.5q0 153 104 261.5t257 108.5q32 0 93 -16t93 -16q39 0 66 28h40v-221h-30q-96 197 -245 197q-118 0 -180 -112q-51 -91 -51 -219q0 -131 63 -225q72 -109 197 -109q144 0 246 140zM635 589l-3 85
q-21 -10 -49 -10h-13q-5 0 -11 2q25 -19 76 -77zM381 0q-127 32 -207 126q-84 98 -84 226q0 80 35.5 154.5t96.5 126.5q34 29 83 60q-246 -93 -246 -339q0 -144 89 -241t233 -113z" />
    <glyph glyph-name="afii10084" unicode="&#x442;" horiz-adv-x="743" 
d="M725 540h-36q-46 79 -107 109q-54 27 -150 29v-568q0 -48 23 -64t89 -18v-28h-350v28q62 1 83 13q30 18 30 75v562q-86 0 -147 -35q-49 -29 -111 -103h-31l36 166h635zM668 598l-22 80h-94q61 -19 116 -80zM146 678h-80l-20 -85q43 57 100 85zM356 618q0 57 -32 60v-568
q0 -57 -36 -82h11q36 0 49 28q8 18 8 59v503z" />
    <glyph glyph-name="afii10085" unicode="&#x443;" horiz-adv-x="736" 
d="M727 678q-46 0 -88 -65q-17 -27 -54 -106l-188 -408q-28 -61 -48 -81q-30 -32 -85 -32q-47 0 -78 22q-34 24 -34 70q0 23 14 40.5t36 17.5q25 0 41 -19q4 -4 15 -56q10 -44 29 -44q24 0 49.5 27.5t25.5 52.5q0 16 -11 38l-224 458q-23 47 -41 63q-25 22 -71 22v28h320
v-28q-76 0 -76 -45q0 -30 19 -68l155 -312h2l114 247q21 46 21 93q0 38 -21 61.5t-58 23.5v28h236v-28zM649 676v2h-102q40 -22 43 -79q23 47 59 77zM388 163q0 12 -15 43l-188 391q-22 45 -35 59q-22 22 -63 22v-2q10 -6 30 -33t27 -42l233 -479q11 24 11 41zM238 4
q-40 37 -40 65q0 23 21 23q16 0 16 4q0 6 -12 14t-19 8q-16 0 -26 -13t-10 -29q0 -50 69 -74z" />
    <glyph glyph-name="afii10086" unicode="&#x444;" horiz-adv-x="940" 
d="M910 363q0 -85 -67 -143q-51 -44 -148 -55q-31 -3 -162 -3v-46q0 -51 27 -71q23 -17 76 -17v-28h-333v28q65 0 85 17.5t20 80.5q0 6 -1 18v18h-36q-24 -1 -36 -1q-169 0 -237 57t-68 142q0 86 67 142q51 43 148 53q31 3 162 3v31q0 51 -28 71q-23 18 -76 18v28h333v-28
q-68 0 -88 -27q-15 -22 -15 -93h40q26 1 40 1q162 0 229.5 -53.5t67.5 -142.5zM707 525l-3 1l-6 -1h9zM822 359q0 88 -47 134q-22 22 -47 25q24 -4 45 -70q18 -55 18 -89q0 -125 -93 -165l6 -2q118 18 118 167zM774 360q0 82 -45 126.5t-127 44.5h-69v-342h69q82 0 127 44.5
t45 126.5zM455 81v531q0 66 -72 66q26 -11 33.5 -27.5t7.5 -47.5v-510q0 -42 -41 -65q72 0 72 53zM407 189v342h-69q-82 0 -127 -44.5t-45 -126.5t45 -126.5t127 -44.5h69zM197 194q-54 22 -86.5 65.5t-32.5 100.5q0 122 119 164l-6 2q-64 -14 -104 -58t-40 -108t40 -109
t104 -59z" />
    <glyph glyph-name="afii10087" unicode="&#x445;" horiz-adv-x="816" 
d="M801 0h-361v28q84 0 84 40q0 26 -52 95l-104 137l-94 -116q-52 -64 -52 -99q0 -52 80 -57v-28h-280v28q97 0 220 156l110 139l-194 254q-21 27 -42 55q-28 32 -53 40q-18 6 -45 6v28h342v-28h-20q-64 1 -64 -33q0 -20 29 -58l129 -171l92 112q48 58 48 94q0 28 -27 43
q-23 13 -53 13v28h276v-28q-57 -4 -119 -56q-37 -31 -92 -98l-108 -131l203 -266q68 -89 116 -97q13 -2 31 -2v-28zM678 676l-8 2h-111q31 -16 31 -47q0 -14 -2 -22l1 -1q1 6 40 35q36 27 49 33zM576 71q0 36 -65 121l-321 422q-27 36 -42 47q-24 17 -60 17l-3 -2q1 1 3 1
q18 0 67 -65l332 -443q53 -71 53 -101q0 -20 -26 -40q62 0 62 43zM212 28q-28 16 -28 39q0 17 8 41l-1 1q4 -4 -13 -18q-10 -8 -89 -63h123z" />
    <glyph glyph-name="afii10088" unicode="&#x446;" horiz-adv-x="879" 
d="M888 -138h-36q-36 60 -90 97q-60 41 -125 41h-607v28q60 0 79 13q25 18 25 75v473q0 50 -28 71q-24 18 -76 18v28h333v-28q-54 0 -77 -17q-26 -20 -26 -72v-473q0 -51 27 -71q23 -17 76 -17h153q54 0 74.5 17.5t20.5 70.5v473q0 51 -28 71q-23 18 -76 18v28h333v-28
q-54 0 -77 -17q-26 -20 -26 -72v-473q0 -56 32 -74q23 -14 83 -14zM659 81v531q0 66 -72 66q26 -11 33.5 -27.5t7.5 -47.5v-510q0 -42 -41 -65q72 0 72 53zM831 -80l-22 80h-94q61 -19 116 -80zM182 81v531q0 66 -72 66q27 -9 35 -29q6 -13 6 -46v-510q0 -42 -41 -65
q72 0 72 53z" />
    <glyph glyph-name="afii10089" unicode="&#x447;" horiz-adv-x="724" 
d="M694 0h-362v28q65 0 92 12q41 19 41 76v207q-65 -14 -130 -14q-189 0 -222 120q-9 32 -9 141q0 53 -16 78q-20 30 -70 30v28h300v-28q-49 0 -69 -20t-20 -69v-81q0 -86 20 -122q27 -50 106 -50q65 0 110 15v238q0 51 -21.5 70t-72.5 19v28h323v-28q-54 0 -77 -17
q-26 -20 -26 -72v-473q0 -51 27 -71q23 -17 76 -17v-28zM513 81v531q0 66 -72 66q26 -11 33.5 -27.5t7.5 -47.5v-510q0 -42 -41 -65q72 0 72 53zM244 337q-50 34 -69 65q-24 40 -24 111v99q0 66 -68 66q29 -15 35 -49q2 -9 2 -64q0 -100 15 -143q26 -72 106 -86z" />
    <glyph glyph-name="afii10090" unicode="&#x448;" horiz-adv-x="1245" 
d="M1215 0h-1185v28q61 0 79 13q25 17 25 75v473q0 50 -28 71q-24 18 -76 18v28h333v-28q-54 0 -77 -17q-26 -20 -26 -72v-473q0 -51 27 -71q23 -17 76 -17h100q54 0 75.5 17.5t21.5 70.5v473q0 50 -28 71q-24 18 -76 18v28h333v-28q-54 0 -77 -17q-26 -20 -26 -72v-473
q0 -88 93 -88h103q60 0 79 13q25 17 25 75v473q0 50 -28 71q-24 18 -76 18v28h333v-28q-54 0 -77 -17q-26 -20 -26 -72v-473q0 -51 27 -71q23 -17 76 -17v-28zM1034 81v531q0 66 -72 66q27 -9 35 -29q6 -13 6 -46v-510q0 -42 -41 -65q72 0 72 53zM608 81v531q0 66 -72 66
q27 -9 35 -29q6 -13 6 -46v-510q0 -42 -41 -65q72 0 72 53zM182 81v531q0 66 -72 66q27 -9 35 -29q6 -13 6 -46v-510q0 -42 -41 -65q72 0 72 53z" />
    <glyph glyph-name="afii10091" unicode="&#x449;" horiz-adv-x="1248" 
d="M1263 -138h-36q-36 61 -97 99.5t-130 38.5h-970v28q61 0 80 13q24 17 24 75v473q0 50 -28 71q-24 18 -76 18v28h333v-28q-54 0 -77 -17q-26 -20 -26 -72v-473q0 -51 27 -71q23 -17 76 -17h100q54 0 75.5 17.5t21.5 70.5v473q0 50 -28 71q-24 18 -76 18v28h333v-28
q-54 0 -77 -17q-26 -20 -26 -72v-473q0 -88 93 -88h103q60 0 79 13q25 17 25 75v473q0 50 -28 71q-24 18 -76 18v28h333v-28q-54 0 -77 -17q-26 -20 -26 -72v-473q0 -55 32 -74q23 -14 83 -14zM1034 81v531q0 66 -72 66q27 -9 35 -29q6 -13 6 -46v-510q0 -42 -41 -65
q72 0 72 53zM1206 -80l-22 80h-90v-3l1 1q8 -2 54 -35t57 -43zM608 81v531q0 66 -72 66q27 -9 35 -29q6 -13 6 -46v-510q0 -42 -41 -65q72 0 72 53zM182 81v531q0 66 -72 66q27 -9 35 -29q6 -13 6 -46v-510q0 -42 -41 -65q72 0 72 53z" />
    <glyph glyph-name="afii10092" unicode="&#x44a;" horiz-adv-x="803" 
d="M794 193q0 -193 -292 -193h-361v27q71 0 101 18.5t30 81.5v468q0 32 -13 55q-16 29 -46 29q-53 0 -102 -45q-41 -38 -66 -94h-30l36 166h462v-27q-58 0 -82 -12q-35 -18 -35 -69v-202h42q27 1 41 1q176 0 245.5 -55.5t69.5 -148.5zM706 194q0 67 -27 111q-32 50 -94 59
l-3 -2q93 -52 93 -166q0 -117 -93 -164l3 -1q121 31 121 163zM143 679h-79l-20 -86h2q40 55 97 86zM658 194q0 175 -192 175h-70v-239q0 -58 16 -78q18 -25 74 -25q172 0 172 167zM320 103v500q0 76 -56 76h-10q34 -25 34 -84v-479q0 -63 -42 -89q42 0 58 17t16 59z" />
    <glyph glyph-name="afii10093" unicode="&#x44b;" horiz-adv-x="1027" 
d="M996 0h-333v28q61 0 80 13q24 17 24 75v473q0 51 -28 71q-23 18 -76 18v28h333v-28q-54 0 -77 -17q-26 -20 -26 -72v-473q0 -51 27 -71q23 -17 76 -17v-28zM667 193q0 -193 -292 -193h-344v28q60 0 85 19q29 22 29 80v468q0 54 -27 68.5t-87 14.5v28h355v-28
q-61 0 -87 -13q-30 -15 -30 -67v-202h42q27 1 41 1q176 0 245.5 -55.5t69.5 -148.5zM815 81v531q0 66 -72 66q26 -11 33.5 -27.5t7.5 -47.5v-510q0 -42 -41 -65q72 0 72 53zM579 194q0 67 -27 111q-32 50 -94 59l-3 -2q93 -54 93 -166q0 -117 -93 -164l3 -1q121 31 121 163z
M531 194q0 175 -192 175h-70v-239q0 -57 16 -78q18 -24 74 -24q172 0 172 166zM193 103v500q0 38 -9 53q-12 22 -47 22h-13q37 -22 37 -75v-487q0 -63 -42 -88q42 0 58 16.5t16 58.5z" />
    <glyph glyph-name="afii10094" unicode="&#x44c;" horiz-adv-x="699" 
d="M666 193q0 -193 -292 -193h-344v27q60 0 85 19q29 23 29 81v468q0 53 -33 71q-23 13 -81 13v27h355v-27q-58 0 -82 -12q-35 -18 -35 -69v-202h42q27 1 41 1q176 0 245.5 -55.5t69.5 -148.5zM578 194q0 67 -27 111q-32 50 -94 59l-3 -2q93 -52 93 -166q0 -117 -93 -164
l3 -1q121 31 121 163zM530 194q0 175 -192 175h-70v-239q0 -58 16 -78q18 -25 74 -25q172 0 172 167zM192 103v500q0 38 -9 54q-12 22 -47 22h-13q24 -15 30.5 -30.5t6.5 -45.5v-487q0 -63 -42 -89q42 0 58 17t16 59z" />
    <glyph glyph-name="afii10095" unicode="&#x44d;" 
d="M704 349q0 -154 -105.5 -258.5t-259.5 -104.5q-205 0 -318 164l30 16q102 -140 246 -140q54 0 102 24q79 40 120 127q36 77 38 174h-143q-129 0 -128 -117h-34v266h34q-1 -122 128 -122h143q-4 126 -54 209q-62 104 -177 104q-85 0 -154 -57t-91 -140h-30v221h40
q24 -28 58 -28q29 0 76 10q37 9 75 17q26 5 39 5q159 0 262 -105.5t103 -264.5zM607 353q0 126 -40 205q-47 91 -155 135l-5 -2q167 -83 167 -332q0 -122 -47 -208q-54 -100 -162 -133l4 -4q118 25 181 124q57 89 57 215zM135 652q-36 0 -67 28v-106q29 49 67 78zM319 365
q-32 19 -52 54v-108q18 35 52 54z" />
    <glyph glyph-name="afii10096" unicode="&#x44e;" horiz-adv-x="1170" 
d="M1128 356q0 -160 -113.5 -265t-274.5 -105q-155 0 -257.5 104.5t-102.5 260.5h-117v-235q0 -90 103 -88v-28h-333v28q104 -2 104 89v472q0 91 -104 89v28h333v-28q-103 2 -103 -89v-211h117q0 148 115 247q110 94 260 94q158 0 265.5 -102.5t107.5 -260.5zM1034 332
q0 236 -137 322q-53 33 -71 30q176 -90 176 -359q0 -165 -86 -265q63 30 94 118q24 68 24 154zM986 318q0 138 -57 244q-71 129 -197 129q-105 0 -164 -92q-50 -79 -50 -191q0 -111 32 -203q39 -114 118 -162q48 -29 98 -29q44 0 86 21q70 35 105 121q29 72 29 162zM642 12
l-1 2q-213 100 -213 350q0 172 141 300h-3q-170 -104 -170 -305q0 -126 64 -218t182 -129zM185 117v474q0 46 -11 64q-15 23 -58 23q37 -19 37 -87v-475q0 -67 -40 -88q45 0 60 23q12 18 12 66z" />
    <glyph glyph-name="afii10097" unicode="&#x44f;" horiz-adv-x="735" 
d="M705 0h-342v28q53 0 76 18q28 20 28 71v203h-33q-18 -11 -75 -82q-43 -55 -85 -110q-56 -68 -95 -97q-42 -31 -88 -31h-94v28q47 0 103 62q15 16 78 101q66 89 109 132q-218 21 -218 188q0 108 95 157q73 38 192 38h349v-27q-66 0 -88 -16q-26 -21 -26 -84v-462
q0 -55 31 -74q25 -15 83 -15v-28zM467 348v228q0 58 -15 79q-19 24 -75 24q-172 0 -172 -168q0 -91 52 -130q45 -33 140 -33h70zM515 82v531q0 66 -72 66q26 -11 34 -30q7 -14 7 -45v-510q0 -43 -41 -66q72 0 72 54zM209 676q-5 4 -10 4q-13 0 -46 -28q-39 -33 -53.5 -62.5
t-14.5 -79.5q0 -122 120 -154l3 1q-92 56 -92 153q0 108 93 166zM343 320h-39q-50 -55 -93 -114q-46 -64 -71 -94q-46 -56 -82 -82q8 -7 18 -7q44 0 188 197q44 61 79 100z" />
    <glyph glyph-name="afii10071" unicode="&#x451;" horiz-adv-x="715" 
d="M515 865q0 -28 -18 -46.5t-46 -18.5t-46.5 17.5t-18.5 45.5q0 29 18 47t47 18q27 0 45.5 -18t18.5 -45zM284 865q0 -28 -18 -46.5t-46 -18.5t-46.5 17.5t-18.5 45.5t18.5 46.5t46.5 18.5q27 0 45.5 -18t18.5 -45zM695 181l-56 -181h-615v28q66 0 88 14.5t22 65.5v482
q0 59 -27 76q-19 12 -83 12v28h590l61 -160h-36q-49 61 -122 96.5t-151 35.5q-53 0 -75 -11q-32 -16 -32 -64v-226h107q128 0 128 121h34v-266h-34q0 117 -126 117h-109v-232q0 -55 37 -73q33 -16 100 -16q65 0 143 50q68 44 114 103h42zM461 814v2q0 8 -14 22t-14 28
q0 26 28 45v2h-9q-50 0 -50 -50q0 -49 59 -49zM605 606v4l-37 68h-85q-2 0 -7 -1q37 0 129 -71zM230 814v2q0 8 -14 22t-14 28q0 26 28 45v2h-9q-50 0 -50 -50q0 -49 59 -49zM486 316v98q-20 -33 -70 -50q50 -12 70 -48zM624 109v5q-29 -43 -123 -84l5 -2h83zM182 103v499
q0 40 -12 56q-14 20 -54 20q34 -15 34 -85v-487q0 -59 -34 -78q42 0 56 19q10 14 10 56z" />
    <glyph glyph-name="endash" unicode="&#x2013;" horiz-adv-x="512" 
d="M485 210h-458v97h458v-97zM467 227v32h-422v-32h422z" />
    <glyph glyph-name="emdash" unicode="&#x2014;" horiz-adv-x="1024" 
d="M997 210h-970v97h970v-97zM979 227v32h-934v-32h934z" />
    <glyph glyph-name="quoteleft" unicode="&#x2018;" horiz-adv-x="246" 
d="M202 450q0 -24 -18.5 -39t-43.5 -15q-43 0 -71 46q-24 40 -24 86q0 131 141 193v-33q-66 -28 -66 -86q0 -14 41 -76t41 -76zM180 437q-7 -2 -12 -2q-40 0 -63 42q-18 34 -18 78q0 43 29 103q-54 -64 -54 -132q0 -39 20 -74q24 -40 60 -40q26 0 38 25z" />
    <glyph glyph-name="quoteright" unicode="&#x2019;" horiz-adv-x="246" 
d="M200 591q0 -133 -140 -195v32q68 35 68 89q0 12 -41 73t-41 72q0 24 19 40.5t43 16.5q43 0 69 -44q23 -38 23 -84zM162 549q0 17 -34 64t-34 57q0 21 20 32h-12q-40 0 -40 -43q0 -11 41 -65t41 -73q0 -15 -12 -50q30 39 30 78z" />
    <glyph glyph-name="quotesinglbase" unicode="&#x201a;" horiz-adv-x="246" 
d="M192 -8q0 -65 -41 -126t-102 -85v27q71 42 71 102q0 18 -33.5 74.5t-33.5 75.5q0 23 17 39.5t40 16.5q40 0 63 -44q19 -36 19 -80zM158 -58q0 14 -27.5 62t-27.5 60q0 17 26 28q-17 8 -21 8q-38 0 -38 -40q0 -16 33 -74.5t33 -75.5q0 -47 -16 -54q17 7 29 38q9 25 9 48z
" />
    <glyph glyph-name="quotedblleft" unicode="&#x201c;" horiz-adv-x="448" 
d="M404 450q0 -23 -18.5 -38.5t-42.5 -15.5q-34 0 -65 36t-31 96q0 65 41 118q38 49 101 75v-33q-67 -30 -67 -86q0 -15 41 -76t41 -76zM202 450q0 -24 -18.5 -39t-43.5 -15q-43 0 -72 46q-24 40 -24 86q0 132 142 193v-33q-66 -28 -66 -86q0 -14 41 -76t41 -76zM383 437
q-8 -2 -13 -2q-39 0 -62 42q-18 35 -18 78q0 40 26 97q-53 -59 -53 -126q0 -38 21 -73q25 -41 60 -41q26 0 39 25zM180 437q-7 -2 -12 -2q-40 0 -63 42q-18 34 -18 78q0 45 27 97q-54 -57 -54 -126q0 -39 21 -74q25 -40 61 -40q26 0 38 25z" />
    <glyph glyph-name="quotedblright" unicode="&#x201d;" horiz-adv-x="448" 
d="M404 591q0 -135 -142 -195v32q69 33 69 89q0 14 -41 73.5t-41 71.5q0 24 19.5 40.5t43.5 16.5q41 0 68 -45q24 -40 24 -83zM200 591q0 -133 -140 -195v32q69 34 69 89q0 13 -41.5 73t-41.5 72q0 24 19 40.5t43 16.5q43 0 69 -44q23 -38 23 -84zM364 549q0 29 -33.5 68
t-33.5 56q0 10 19 29h-11q-17 0 -28.5 -11.5t-11.5 -28.5q0 -15 41 -67.5t41 -73.5q0 -43 -12 -50q13 2 22 34q7 26 7 44zM162 549q0 17 -34 64t-34 57q0 21 20 32h-12q-40 0 -40 -40q0 -13 42 -69.5t42 -74.5q0 -8 -14 -47q30 39 30 78z" />
    <glyph glyph-name="quotedblbase" unicode="&#x201e;" horiz-adv-x="448" 
d="M404 -12q0 -134 -142 -195v32q69 33 69 90q0 16 -41 72t-41 71q0 25 19 41.5t44 16.5q34 0 63 -36t29 -92zM200 -12q0 -133 -140 -195v32q69 31 69 90q0 18 -41.5 72.5t-41.5 70.5q0 25 18.5 41.5t43.5 16.5q41 0 69 -45q23 -39 23 -83zM364 -54q0 15 -33.5 64t-33.5 56
t7 18.5t7 13.5t-6 2q-17 0 -28.5 -11.5t-11.5 -28.5t41 -70t41 -72q0 -44 -12 -49q13 5 22 34q7 24 7 43zM162 -54q0 33 -34 77.5l-34 44.5q0 7 7.5 17t7.5 13q0 2 -7 2q-40 0 -40 -40q0 -19 42 -72t42 -74v1q0 -41 -14 -46q13 2 22 33q8 26 8 44z" />
    <glyph glyph-name="dagger" unicode="&#x2020;" horiz-adv-x="522" 
d="M510 409q0 -26 -18.5 -42t-45.5 -16t-85 22t-85 22q1 -13 8 -65q9 -68 26 -205q18 -141 18 -218q0 -121 -68 -121t-68 119q0 -11 6 78q1 20 14 120l28 218q5 39 8 74q-26 0 -83 -21t-84 -21t-47 14t-20 40q0 25 19 40.5t45 15.5q31 0 85 -18q59 -20 85 -23v10
q0 27 -16 94q-12 48 -24 97q-8 36 -8 50q0 31 16 54.5t46 23.5q28 0 44 -24t16 -53q0 -18 -7 -53l-24 -100q-15 -64 -15 -99q28 1 85 22q54 21 85 21q25 0 44.5 -16t19.5 -40zM272 732q-3 1 -10 1q-46 0 -46 -59q0 -35 14 -86q12 -43 29 -118h4q2 0 2 8q0 30 -8 88.5
t-8 88.5q0 48 23 77zM494 413q0 16 -19 26q-15 8 -33 8q-19 0 -70 -16q-37 -11 -73 -22v-4h10q23 0 67.5 5t67.5 5q8 0 21.5 -6t20.5 -6q8 0 8 10zM230 401v8q-116 38 -154 38q-46 0 -46 -36q0 -6 7 -6q5 0 18 5t21 5q26 0 77 -7t77 -7zM282 -193q-42 19 -42 102q0 21 4 83
l16 248q4 62 4 103q0 8 -1 12h-4q-25 -190 -38 -304t-13 -152q0 -96 49 -96q11 0 25 4z" />
    <glyph glyph-name="bullet" unicode="&#x2022;" horiz-adv-x="305" 
d="M266 292q0 -47 -33 -79.5t-80 -32.5q-48 0 -81 32t-33 80q0 49 33 81t82 32q47 0 79.5 -33t32.5 -80zM171 204v3q-47 23 -47 87q0 61 47 81v6q-102 0 -102 -89q0 -88 102 -88z" />
    <glyph glyph-name="ellipsis" unicode="&#x2026;" horiz-adv-x="1024" 
d="M916 50q0 -26 -18.5 -45t-44.5 -19t-43.5 19t-17.5 45t17.5 45t43.5 19t44.5 -19t18.5 -45zM574 50q0 -26 -18 -45t-44 -19t-44 19t-18 45t18 45t44 19t44 -19t18 -45zM234 50q0 -26 -18.5 -45t-44.5 -19t-43.5 19t-17.5 45t17.5 45t43.5 19t44.5 -19t18.5 -45zM864 8
q-22 19 -22 44q0 8 7 23t7 19q0 2 -4 2q-18 0 -30.5 -13.5t-12.5 -31.5q0 -17 12.5 -30.5t29.5 -13.5h6q4 0 7 1zM522 8q-22 22 -22 44q0 10 7 25.5l7 15.5q0 3 -3 3q-18 0 -30 -13.5t-12 -31.5q0 -19 12.5 -31.5t31.5 -12.5q6 0 9 1zM181 8q-21 21 -21 44q0 9 7 24t7 18
q0 2 -5 2q-18 0 -30.5 -13.5t-12.5 -31.5q0 -17 12.5 -30.5t29.5 -13.5h6q4 0 7 1z" />
    <glyph glyph-name="perthousand" unicode="&#x2030;" horiz-adv-x="1451" 
d="M1433 176q0 -89 -61 -140q-57 -48 -147 -48q-92 0 -148 47q-60 50 -60 141q0 88 59 139q55 48 145 48q91 0 149 -47q63 -51 63 -140zM936 176q0 -89 -61 -140q-57 -48 -147 -48q-92 0 -148 47q-60 50 -60 141q0 88 59 139q55 48 145 48q91 0 149 -47q63 -51 63 -140z
M738 737l-470 -747h-54l471 747h53zM434 546q0 -89 -61 -140q-57 -48 -147 -48q-92 0 -148 47q-60 50 -60 141q0 88 59 139q55 48 145 48q91 0 149 -47q63 -51 63 -140zM1355 174q0 126 -81 161h-3q25 0 41 -69q12 -52 12 -92q0 -110 -54 -158h3q37 0 62 63q20 50 20 95z
M1307 170q0 165 -82 165q-80 0 -80 -159q0 -160 80 -160q82 0 82 154zM1183 344h-8q-5 0 -18 -4q-60 -18 -90 -58q-34 -45 -34 -104q0 -98 78 -149q28 -18 57 -18q-41 0 -73 64q-27 54 -27 101q0 116 115 168zM858 174q0 126 -80 161h-3q29 0 43 -67q9 -44 9 -94
q0 -108 -54 -158h3q37 0 62 63q20 50 20 95zM810 170q0 165 -82 165q-80 0 -80 -159q0 -160 80 -160q82 0 82 154zM356 544q0 126 -81 161h-3q30 0 44 -68q9 -43 9 -93q0 -108 -54 -158h3q37 0 62 63q20 50 20 95zM686 344h-8q-5 0 -18 -4q-60 -18 -90 -58q-34 -45 -34 -104
q0 -97 79 -149q27 -18 56 -18q-41 0 -73 64q-27 54 -27 101q0 116 115 168zM308 540q0 165 -82 165q-80 0 -80 -159q0 -160 80 -160q82 0 82 154zM184 714h-8q-5 0 -18 -4q-60 -18 -90 -58q-34 -45 -34 -104q0 -97 79 -149q27 -18 56 -18q-41 0 -73 64q-27 54 -27 101
q0 116 115 168z" />
    <glyph glyph-name="guilsinglleft" unicode="&#x2039;" horiz-adv-x="320" 
d="M289 0h-131l-138 243l138 245h131l-137 -245zM204 17l-128 226l128 227h-6q-20 0 -37 -19q-6 -8 -23 -37l-99 -171l99 -176q28 -50 66 -50z" />
    <glyph glyph-name="guilsinglright" unicode="&#x203a;" horiz-adv-x="320" 
d="M300 244l-138 -244h-132l139 244l-139 245h132zM224 244l-84 150q-26 46 -44 65q-13 13 -36 13l128 -228l-128 -226h4q25 0 44 24q6 7 28 46z" />
    <glyph glyph-name="afii61352" unicode="&#x2116;" horiz-adv-x="1150" 
d="M1120 340q0 -69 -49 -118t-118 -49q-70 0 -117 47t-47 117q0 69 48.5 117t117.5 48t117 -46.5t48 -115.5zM1098 0h-278v97h278v-97zM801 678q-51 0 -77.5 -33t-26.5 -85v-576h-29l-513 598v-402q0 -61 25 -102q30 -50 87 -50v-28h-246v28q54 0 83 65q23 50 23 112v409
q-58 64 -118 64v28h207l452 -526v354q0 52 -42 98t-93 46v28h268v-28zM1059 330q0 85 -46 127h-3q14 -1 23 -61q7 -46 7 -76q0 -50 -24 -100h3q20 0 32 47q8 34 8 63zM715 678h-118v-2q6 -1 35.5 -27.5t34.5 -34.5q9 40 48 64zM1018 326q0 152 -66 152q-64 0 -64 -121
q0 -52 13 -94q20 -61 60 -61q57 0 57 124zM906 197q-78 71 -78 143q0 70 61 131h-3q-31 0 -57 -55q-23 -48 -23 -83q0 -85 97 -136h3zM1081 17v32h-244v-32h244zM668 8q0 35 -7.5 53t-30.5 45l-451 525q-27 31 -45 39t-60 8v-2l17 -12q41 -29 66 -58zM189 28q-47 26 -62 65
q-14 -44 -51 -65h113z" />
    <glyph glyph-name="trademark" unicode="&#x2122;" horiz-adv-x="1063" 
d="M1045 287h-204v18q62 0 62 53v302h-3l-153 -373h-19l-152 358h-2v-245q0 -95 71 -95v-18h-159v18q70 0 70 94v288q-24 27 -70 27v18h144l141 -337l137 337h137v-18q-63 0 -63 -47v-316q0 -46 63 -46v-18zM454 627h-23q-28 49 -65.5 68t-96.5 19v-358q0 -52 71 -51v-18
h-221v18q38 0 52 8q20 11 20 47v354q-55 0 -93 -22q-32 -18 -70 -65h-19l22 105h400zM944 714q-30 0 -30 -47v-314q0 -37 -23 -48h11q32 0 32 46v316q0 37 10 47zM742 326q0 8 -10 32l-123 298q-14 35 -25 44q-14 14 -48 14q31 -13 52 -63l147 -346q7 13 7 21zM423 664
l-19 50h-54v-2q6 -1 37 -21q28 -19 36 -27zM588 305q-22 11 -29 41q-7 -25 -37 -41h66zM89 714h-50l-13 -53q26 34 63 53zM222 676q0 37 -21 38v-358q0 -38 -22 -51h7q36 0 36 51v320z" />
    <glyph glyph-name="periodcentered" unicode="&#xb7;" horiz-adv-x="246" 
d="M188 356q0 -27 -17.5 -45t-44.5 -18q-26 0 -44 18.5t-18 44.5t18 44.5t44 18.5t44 -18.5t18 -44.5zM136 312q-22 22 -22 44q0 8 7.5 24t7.5 19t-5 3q-18 0 -30.5 -14t-12.5 -32t12 -32t30 -14q4 0 13 2z" />
    <glyph glyph-name="periodcentered" unicode="&#x2219;" horiz-adv-x="246" 
d="M188 356q0 -27 -17.5 -45t-44.5 -18q-26 0 -44 18.5t-18 44.5t18 44.5t44 18.5t44 -18.5t18 -44.5zM136 312q-22 22 -22 44q0 8 7.5 24t7.5 19t-5 3q-18 0 -30.5 -14t-12.5 -32t12 -32t30 -14q4 0 13 2z" />
    <glyph glyph-name="u0000" horiz-adv-x="1000" 
 />
    <glyph glyph-name="u0001" horiz-adv-x="1000" 
 />
    </font>
</defs>
</svg>
